<?xml version="1.0" encoding="utf-8"?>
<!-- Generator: Adobe Illustrator 19.2.0, SVG Export Plug-In . SVG Version: 6.00 Build 0)  -->
<svg version="1.1" id="Layer_1" xmlns="http://www.w3.org/2000/svg" xmlns:xlink="http://www.w3.org/1999/xlink" x="0px" y="0px"
	 viewBox="0 0 359 206" style="enable-background:new 0 0 359 206;" xml:space="preserve">
<style type="text/css">
	.st0{fill:#4D4D4D;}
	.st1{fill:#FFFFFF;}
	.st2{fill:#A6A6A6;}
</style>
<g>
	<path class="st0" d="M126.4,50.7h105.2v71.7H126.4V50.7L126.4,50.7z M231.6,149.9v6.4H126.4v-6.4H231.6L231.6,149.9z"/>
	<path class="st1" d="M132.8,117.7c-4-4.1-2.2-12,4.7-11.1c0.6-1.4,1.2-2.7,1.6-3.8c-1.6,0-2.9,0.2-4.1,1.5c0.5-3.2,2.5-4.7,5.6-4.8
		l3.4-8.3c-0.1-1.1-3.5-0.5-4.2,1.7l-1.1-0.9c1.1-2.1,2.2-4.2,3.4-6.2c6.3-3.2,10.2,4.3,12.3,9c1.6,3.4,2.9,6.9,4.4,10.3
		c0.3,0.7,0.6,1.4,0.9,2c0.5,0.4,1.1-0.1,1.8-1l0.8,1c-2.5,2.5-4.8,4.7-7.3,7.3c-0.2-0.3-0.3-0.7-0.5-0.9c-1-2.9-2-6.4-3-9.3
		c-0.7,0.3-7.1,0.5-9-0.9c-0.4,1-1,2.8-1.4,3.9c0.8,0.5,1.7,1.2,2.6,1.8c0.2,0.1,0.3,0.2,0.6,0.3c1,0.1,1.6-0.5,2-0.6l0.4,0.5
		l-4.4,4.7c-6.3-6.6-12.1-2.7-8.7,3.4C133.1,117.2,133,117.6,132.8,117.7L132.8,117.7z M143.9,99.7l2.8-7c1.3,1.7,2.8,5.9,3.5,7.9
		C147.8,100.6,145.7,100.4,143.9,99.7L143.9,99.7z M187.9,115l-4.9-4c0.8-0.2,1.1-0.5,1.3-1.1c0-2.5,0.1-5,0.1-7.5
		c0.1-2.1-3.4-2.9-3.6,0.2l0.1,6.1c0,0.8,0.5,1.4,1.8,0.8l0.1,0.9l-5,4.4l-4.7-3.9c0.4-0.2,1.1-0.7,1.2-1.1c0-2.5,0.4-5.7,0-8.1
		c-0.5-1.6-3.1-1.3-3.2,0.7c0,0.7-0.1,5.4,0.1,7.1c0.1,0.6,0.8,0.6,1.2,0.3l0.4-0.2v0.8l-4.8,4.4l-4.9-4.5c0.6-0.2,1.2-0.4,1.5-0.9
		c0-0.9,0.5-6.5,0-8.1c-0.1-0.3-0.4-0.5-0.7-0.5c-0.5-0.1-1.3,0.3-1.5,0.4c0-0.2-0.6-0.8-0.6-0.8c1.4-1.2,2.9-2.3,4.4-3.5
		c3-0.3,4.6,1.9,4.7,3c4-2.9,5.2-5.2,9.2-0.7c0.2,0.3,0.4,0.5,0.7,0.9c3-3.9,8.9-4.6,10.1,0.7c0,2.8,0,5.6,0,8.5v0.2
		c0,1.1,0.8,0.7,1.7,0l0.2,0.9L187.9,115L187.9,115z M200.6,115.1c-0.5-0.4-5.7-4-5.7-4c0.1-0.1,1-0.3,1.1-0.8c0-2.6,0-4.7,0.1-7.2
		c0.1-2-0.9-2-2.5-1.2l-0.7-1.2L198,97c2-0.1,4.1,1.8,4,3.9c0,2.4,0,4.8,0,7.2c0,0.9-0.1,1.4,0.5,2.1c0.8,0.7,1.7,0.6,2.7,0.2
		c0.9-0.4,1.2-1.1,1.2-1.9c0-1.8,0.1-4.2,0-6c0-0.4-0.2-0.8-0.6-0.9c-0.6-0.1-1.1-0.1-1.6,0.6l-0.8-1.2l4.4-3.6
		c1.7,0,4.1,0.7,4.7,3.2c0.4,2.2-0.1,5.7,0.2,7.8c0.1,0.5,0.2,0.9,0.3,1.2c0.6,0.7,1.1,0.4,2-0.2l0.5,0.9c-1.4,1.3-3.5,3.5-4.9,4.8
		c-1.7-1.1-2.8-2.1-4.4-3.7C204.4,112.6,202.4,114,200.6,115.1L200.6,115.1z M221.5,115.4c-1.2-1.5-3.2-3.1-4.7-4.3
		c1.2,0.1,1.3-0.4,1.3-1.4c0-5.2,0.1-10.3,0.1-15.4c-0.4-2.1-2-1.2-3.2-0.3l-0.6-1l5.3-5.4c2.5,0.2,4.7,1.8,5.2,3.9
		c0,5.9,0,12,0.1,18c0.2,1,1.3,0.9,2,0.4c0.1,0.3,0.2,0.5,0.4,0.9C225.7,112,223.4,113.6,221.5,115.4L221.5,115.4z"/>
	<polygon class="st2" points="94.3,124.6 263.7,124.6 263.7,147.8 94.3,147.8 	"/>
	<path class="st1" d="M101.6,130.2H112l0.3,4.6h-0.7c-0.2-1-0.4-1.7-0.7-2.3c-0.3-0.5-0.6-0.9-0.9-1.2c-0.4-0.2-0.7-0.3-1.2-0.3
		c-0.2,0-0.4,0.1-0.5,0.2c-0.1,0.1-0.2,0.2-0.2,0.4v9.3c0,0.2,0.1,0.3,0.2,0.4c0.1,0.1,0.2,0.2,0.4,0.2h1.4v0.8h-6.4v-0.8h1.3
		c0.2,0,0.3-0.1,0.5-0.2c0.1-0.1,0.2-0.3,0.2-0.4v-9.2c0-0.2-0.1-0.4-0.2-0.5s-0.3-0.2-0.5-0.2c-1.4,0-2.3,1.3-2.8,3.8h-0.7
		L101.6,130.2L101.6,130.2z M113.3,130.2l3.6-0.2v5.9c0.5-0.7,1-1.1,1.5-1.4c0.5-0.2,1-0.4,1.5-0.4c0.8,0,1.3,0.2,1.7,0.7
		c0.5,0.5,0.7,1.3,0.7,2.2v3.6c0,0.2,0.1,0.4,0.2,0.5s0.3,0.2,0.5,0.2h0.5v0.8H119v-0.8h0.5c0.3,0,0.5-0.1,0.6-0.2
		c0.1-0.1,0.2-0.3,0.2-0.6V137c0-0.5-0.1-0.9-0.4-1.2s-0.6-0.4-1-0.4c-0.5,0-0.9,0.2-1.3,0.6c-0.4,0.4-0.5,1-0.5,1.7v2.8
		c0,0.2,0.1,0.4,0.2,0.5s0.3,0.2,0.5,0.2h0.6v0.8h-4.7v-0.8h0.7c0.2,0,0.4-0.1,0.5-0.2c0.1-0.1,0.2-0.3,0.2-0.5v-8.9
		c0-0.3-0.1-0.5-0.2-0.6c-0.2-0.1-0.4-0.2-0.7-0.2h-0.5v-0.6H113.3z M132.7,138.5h-5.3c0,1.1,0.2,1.8,0.6,2.4
		c0.4,0.5,0.9,0.8,1.6,0.8c0.5,0,0.9-0.1,1.3-0.4c0.4-0.3,0.8-0.7,1.3-1.4l0.6,0.4c-0.5,0.8-1,1.4-1.6,1.7s-1.3,0.5-2.2,0.5
		c-1.2,0-2.2-0.4-3-1.1c-0.8-0.8-1.2-1.7-1.2-2.9s0.4-2.2,1.2-3c0.8-0.8,1.7-1.2,2.8-1.2c0.8,0,1.4,0.2,2,0.5s1,0.8,1.3,1.4
		C132.6,136.7,132.7,137.5,132.7,138.5L132.7,138.5z M127.4,137.7h2.5c0.2,0,0.4-0.1,0.5-0.2c0.1-0.1,0.2-0.3,0.2-0.6
		c0-0.6-0.1-1.1-0.4-1.5c-0.3-0.3-0.6-0.5-1.1-0.5s-0.9,0.2-1.2,0.7C127.6,136.1,127.5,136.8,127.4,137.7L127.4,137.7z M139.2,130.2
		h10.5l0.3,4.6h-0.7c-0.2-1-0.4-1.7-0.7-2.3c-0.3-0.5-0.6-0.9-0.9-1.2c-0.4-0.2-0.7-0.3-1.2-0.3c-0.2,0-0.4,0.1-0.5,0.2
		c-0.1,0.1-0.2,0.2-0.2,0.4v9.3c0,0.2,0.1,0.3,0.2,0.4c0.1,0.1,0.2,0.2,0.4,0.2h1.4v0.8h-6.4v-0.8h1.3c0.2,0,0.3-0.1,0.5-0.2
		c0.1-0.1,0.2-0.3,0.2-0.4v-9.2c0-0.2-0.1-0.4-0.2-0.5c-0.1-0.1-0.3-0.2-0.5-0.2c-1.4,0-2.3,1.3-2.8,3.8h-0.7L139.2,130.2
		L139.2,130.2z M159.9,141.3l0.3,0.6c-0.3,0.2-0.6,0.4-0.9,0.5c-0.3,0.1-0.6,0.1-0.9,0.1c-0.5,0-0.8-0.1-1.1-0.3s-0.5-0.6-0.8-1.1
		c-0.6,0.5-1,0.9-1.5,1.1c-0.4,0.2-0.9,0.3-1.5,0.3c-0.8,0-1.4-0.2-1.8-0.5c-0.4-0.3-0.6-0.8-0.6-1.3c0-0.8,0.4-1.5,1.2-2
		c0.6-0.4,2-0.8,4.2-1.2v-1.1c0-0.4-0.1-0.8-0.4-1.1c-0.3-0.3-0.7-0.4-1.1-0.4c-0.4,0-0.7,0.1-1,0.2c-0.2,0.1-0.3,0.2-0.3,0.3
		s0,0.1,0.1,0.2c0.2,0.2,0.2,0.5,0.2,0.7c0,0.3-0.1,0.5-0.3,0.7s-0.5,0.3-0.8,0.3c-0.4,0-0.6-0.1-0.9-0.3c-0.2-0.2-0.3-0.5-0.3-0.8
		c0-0.5,0.3-1,0.9-1.4c0.7-0.5,1.6-0.7,2.6-0.7c0.8,0,1.5,0.1,2.1,0.4c0.4,0.2,0.7,0.4,1,0.8c0.2,0.4,0.4,0.9,0.4,1.4v3.8
		c0,0.3,0.1,0.5,0.2,0.6c0.1,0.1,0.3,0.2,0.4,0.2C159.4,141.5,159.6,141.4,159.9,141.3L159.9,141.3z M156.5,138.2
		c-1.2,0.2-1.9,0.4-2.3,0.7c-0.4,0.3-0.6,0.8-0.6,1.3c0,0.4,0.1,0.7,0.3,0.9s0.5,0.3,0.8,0.3c0.5,0,1-0.2,1.3-0.6
		c0.4-0.4,0.5-0.9,0.5-1.6V138.2L156.5,138.2z M166.5,134.8l0.5-0.6h0.5l0.2,2.6H167c-0.3-0.7-0.7-1.2-1.1-1.4
		c-0.4-0.3-0.9-0.4-1.5-0.4c-0.5,0-0.9,0.1-1.2,0.3s-0.4,0.4-0.4,0.7s0.1,0.5,0.3,0.7s0.8,0.3,1.7,0.5c0.8,0.2,1.4,0.3,1.7,0.4
		c0.5,0.2,0.9,0.5,1.2,0.9s0.4,0.9,0.4,1.5c0,0.7-0.3,1.3-0.8,1.8c-0.6,0.5-1.3,0.7-2.2,0.7c-0.4,0-0.8-0.1-1.2-0.2
		c-0.4-0.1-0.7-0.3-1.1-0.6l-0.6,0.7h-0.6l-0.1-2.9h0.7c0.6,1.4,1.6,2.2,2.9,2.2c0.6,0,1-0.1,1.3-0.3s0.5-0.5,0.5-0.8
		s-0.1-0.5-0.3-0.6s-0.7-0.3-1.5-0.5c-0.9-0.2-1.5-0.3-1.8-0.5c-0.5-0.2-1-0.5-1.2-0.9c-0.3-0.4-0.4-0.8-0.4-1.4
		c0-0.8,0.2-1.4,0.8-1.9c0.5-0.5,1.2-0.7,2-0.7c0.4,0,0.8,0,1.1,0.1C165.8,134.4,166.1,134.6,166.5,134.8L166.5,134.8z M171.9,131.5
		h0.7v3.1h2.5v0.9h-2.5v4.8c0,0.3,0.1,0.6,0.2,0.7c0.2,0.2,0.4,0.3,0.6,0.3c0.8,0,1.2-0.7,1.2-2.1h0.7c0,0.7-0.1,1.4-0.4,1.8
		c-0.2,0.5-0.5,0.8-1,1.1c-0.4,0.2-0.9,0.4-1.4,0.4s-0.8-0.1-1.2-0.3c-0.3-0.2-0.6-0.5-0.8-0.8c-0.2-0.4-0.3-0.8-0.3-1.2v-4.7h-1.3
		v-0.7c0.8-0.1,1.5-0.4,1.9-0.9C171.5,133.3,171.8,132.5,171.9,131.5L171.9,131.5z M184.5,138.5h-5.3c0,1.1,0.2,1.8,0.6,2.4
		c0.4,0.5,0.9,0.8,1.6,0.8c0.5,0,0.9-0.1,1.3-0.4c0.4-0.3,0.8-0.7,1.3-1.4l0.6,0.4c-0.5,0.8-1,1.4-1.6,1.7s-1.3,0.5-2.2,0.5
		c-1.2,0-2.2-0.4-3-1.1c-0.8-0.8-1.2-1.7-1.2-2.9s0.4-2.2,1.2-3s1.7-1.2,2.8-1.2c0.8,0,1.4,0.2,2,0.5s1,0.8,1.3,1.4
		C184.3,136.7,184.5,137.5,184.5,138.5L184.5,138.5z M179.2,137.7h2.5c0.2,0,0.4-0.1,0.5-0.2c0.1-0.1,0.2-0.3,0.2-0.6
		c0-0.6-0.1-1.1-0.4-1.5c-0.3-0.3-0.6-0.5-1.1-0.5s-0.9,0.2-1.2,0.7C179.4,136.1,179.2,136.8,179.2,137.7L179.2,137.7z M195.1,134.2
		c0.8,0,1.6,0.2,2.3,0.6c0.7,0.4,1.2,0.8,1.6,1.4c0.3,0.6,0.5,1.3,0.5,2.1c0,1.3-0.5,2.3-1.4,3.1c-0.9,0.7-1.9,1.1-3.1,1.1
		c-0.8,0-1.6-0.2-2.2-0.5c-0.7-0.4-1.2-0.9-1.6-1.5c-0.4-0.6-0.5-1.3-0.5-2.1c0-1.2,0.4-2.2,1.2-2.9
		C192.9,134.6,193.9,134.2,195.1,134.2L195.1,134.2z M195.2,135c-0.6,0-1,0.2-1.3,0.7s-0.5,1.4-0.5,2.6c0,1.3,0.2,2.2,0.5,2.7
		s0.8,0.7,1.3,0.7c0.6,0,1-0.3,1.4-0.8s0.5-1.4,0.5-2.6c0-1.3-0.2-2.1-0.5-2.6C196.2,135.2,195.7,135,195.2,135L195.2,135z
		 M204.4,134.6h1.9v0.9h-1.9v5.4c0,0.2,0,0.4,0.1,0.4c0.1,0.1,0.2,0.1,0.4,0.1h1.3v0.8h-5.5v-0.8h0.8c0.2,0,0.4,0,0.5-0.1
		s0.1-0.2,0.1-0.4v-5.4H201v-0.9h1.3v-0.3c0-1,0.1-1.8,0.4-2.5c0.3-0.6,0.7-1.1,1.2-1.4c0.5-0.3,1.2-0.5,2-0.5
		c0.7,0,1.3,0.2,1.7,0.5c0.4,0.4,0.6,0.8,0.6,1.3c0,0.4-0.1,0.8-0.4,1c-0.2,0.3-0.5,0.4-0.9,0.4c-0.3,0-0.6-0.1-0.8-0.3
		s-0.3-0.5-0.3-0.8s0.2-0.6,0.5-0.8c0.2-0.1,0.2-0.2,0.2-0.3s0-0.1-0.1-0.2c-0.1-0.1-0.3-0.1-0.5-0.1c-0.3,0-0.5,0.1-0.7,0.3
		s-0.4,0.4-0.5,0.7c-0.2,0.4-0.2,0.9-0.2,1.4v1.6H204.4z M212.1,130.2h6.1v0.8h-1.1c-0.2,0-0.4,0-0.5,0.1s-0.2,0.2-0.2,0.4v9.3
		c0,0.2,0.1,0.4,0.2,0.5c0.1,0.1,0.4,0.2,0.6,0.2h1v0.8h-6.1v-0.8h0.9c0.3,0,0.5-0.1,0.7-0.2c0.1-0.1,0.2-0.3,0.2-0.5v-9.2
		c0-0.2-0.1-0.4-0.2-0.5c-0.1-0.1-0.3-0.2-0.6-0.2H212v-0.7H212.1z M229.7,141.4v0.8h-4.6v-0.8h0.5c0.3,0,0.4-0.1,0.6-0.2
		c0.1-0.1,0.2-0.3,0.2-0.6v-3.3c0-0.6-0.1-1-0.4-1.3c-0.3-0.3-0.6-0.4-1-0.4c-0.6,0-1,0.2-1.4,0.6c-0.4,0.4-0.5,1-0.5,1.9v2.5
		c0,0.2,0.1,0.4,0.2,0.6c0.1,0.1,0.3,0.2,0.5,0.2h0.6v0.8h-4.7v-0.8h0.6c0.2,0,0.4-0.1,0.5-0.2c0.1-0.1,0.2-0.3,0.2-0.6v-4.5
		c0-0.3-0.1-0.5-0.3-0.6c-0.2-0.2-0.4-0.2-0.7-0.2h-0.3v-0.7l3.2-0.2c0.1,0.5,0.2,1,0.3,1.7c0.4-0.6,0.9-1,1.4-1.3s1-0.4,1.6-0.4
		c0.8,0,1.4,0.3,1.8,0.8c0.4,0.5,0.6,1.2,0.6,2.1v3.5c0,0.3,0.1,0.5,0.2,0.6c0.1,0.1,0.3,0.2,0.6,0.2h0.3V141.4z M235.6,130.2
		l3.8-0.1v9.9c0,0.5,0,0.9,0.1,1c0.1,0.2,0.2,0.3,0.3,0.4c0.1,0.1,0.4,0.1,0.8,0.1v0.7l-3.1,0.1l-0.2-1.5c-0.5,0.6-0.9,1-1.3,1.2
		c-0.4,0.2-0.9,0.3-1.4,0.3c-1,0-1.9-0.3-2.5-1c-0.7-0.7-1-1.6-1-2.8c0-1.3,0.3-2.4,1-3.1c0.7-0.8,1.6-1.2,2.6-1.2
		c0.6,0,1,0.1,1.5,0.4c0.4,0.2,0.8,0.6,1.2,1.2v-3.4c0-0.4,0-0.7-0.1-0.9s-0.2-0.3-0.3-0.4c-0.1-0.1-0.4-0.1-0.8-0.1h-0.4v-0.8
		H235.6z M235.3,135.2c-0.6,0-1.1,0.3-1.4,0.8c-0.3,0.4-0.4,1.2-0.4,2.1c0,0.8,0.1,1.4,0.2,1.8c0.1,0.4,0.3,0.7,0.6,0.9
		s0.6,0.3,0.9,0.3c0.6,0,1-0.2,1.3-0.7c0.5-0.6,0.7-1.4,0.7-2.4c0-0.9-0.2-1.6-0.6-2.1C236.3,135.5,235.8,135.2,235.3,135.2
		L235.3,135.2z M244.3,130.2c0.4,0,0.7,0.1,0.9,0.4c0.3,0.3,0.4,0.6,0.4,0.9c0,0.4-0.1,0.7-0.4,0.9c-0.3,0.3-0.6,0.4-0.9,0.4
		c-0.4,0-0.7-0.1-0.9-0.4c-0.3-0.3-0.4-0.6-0.4-0.9c0-0.4,0.1-0.7,0.4-0.9C243.6,130.4,243.9,130.2,244.3,130.2L244.3,130.2z
		 M242.2,134.6l3.4-0.2v6.4c0,0.2,0.1,0.3,0.2,0.4c0.1,0.1,0.3,0.1,0.5,0.1h0.5v0.8h-4.6v-0.8h0.5c0.3,0,0.5-0.1,0.6-0.2
		c0.1-0.1,0.2-0.3,0.2-0.6v-4.4c0-0.3-0.1-0.5-0.2-0.6c-0.2-0.1-0.4-0.2-0.7-0.2h-0.3L242.2,134.6L242.2,134.6z M256.9,141.3
		l0.3,0.6c-0.3,0.2-0.6,0.4-0.9,0.5c-0.3,0.1-0.6,0.1-0.9,0.1c-0.5,0-0.8-0.1-1.1-0.3s-0.5-0.6-0.8-1.1c-0.6,0.5-1,0.9-1.5,1.1
		c-0.4,0.2-0.9,0.3-1.5,0.3c-0.8,0-1.4-0.2-1.8-0.5c-0.4-0.3-0.6-0.8-0.6-1.3c0-0.8,0.4-1.5,1.2-2c0.6-0.4,2-0.8,4.2-1.2v-1.1
		c0-0.4-0.1-0.8-0.4-1.1c-0.3-0.3-0.7-0.4-1.1-0.4c-0.4,0-0.7,0.1-1,0.2c-0.2,0.1-0.3,0.2-0.3,0.3s0,0.1,0.1,0.2
		c0.2,0.2,0.2,0.5,0.2,0.7c0,0.3-0.1,0.5-0.3,0.7s-0.5,0.3-0.8,0.3c-0.4,0-0.6-0.1-0.9-0.3c-0.2-0.2-0.3-0.5-0.3-0.8
		c0-0.5,0.3-1,0.9-1.4c0.7-0.5,1.6-0.7,2.6-0.7c0.8,0,1.5,0.1,2.1,0.4c0.4,0.2,0.7,0.4,1,0.8c0.2,0.4,0.4,0.9,0.4,1.4v3.8
		c0,0.3,0.1,0.5,0.2,0.6c0.1,0.1,0.3,0.2,0.4,0.2C256.5,141.5,256.7,141.4,256.9,141.3L256.9,141.3z M253.5,138.2
		c-1.2,0.2-1.9,0.4-2.3,0.7c-0.4,0.3-0.6,0.8-0.6,1.3c0,0.4,0.1,0.7,0.3,0.9s0.5,0.3,0.8,0.3c0.5,0,1-0.2,1.3-0.6
		c0.4-0.4,0.5-0.9,0.5-1.6V138.2L253.5,138.2z"/>
</g>
</svg>
