<?xml version="1.0" encoding="utf-8"?>
<!-- Generator: Adobe Illustrator 19.2.0, SVG Export Plug-In . SVG Version: 6.00 Build 0)  -->
<svg version="1.1" id="Wireframe_1_" xmlns="http://www.w3.org/2000/svg" xmlns:xlink="http://www.w3.org/1999/xlink" x="0px"
	 y="0px" viewBox="0 0 1618 1000" style="enable-background:new 0 0 1618 1000;" xml:space="preserve">
<style type="text/css">
	.st0{fill:none;stroke:#6BE8AC;stroke-width:16;stroke-miterlimit:10;}
	.st1{fill:none;stroke:#6BE8AC;stroke-width:12;stroke-miterlimit:10;}
</style>
<path class="st0" d="M907,280.1H711c-16.3,0-29.7,13.4-29.7,29.7v380.3c0,16.3,13.4,29.7,29.7,29.7h196c16.3,0,29.7-13.3,29.7-29.7
	V309.8C936.7,293.5,923.4,280.1,907,280.1z M777.6,301.5h62.7c2,0,3.6,1.6,3.6,3.6s-1.6,3.6-3.6,3.6h-62.7c-2,0-3.6-1.6-3.6-3.6
	S775.7,301.5,777.6,301.5z M809,705c-8.2,0-14.9-6.6-14.9-14.9c0-8.2,6.6-14.9,14.9-14.9s14.9,6.6,14.9,14.9S817.2,705,809,705z
	 M916.1,664.9H701.9V327.2H916L916.1,664.9L916.1,664.9z"/>
<ellipse class="st1" cx="809" cy="500" rx="414.9" ry="414.9"/>
</svg>
