<?xml version="1.0" encoding="utf-8"?>
<!-- Generator: Adobe Illustrator 19.2.0, SVG Export Plug-In . SVG Version: 6.00 Build 0)  -->
<svg version="1.1" id="Layer_1" xmlns="http://www.w3.org/2000/svg" xmlns:xlink="http://www.w3.org/1999/xlink" x="0px" y="0px"
	 viewBox="0 0 1618 1000" style="enable-background:new 0 0 1618 1000;" xml:space="preserve">
<style type="text/css">
	.st0{fill:#6BE8AC;}
	.st1{fill:none;stroke:#6BE8AC;stroke-width:12;stroke-miterlimit:10;}
</style>
<g id="Capa_1">
	<g>
		<g>
			<path class="st0" d="M993.2,289H624.9c-32.9,0-59.6,30.4-59.6,67.8v286.4c0,37.4,26.7,67.8,59.6,67.8H993
				c32.9,0,59.6-30.4,59.6-67.8V356.9C1052.7,319.5,1026.1,289,993.2,289z M1025.5,643.2c0,20.3-14.5,36.8-32.3,36.8H624.9
				c-17.8,0-32.3-16.5-32.3-36.8V356.9c0-20.3,14.5-36.8,32.3-36.8H993c17.8,0,32.3,16.5,32.3,36.8L1025.5,643.2L1025.5,643.2z"/>
			<path class="st0" d="M872.6,496.4l119.2-121.6c5.5-5.7,6.1-15.5,1-21.9c-5-6.4-13.7-6.9-19.3-1.1L809.3,519.6L777.2,487
				c-0.1-0.1-0.2-0.2-0.2-0.4c-0.7-0.8-1.4-1.5-2.2-2.2L644.3,351.7c-5.7-5.7-14.2-5.1-19.3,1.2c-5,6.4-4.6,16.2,1.1,21.9
				l120.6,122.6l-120.1,128c-5.4,5.9-5.8,15.6-0.6,21.9c2.8,3.2,6.4,4.9,10,4.9c3.3,0,6.6-1.4,9.3-4.2l121.9-129.7l33.1,33.6
				c2.7,2.7,5.9,3.9,9.1,3.9c3.2,0,6.5-1.4,9.1-4l33.9-34.6l121.2,131.1c2.7,2.8,6.1,4.3,9.4,4.3c3.6,0,7.1-1.6,9.9-4.8
				c5.1-6.2,4.9-16-0.5-21.9L872.6,496.4z"/>
		</g>
	</g>
</g>
<g id="Layer_1_2_">
	<g id="Layer_1_1_">
		<g id="Background">
		</g>
		<g id="Wireframe">
			<circle class="st1" cx="809" cy="500" r="421.1"/>
		</g>
		<g id="Guides">
		</g>
	</g>
</g>
</svg>
