<?xml version="1.0" encoding="utf-8"?>
<!-- Generator: Adobe Illustrator 19.2.0, SVG Export Plug-In . SVG Version: 6.00 Build 0)  -->
<svg version="1.1" id="Layer_1" xmlns="http://www.w3.org/2000/svg" xmlns:xlink="http://www.w3.org/1999/xlink" x="0px" y="0px"
	 viewBox="0 0 1618 1000" style="enable-background:new 0 0 1618 1000;" xml:space="preserve">
<style type="text/css">
	.st0{fill:none;stroke:#6BE8AC;stroke-width:12;stroke-miterlimit:10;}
	.st1{fill:#FFFFFF;}
	.st2{fill:none;stroke:#6BE8AC;stroke-width:16;stroke-miterlimit:10;}
</style>
<g id="Layer_1_1_">
	<g id="Background">
	</g>
	<g id="Wireframe">
		<circle class="st0" cx="809" cy="500" r="421.1"/>
	</g>
	<g id="Guides">
	</g>
</g>
<g id="Wireframe_1_">
	<g>
		<g>
			<g>
				<path class="st1" d="M811.5,471.4c27.6,0,50.1-22.5,50.1-50.1s-22.5-50.1-50.1-50.1s-50.1,22.5-50.1,50.1
					S783.9,471.4,811.5,471.4z M811.5,385.6c19.7,0,35.8,16,35.8,35.8s-16,35.8-35.8,35.8c-19.7,0-35.8-16-35.8-35.8
					S791.8,385.6,811.5,385.6z"/>
				<path class="st1" d="M949.4,550.1h-51.2l21.8-31.5c41.2-54.9,35.2-145-12.7-192.9c-25.9-25.9-60.3-40.2-97-40.2
					c-36.6,0-71.1,14.3-97,40.2c-47.9,47.9-53.9,138.1-12.9,192.7l21.9,31.7h-53.7l-78.3,164.5h437.4L949.4,550.1z M712,510
					c-37.2-49.6-31.9-131,11.4-174.3c23.2-23.2,54-36,86.9-36c32.8,0,63.7,12.8,86.9,36c43.3,43.3,48.6,124.7,11.2,174.5
					l-98.1,141.7L739.8,550l0,0L712,510z M677.7,564.4h54.6l78,112.7l78-112.7h52.1l64.7,135.9H612.9L677.7,564.4z"/>
			</g>
		</g>
		<g>
			<g>
				<path class="st2" d="M811.5,471.4c27.6,0,50.1-22.5,50.1-50.1s-22.5-50.1-50.1-50.1s-50.1,22.5-50.1,50.1
					S783.9,471.4,811.5,471.4z M811.5,385.6c19.7,0,35.8,16,35.8,35.8s-16,35.8-35.8,35.8c-19.7,0-35.8-16-35.8-35.8
					S791.8,385.6,811.5,385.6z"/>
				<path class="st2" d="M949.4,550.1h-51.2l21.8-31.5c41.2-54.9,35.2-145-12.7-192.9c-25.9-25.9-60.3-40.2-97-40.2
					c-36.6,0-71.1,14.3-97,40.2c-47.9,47.9-53.9,138.1-12.9,192.7l21.9,31.7h-53.7l-78.3,164.5h437.4L949.4,550.1z M712,510
					c-37.2-49.6-31.9-131,11.4-174.3c23.2-23.2,54-36,86.9-36c32.8,0,63.7,12.8,86.9,36c43.3,43.3,48.6,124.7,11.2,174.5
					l-98.1,141.7L739.8,550l0,0L712,510z M677.7,564.4h54.6l78,112.7l78-112.7h52.1l64.7,135.9H612.9L677.7,564.4z"/>
			</g>
		</g>
	</g>
</g>
</svg>
