<?xml version="1.0" encoding="utf-8"?>
<!-- Generator: Adobe Illustrator 19.2.0, SVG Export Plug-In . SVG Version: 6.00 Build 0)  -->
<svg version="1.1" id="Layer_1" xmlns="http://www.w3.org/2000/svg" xmlns:xlink="http://www.w3.org/1999/xlink" x="0px" y="0px"
	 viewBox="0 0 359 206" style="enable-background:new 0 0 359 206;" xml:space="preserve">
<style type="text/css">
	.st0{fill:#434343;}
	.st1{fill:#868686;}
	.st2{fill:#8F8F8F;}
</style>
<path id="path58" class="st0" d="M195.6,152.2L195.6,152.2c-1.1-1.2-2.9-1.4-4.5-1.4c-1.7,0-3.3,0.3-5.5,1.7
	c2.7-6.8,7-16.1,7.1-16.2l0.2-0.5h-0.5c0,0-2.6,0.3-7.9,1.5h-0.1l-0.4,1.1l-11,28.5c0,0-0.8,1.7-3.2,3.1c-1.3,0.7-2,0.8-2.4,0.9
	c-0.4,0.1-0.5-0.3-0.5-0.4c0.3-0.9,1.2-3.3,1.2-3.3c2.7-7.4,4.3-11.9,5-13.7l1-2.3H167c0,0-0.1,0.2-0.2,0.3c-0.8-0.5-1.8-0.8-3-0.8
	c-1.6,0-3.7,0.9-6.5,2.9c-2.9,2-5.4,4.4-7.4,7.1c-2.5,3.4-3.8,6.7-3.8,10c0,1.5,0.3,2.8,1,3.9c0.6,0.9,1.7,2,3.8,2
	c2.8,0,5.4-1,7.9-3c0.2,0.7,0.6,1.3,1.4,1.9c1,0.7,2.5,1.1,3.1,1.1s2.7-0.1,4.6-1.1c1.6-0.8,2.6-1.9,3.5-3.3
	c0.5,1.1,1.1,2.1,1.9,2.9c1,1,2.3,1.5,3.7,1.5c4.1,0,8.5-2,12.9-6.1c4.8-4.3,7.2-9,7.2-14C197.2,154.9,196.6,153.4,195.6,152.2
	L195.6,152.2z M185.8,167.1c-2.8,4.2-3.8,4.4-4.7,4.5c-0.6,0-1-0.1-1.3-0.4c-0.2-0.2-0.4-0.5-0.4-0.9c0,0,0.1-0.5,0.1-0.8
	c0.1-0.2,0.8-3,2.1-5.9s1.8-3.6,2.8-4.8c1.7-2,3.5-2.8,4.4-2.3C190.6,157.5,187.9,163.9,185.8,167.1L185.8,167.1z M154.4,171.1
	c-1.5-0.7-0.3-3.9,2.2-8.6c2.1-3.8,4.2-5.7,6.1-5.7c0.2,0,0.5,0.1,0.9,0.4c0.3,0.4,0.5,0.7,0.5,1.1c0,1-0.6,3.1-3.2,7.3
	C158.6,169.3,155.7,171.7,154.4,171.1"/>
<path id="path60" class="st0" d="M243.8,152.9L243.8,152.9c-1-1.1-2.4-1.6-4.2-1.6c-1.3,0-2.7,0.6-4.1,1.6c0.2-0.5,0.5-1.3,0.5-1.3
	h-7.5l-5.8,17.3c-0.8,0.9-1.8,1.6-2.3,1.9c-0.9,0.5-2.3,1.1-3.4,0.6c0,0-0.5-0.3-0.4-0.6c0.4-1.1,2.1-6.3,2.1-6.3
	c1.6-4.6,2.9-8.4,4-11l0.9-2.3H216l-0.4,1.1c-1.3,3.6-2.5,6.3-3.4,8.2c-1.5,3.1-3,5.6-4.5,7.2c-1.3,1.5-2.5,2.7-4.1,2.7
	c-0.1,0-0.3,0-0.4,0c-0.2-0.1-0.4-0.3-0.3-0.5c1.1-3,7.3-18.7,7.3-18.7h-7.8c0,0-7.4,18.9-7.6,20.6c-0.1,1.4,0.6,2.5,1.6,3.5
	c0.9,0.9,2.1,1.4,3.5,1.4c2.5,0,5.3-1.5,8.5-4.3v0.1l-0.1,0.8c0,0.7,0.4,1.8,2.3,2.6c1.2,0.6,2.4,0.8,3.5,0.8c1.8,0,3.4-0.3,5.3-1.6
	c0.8-0.6,1.4-1.1,1.9-1.7l-1.1,3.3h7.5l0.4-1.2c0.9-3.1,1.8-5.8,2.7-8c1.2-3.1,2.5-5.7,3.7-7.6c1.4-2.1,2.2-2.4,2.9-2.7
	c0,0,0.5-0.2,1.5-0.3c0.8-0.1,1.6,0.6,1.9,1c0.3,0.5-0.1,1.4-0.4,2.2c-0.3,0.7-0.5,1.2-0.3,1.5c0.1,0.1,0.2,0.2,0.5,0.2
	c1.5,0,2.7-0.6,3.6-1.6c0.8-1,1.2-2.2,1.2-3.5C245.2,155.2,244.7,153.9,243.8,152.9"/>
<path id="path62" class="st0" d="M135,135L135,135c-0.1,0-7.4-4.4-14.4-4.8c-8.4-0.5-23.2,3.3-25.7,20.1l0.6,0.1
	c2-7.5,9-14.6,16.8-16.9c4.7-1.4,10-0.8,14.8,1.5c5.8,2.9,10.6,9.8,11.2,16.4c0.4,3.8-0.4,9.4-6.2,14c-4.9,3.9-13.2,5.4-16.3,2.9
	c-1.4-1.2-1-3-0.2-5.7l9.6-24.3l-0.1-0.1c-0.2-0.3-4.6-6.3-8.7-4.4c-1.3,0.6-10.3,30.2-13,39.2l-0.1,0.3l0.2,0.1
	c12.8,4.7,23.9,4.9,33.1,0.5c6.9-2.9,11.7-9.9,12.1-17.6C149.3,147.8,144.3,140,135,135"/>
<path id="path64" class="st0" d="M113.7,80.1c-0.4-0.9-2.3-4.1-5.4-5c-3.2-0.9-6.1,0.4-7.5,1.4L113.7,80.1"/>
<path id="path66" class="st1" d="M106.7,81.6c2.9,0.8,6-0.7,7-1.4l-12.9-3.6C101.8,78.1,103.1,80.5,106.7,81.6"/>
<path id="path68" class="st0" d="M116.2,73.4c0.1-1.2,0.2-4.8-1.9-7.2c-2.2-2.5-5.3-3-7-2.9L116.2,73.4"/>
<path id="path70" class="st1" d="M109.6,70.9c2.1,2.2,5.4,2.6,6.7,2.6l-8.9-10.1C107.3,65.2,107,68.1,109.6,70.9"/>
<path id="path72" class="st1" d="M125.8,106.6c-1.3-0.5-6.3-1.4-9.5,0.8c-3.3,2.3-4.2,6.1-4.5,8.2L125.8,106.6"/>
<path id="path74" class="st0" d="M121.3,114.6c3.3-2.1,4.4-6.4,4.5-8.1l-13.9,9C114.3,116.3,118.1,116.7,121.3,114.6"/>
<path id="path76" class="st1" d="M125,102c-0.8-1.3-5.2-5.9-10-6.3c-4.7-0.4-8.8,1.6-10.7,3.1L125,102"/>
<path id="path78" class="st0" d="M113.8,105c4.8,0.9,9.5-1.7,11.2-3l-20.7-3.2C106.4,101.4,109.3,104.2,113.8,105"/>
<path id="path80" class="st1" d="M160.6,61.9c-0.5-1.3-3.2-5.8-7.4-7.4c-4.7-1.8-9-0.5-11,0.7L160.6,61.9"/>
<path id="path82" class="st0" d="M149.7,62.6c4.2,1.7,9.1,0.2,10.9-0.7l-18.5-6.8C143.6,57.9,145.7,61,149.7,62.6"/>
<path id="path84" class="st1" d="M136.4,113.2c0.1-1.5,0-4.8-2.2-7.2c-2.3-2.6-5.4-3.2-7-3.3L136.4,113.2"/>
<path id="path86" class="st0" d="M129.6,110.1c2.1,2.5,5.5,3.2,6.8,3.1l-9.2-10.5C127.1,104.5,127.5,107.7,129.6,110.1"/>
<path id="path88" class="st1" d="M137.5,100.1c-0.4-1.2-2-4.3-5-5.6c-3.2-1.4-6.2-0.6-7.7,0L137.5,100.1"/>
<path id="path90" class="st0" d="M129.7,100.1c3.2,1.6,6.7,0.8,7.8,0.1l-12.7-5.6C125.5,96.2,126.9,98.7,129.7,100.1"/>
<path id="path92" class="st0" d="M124.5,88.8c-0.8-1-3.3-3.7-6.8-4c-3.7-0.3-6.3,1.9-7.6,3.1L124.5,88.8"/>
<path id="path94" class="st1" d="M117.4,92c3.3,0.2,6.2-2.3,7.1-3.2L110.2,88C111.4,89.3,113.6,91.8,117.4,92"/>
<path id="path96" class="st0" d="M169.4,47.3c0.7-1.3,2.7-5.1,1.5-9c-1.3-4.2-4.8-6-6.6-6.9L169.4,47.3"/>
<g id="g98">
	<g>
		<g id="g100">
			<path id="path106" class="st1" d="M163,41c1.2,3.6,5,5.8,6.4,6.3l-5.1-15.9C163.3,33.4,161.6,36.8,163,41"/>
			<path id="path108" class="st1" d="M184.1,39.9c0.8-1.1,3-4.6,2.3-8.3c-0.8-4-3.8-6.2-5.5-7.2L184.1,39.9"/>
			<path id="path110" class="st0" d="M178.7,33.2c0.9,3.9,4.4,6.1,5.4,6.7L181,24.4C179.8,26,177.8,29.2,178.7,33.2"/>
		</g>
	</g>
</g>
<path id="path112" class="st1" d="M185.5,58.4c1.1-0.8,3.9-4.1,3.7-7.8c-0.2-3.4-3.1-6.3-4.7-7.4L185.5,58.4"/>
<path id="path114" class="st0" d="M181,51.2c0.3,3.8,3.6,6.4,4.5,7.2l-0.9-15.2C183.2,44.5,180.6,47.3,181,51.2"/>
<path id="path116" class="st1" d="M190.7,68c1.2-0.5,4.5-2.5,5.4-6.5c0.7-3.2-1.3-6.8-2.5-8.2L190.7,68"/>
<path id="path118" class="st0" d="M188.3,60.1c-0.6,3.5,1.7,7,2.4,7.9l2.9-14.6C192,54.3,189,56.3,188.3,60.1"/>
<path id="path120" class="st1" d="M204.9,86.6c1.4,0.2,5.4,0.1,8.1-2.9c2.3-2.5,2.3-6.7,2-8.6L204.9,86.6"/>
<path id="path122" class="st0" d="M206.8,78.3c-2.3,2.8-2,7.1-1.9,8.3L215,75.1C213.4,74.9,209.5,75.1,206.8,78.3"/>
<path id="path124" class="st1" d="M233.1,78.2c1.4,0.1,5.4-0.2,8.4-3.2c2.5-2.5,2.8-6.8,2.5-8.7L233.1,78.2"/>
<path id="path126" class="st0" d="M235.5,69.7c-2.6,2.9-2.4,7.3-2.3,8.5l10.9-11.9C242.4,66.2,238,66.8,235.5,69.7"/>
<path id="path128" class="st1" d="M209,63.6c1.3-0.3,5.1-1.7,6.6-4.9c1.5-3.1,0.8-6.8,0-8.5L209,63.6"/>
<path id="path130" class="st0" d="M208.9,55.4c-1.6,3.3-0.2,7.1,0.1,8.1l6.6-13.4C213.9,50.7,210.5,52,208.9,55.4"/>
<path id="path132" class="st1" d="M205.8,49.3c1.3-0.2,5.3-1.2,7.3-4.2c1.9-2.9,1.5-6.7,1-8.5L205.8,49.3"/>
<path id="path134" class="st0" d="M206.7,41c-2,3.1-1.1,7.2-0.9,8.3l8.3-12.8C212.2,36.8,208.7,37.7,206.7,41"/>
<path id="path136" class="st1" d="M219.8,56c1.1,0.2,4.5,0.4,6.9-1.5c2.2-1.9,2.8-5,2.9-6.6L219.8,56"/>
<path id="path138" class="st0" d="M222.5,49.6c-2.4,2-2.7,5.5-2.7,6.4l9.8-8.1C228.1,47.6,225,47.5,222.5,49.6"/>
<path id="path140" class="st1" d="M232.8,64.8c1.1-0.3,4.6-1.2,6.2-4.4c1.6-3.1,0.8-6.1,0.3-7.7L232.8,64.8"/>
<path id="path142" class="st0" d="M232.9,57.3c-1.5,3-0.5,6.3-0.1,7.5l6.5-12.1C237.6,53.1,234.5,54.2,232.9,57.3"/>
<path id="path144" class="st1" d="M223.4,81.4c1.2-0.3,4.7-1.3,6.3-4.6c1.6-3.2,0.7-6.3,0.1-7.9L223.4,81.4"/>
<path id="path146" class="st0" d="M223.4,73.7c-1.5,3.1-0.5,6.5,0,7.7l6.5-12.5C228.2,69.3,225,70.5,223.4,73.7"/>
<path id="path148" class="st1" d="M244.1,75.3c1,0.3,4.1,1.3,6.9-0.5c2.7-1.7,3.5-4.4,3.9-5.9L244.1,75.3"/>
<path id="path150" class="st0" d="M247.8,69.6c-2.6,1.6-3.4,4.6-3.7,5.8l10.8-6.3C253.4,68.6,250.5,67.9,247.8,69.6"/>
<path id="path152" class="st1" d="M239.2,86.2c0.9,0.6,3.8,2.3,7,1.4c3.3-0.9,4.5-3.4,5.5-4.8L239.2,86.2"/>
<path id="path154" class="st0" d="M244.4,81.5c-3,0.9-4.7,3.7-5.2,4.8l12.5-3.4C250.3,82,247.5,80.6,244.4,81.5"/>
<path id="path156" class="st0" d="M250.1,88.7c0.9,1,3.7,3.8,7.8,3.7c4.1,0,6.4-2.4,7.7-4L250.1,88.7"/>
<path id="path158" class="st1" d="M257.5,84.6c-3.7,0.2-6.5,3-7.4,4.1l15.5-0.3C264.3,87,261.4,84.4,257.5,84.6"/>
<path id="path160" class="st0" d="M238.4,88.2c-0.1,1.1,0,4.5,2.4,6.9c2.4,2.3,5.3,2.2,6.9,2.3L238.4,88.2"/>
<path id="path162" class="st1" d="M245.3,90.4c-2.3-2.2-5.7-2.2-6.9-2.2l9.3,9.2C247.8,95.8,247.7,92.7,245.3,90.4"/>
<path id="path164" class="st1" d="M214.9,99.8c1.1-0.3,4.3-1.6,5.5-4.8c1.2-3.1,0.2-5.8-0.4-7.2L214.9,99.8"/>
<path id="path166" class="st0" d="M214.4,92.5c-1.2,2.9,0,6.1,0.5,7.3l5.1-12C218.6,88.3,215.7,89.5,214.4,92.5"/>
<path id="path168" class="st1" d="M231.5,104.5c0.4-1.1,0.8-4.7-0.9-7.2c-1.8-2.6-4.7-3.4-6.3-3.6L231.5,104.5"/>
<path id="path170" class="st0" d="M225.4,101.2c1.7,2.4,4.9,3.1,6.1,3.4l-7.2-10.9C223.9,95.1,223.4,98.5,225.4,101.2"/>
<path id="path172" class="st1" d="M218.1,49.5c1.3-0.3,5-1.5,6.7-4.7c1.7-3,0.9-6.7,0.4-8.5L218.1,49.5"/>
<path id="path174" class="st0" d="M218.3,41.3c-1.7,3.2-0.6,7-0.2,8.2l7.1-13.2C223.4,36.8,220.1,38,218.3,41.3"/>
<path id="path176" class="st0" d="M156.6,38.6c0.6-1.2,1.7-4.3,0.6-7c-1.2-3.1-4.1-4.5-5.6-5L156.6,38.6"/>
<path id="path178" class="st1" d="M151.2,34.1c1.2,2.6,4.2,4.1,5.3,4.5l-5-12.1C150.9,28.2,149.8,30.9,151.2,34.1"/>
<path id="path180" class="st0" d="M177.4,51.4c1-1.1,2.9-3.8,2.6-6.8c-0.3-3.5-2.8-5.7-4.2-6.6L177.4,51.4"/>
<path id="path182" class="st1" d="M173.2,45.4c0.4,2.9,3.1,5.2,4.2,6l-1.6-13.5C174.6,39.4,172.7,41.7,173.2,45.4"/>
<path id="path184" class="st1" d="M191.8,47.6c1.2-0.8,3.5-2.9,4-5.8c0.5-3.3-1.3-5.9-2.3-7.2L191.8,47.6"/>
<path id="path186" class="st0" d="M189.4,41c-0.3,2.8,1.6,5.6,2.4,6.5l1.6-12.9C192.1,35.7,189.8,37.5,189.4,41"/>
<path id="path188" class="st1" d="M197.1,53.6c1.1-0.4,3.3-1.8,4.1-4.1c1-2.7-0.1-5.1-0.8-6.3L197.1,53.6"/>
<path id="path190" class="st0" d="M196.2,47.9c-0.6,2.2,0.5,4.7,1,5.6l3.3-10.3C199.2,43.8,197,45,196.2,47.9"/>
<path id="path192" class="st1" d="M200.5,67.8c1.2-0.5,3.7-1.9,4.6-4.4c1.1-2.9-0.1-5.7-0.8-6.9L200.5,67.8"/>
<path id="path194" class="st0" d="M199.4,61.6c-0.7,2.5,0.5,5.1,1.1,6.1l3.8-11.3C202.8,57.2,200.3,58.4,199.4,61.6"/>
<path id="path196" class="st0" d="M157.9,53.4c0.5-3.3-0.3-6.4-2.1-8.6c-2.3-2.8-6.4-3.6-8.1-3.5L157.9,53.4"/>
<path id="path198" class="st1" d="M149.7,49.8c1.9,2.1,4.2,3.3,8.2,3.6l-10.3-12C147.4,43.1,147.3,47.2,149.7,49.8"/>
<path id="path200" class="st0" d="M168,79.2c1.4-2.9,1.8-6.1,0.7-8.6c-1.6-3.8-5.1-5.1-6.8-5.5L168,79.2"/>
<path id="path202" class="st1" d="M161.4,73.5c1.1,2.5,3.1,4.4,6.6,5.8l-6.1-14.1C161.2,66.6,160,70.4,161.4,73.5"/>
<path id="path204" class="st0" d="M200.5,40.4c2.6-1.1,4.8-2.8,5.7-5.1c1.1-2.9-0.2-6.6-1-8L200.5,40.4"/>
<path id="path206" class="st1" d="M199.4,32.5c-0.9,2.4-0.5,4.8,1.1,7.9l4.7-13.1C203.5,27.8,200.5,29.5,199.4,32.5"/>
<path id="path208" class="st0" d="M177.5,70.2c1.7-2.8,2.8-6.1,2.1-8.7c-1.1-4.4-4.9-6.3-6.5-7L177.5,70.2"/>
<path id="path210" class="st1" d="M171.2,63.8c0.8,2.8,3.2,5,6.3,6.4l-4.4-15.7C171.8,56.5,170.2,60.3,171.2,63.8"/>
<path id="path212" class="st1" d="M210.3,71.5c3.5,1.3,7.5,1.5,10.4,0.2c4.7-2.1,6.1-6.9,6.8-8.7L210.3,71.5"/>
<path id="path214" class="st0" d="M216.5,63.1c-3,1.6-5.1,4.8-6.2,8.4l17.2-8.5C224.9,62,220.5,61,216.5,63.1"/>
<path id="path216" class="st1" d="M222.4,91.7c3.5,1,7.5,0.7,10.2-0.8c4.3-2.4,5.4-6.9,5.9-8.8L222.4,91.7"/>
<path id="path218" class="st0" d="M227.7,83.3c-2.8,1.7-4.5,4.7-5.3,8.4l16.1-9.5C236,81.5,231.3,81.1,227.7,83.3"/>
<path id="path220" class="st1" d="M246,110.7c0.9-3.8,0.4-7.4-1.2-9.8c-2.5-3.8-6.9-4.8-8.7-5.1L246,110.7"/>
<path id="path222" class="st0" d="M237.6,106.1c1.8,2.4,4.9,3.8,8.4,4.5l-9.9-14.9C235.3,98.3,235.1,102.7,237.6,106.1"/>
<path id="path224" class="st0" d="M166,60.6c1.5-2.7,2-5.9,1-8.3c-1.3-3.5-4.5-5.3-6.1-5.8L166,60.6"/>
<path id="path226" class="st1" d="M159.9,54.6c1,2.7,2.7,4.4,6.1,6l-5-14.2C160.2,47.9,158.8,51.4,159.9,54.6"/>
<path id="path228" class="st1" d="M128.6,69.8c0.1-1.2,0.2-4.8-1.9-7c-2.3-2.4-5.3-2.7-7-2.4L128.6,69.8"/>
<path id="path230" class="st0" d="M122.1,67.6c2.1,2,5.2,2.3,6.5,2.2l-8.9-9.4C119.6,61.9,119.5,65.1,122.1,67.6"/>
<path id="path232" class="st0" d="M143.3,62.5c-0.4-1.1-1.3-4.4-4.8-6.2c-2.8-1.5-6.6-0.7-8.2,0.1L143.3,62.5"/>
<path id="path234" class="st1" d="M135.6,62.9c2.8,1.2,6.5,0.2,7.6-0.4l-13-6.1C130.8,57.9,132.1,61.3,135.6,62.9"/>
<path id="path236" class="st1" d="M145.6,50.1c-0.1-1.4-0.4-5.2-3.9-8.5c-2.6-2.5-6.2-2.5-7.9-2.1L145.6,50.1"/>
<path id="path238" class="st0" d="M137.3,47.3c2.4,2.1,5.6,2.9,8.4,2.7l-11.8-10.6C133.9,40.9,134.3,44.7,137.3,47.3"/>
<path id="path240" class="st0" d="M146,71.2c-0.6-1.1-2.5-4.5-5.7-5.4c-3.5-0.9-6.6,0.4-8,1.5L146,71.2"/>
<path id="path242" class="st1" d="M138.6,72.8c3.1,0.8,6.3-0.9,7.4-1.6l-13.8-3.9C133,68.7,134.7,71.9,138.6,72.8"/>
<path id="path244" class="st0" d="M159.1,76.7c-0.2-1.1-1.3-4.7-3.6-6.1c-2.5-1.6-5.7-1-7.1-0.5L159.1,76.7"/>
<path id="path246" class="st1" d="M152.4,76.5c2.4,1.4,5.6,0.6,6.7,0.2l-10.7-6.6C148.7,71.4,149.5,74.8,152.4,76.5"/>
<path id="path248" class="st1" d="M131.7,88.6c0.5-1.8,0.8-6.6-1.1-9.9c-2.9-5.1-7.8-6.4-9.5-6.7L131.7,88.6"/>
<path id="path250" class="st0" d="M122.7,82.6c2.4,4,7.4,5.8,9,6L121.1,72C120.7,74,120.3,78.5,122.7,82.6"/>
<path id="path252" class="st1" d="M153.3,86.6c-0.2-1.9-1.9-6.6-5-8.9c-4.7-3.6-9.9-2.9-11.6-2.5L153.3,86.6"/>
<path id="path254" class="st0" d="M142.4,84.5c3.9,2.8,9.5,2.5,10.9,2l-16.6-11.4C137,77.2,138.6,81.8,142.4,84.5"/>
<path id="path256" class="st2" d="M190.2,100.3c-1.3,3.2-1.1,6,0.6,6.1c1.7,0.1,4-2.4,5.2-5.6c1.2-3.1,0.9-5.6-0.7-5.8
	C193.8,94.9,191.5,97.2,190.2,100.3"/>
<path id="path258" class="st2" d="M182.5,77.2c-1.5,2.5-1.8,4.9-0.5,5.2c1.3,0.3,3.6-1.6,5.1-4.1c1.4-2.5,1.5-4.7,0.3-5
	C186.2,73.1,184,74.8,182.5,77.2"/>
<path id="path260" class="st2" d="M167.5,101.1c1.7-0.6,1-3.4-1.5-6c-2.4-2.6-5.7-4.1-7.3-3.5s-1.1,3.2,1.2,5.8
	C162.4,100,165.8,101.7,167.5,101.1"/>
<path id="path262" class="st2" d="M172.9,97.3c-6-8.5-7.4-11.4-15.3-18.1c1.8,3.3,30.7,41.7,3.8,21.7c0,0-15.5-10.7-35.8-9.6
	c0,0,39.5,4.2,46.4,30.8c0.1,0.2,0.2,1.6,0.1,2.1c-0.3,3.6-1.5,6.6-2.6,8.5c-0.9,1.6-2.5,3.7-3,4.2c-2.5,2.6-6.9,3.6-8.6,4.4
	c1.9,1.4,8.4,0.2,11.3,0l10.8,0.5c0.3,0,1.4,0.1,1.9,0.1l1.7-4.8c0,0,4.8-1,6.6-1.3s3.9-0.5,3.9-0.5l-3.1,6.9
	c3.4,0.5,13.6,1.6,15.5,0.4c-2.1-0.9-8.3-1.5-10.9-5.1c-0.4-0.4-2.9-9.1-2.8-12.2c0-0.1,0-0.4,0-0.4c4.8-31.8,37.3-43.3,37.3-43.3
	c-21.1,4.8-32.4,21.3-32.4,21.3c-21.4,26.7-6.5-12.6-2.1-17.2c-8,6.2-10.9,15.3-10.9,15.3c2.4-25.8,24.2-28.3,24.2-28.3
	c-11.2-0.3-19.9,9.1-19.9,9.1c-18.4,19.9-11.6-8.6-3.7-12.7C184.8,69,170.2,75.2,172.9,97.3"/>
</svg>
