<?xml version="1.0" encoding="utf-8"?>
<!-- Generator: Adobe Illustrator 19.2.0, SVG Export Plug-In . SVG Version: 6.00 Build 0)  -->
<svg version="1.1" id="Wireframe_1_" xmlns="http://www.w3.org/2000/svg" xmlns:xlink="http://www.w3.org/1999/xlink" x="0px"
	 y="0px" viewBox="0 0 409.6 600" style="enable-background:new 0 0 409.6 600;" xml:space="preserve">
<style type="text/css">
	.st0{fill:#08D974;}
	.st1{opacity:0.2;}
	.st2{fill:#FFFFFF;}
	.st3{fill:#202020;}
	.st4{fill:none;stroke:#08D974;stroke-width:63.3083;stroke-miterlimit:10;}
</style>
<g>
	<g>
		<path id="XMLID_168_" class="st0" d="M108.9,206c0-24.5,0-48.4,0-72.9c13.5,0,26.5,0,40.6,0c0-2,0-4.2,0-5.7
			c0-17.2-0.5-34.4,0.5-51.5c2-27.5,13.5-51,38.5-65.1c12-6.8,24.5-10.4,38-10.4c24.5-0.5,48.3,0,72.8,0c0,23.4,0,46.9,0,70.9
			c-1.5,0-3.1,0-4.7,0c-13.5,0-27,0-41.1,0c-11,0-18.2,6.2-18.2,17.2c-0.5,15.1,0,30.2,0,45.3c21.8,0,43.1,0,65.5,0
			c-2.6,24.5-5.2,48.4-7.3,72.9c-19.3,0-38.5,0-57.8,0c0,68.7,0,137.4,0,206.2c-29.1,0-57.2,0-86.3,0c0-2,0-4.2,0-6.2
			c0-64.6,0-129.6,0-194.3c0-4.7-1-6.2-6.2-6.2c-9.8,0.5-19.8,0-29.6,0C112.5,206,110.9,206,108.9,206z"/>
		<g id="XMLID_163_" class="st1">
			<path id="XMLID_167_" class="st2" d="M235.7,132.5c0-7.3,0-14.5,0-21.9c0,8.8,0,17.7,0,27c21.8,0,43.1,0,65,0
				c0-1.5,0.5-3.7,0.5-5.2C279.5,132.5,257.5,132.5,235.7,132.5z"/>
			<path id="XMLID_166_" class="st2" d="M149.9,216.9c0,32.3,0,64.6,0,96.9C149.4,281.5,149.9,249.2,149.9,216.9L149.9,216.9z"/>
			<path id="XMLID_165_" class="st2" d="M149.4,132.5c0-1.5,0-3.2,0-4.7c0,1.5,0,3.2,0,5.2c-14,0-27,0-40.6,0c0,1.5,0,3.7,0,5.2
				c13.5,0,26.5,0,40.6,0C149.4,136.2,149.4,134.2,149.4,132.5z"/>
			<path id="XMLID_164_" class="st2" d="M150.4,81c2-27.5,13.5-51,38.5-65.1c12-6.8,24.5-10.4,38-10.4c24.5-0.5,48.3,0,72.8,0
				c0-1.5,0-3.7,0-5.2c-24.5,0-48.8-0.5-72.8,0c-13.5,0.5-26.5,3.7-38,10.4c-25,14.5-36.4,37.5-38.5,65.1c-1,9.9-1,19.3-1,29.2
				C149.4,96.6,149.9,88.8,150.4,81z"/>
		</g>
		<g id="XMLID_139_" class="st1">
			<path id="XMLID_147_" class="st3" d="M149.4,127.3c0-7.3,0-15.1,0-22.4C149.4,112.3,149.4,120,149.4,127.3L149.4,127.3z"/>
			<path id="XMLID_146_" class="st3" d="M254.5,75.3c13.5,0,27,0,41.1,0c1.5,0,3.1,0,4.7,0c0-1.5,0-3.7,0-5.2c-1.5,0-3.1,0-4.7,0
				c-13.5,0-27,0-41.1,0c-11,0-18.2,6.2-18.2,17.2c-0.5,7.8-0.5,15.7,0,23.4c0-6.2,0-12.5,0-18.2C236.2,81.5,243.5,75.8,254.5,75.3z
				"/>
			<path id="XMLID_145_" class="st3" d="M149.9,211.7c0-4.7-1-6.2-6.2-6.2c-9.8,0.5-19.8,0-29.6,0c-1.5,0-3.7,0-5.2,0
				c0,1.5,0,3.7,0,5.2c2,0,3.7,0,5.2,0c9.8,0,19.8,0.5,29.6,0c4.7,0,6.2,1,6.2,5.7C149.9,215.4,149.9,213.8,149.9,211.7z"/>
			<path id="XMLID_144_" class="st3" d="M294,206c-19.3,0-38.5,0-57.8,0c0,1.5,0,3.7,0,5.2c19.8,0,38.5,0,57.8,0
				c2.6-24.5,5.2-48.4,7.3-72.9h-0.5C298.7,160.7,296,183.1,294,206z"/>
			<path id="XMLID_143_" class="st3" d="M149.4,417.4c29.1,0,57.8,0,86.3,0c0-1.5,0-3.7,0-5.2c-29.1,0-57.2,0-86.3,0
				C149.4,413.7,149.4,415.3,149.4,417.4z"/>
			<path id="XMLID_142_" class="st3" d="M149.4,405.9c0-30.7,0-61.4,0-92.2c0,32.3,0,65.1,0,97.4C149.4,409.5,149.4,408,149.4,405.9
				z"/>
		</g>
	</g>
	<line class="st4" x1="0" y1="568.3" x2="409.6" y2="568.3"/>
</g>
</svg>
