<?xml version="1.0" encoding="utf-8"?>
<!-- Generator: Adobe Illustrator 19.2.0, SVG Export Plug-In . SVG Version: 6.00 Build 0)  -->
<svg version="1.1" id="Wireframe_1_" xmlns="http://www.w3.org/2000/svg" xmlns:xlink="http://www.w3.org/1999/xlink" x="0px"
	 y="0px" viewBox="0 0 840 840" style="enable-background:new 0 0 840 840;" xml:space="preserve">
<style type="text/css">
	.st0{fill:#CC1803;}
	.st1{fill:#FFFFFF;}
	.st2{opacity:0.2;}
	.st3{fill:#202020;}
</style>
<circle class="st0" cx="420" cy="420" r="420"/>
<g>
	<path id="XMLID_284_" class="st1" d="M340.5,417.7c0-20.2,0-40,0-60.2c11.2,0,21.9,0,33.5,0c0-1.7,0-3.4,0-4.7
		c0-14.2-0.4-28.4,0.4-42.6c1.7-22.8,11.2-42.1,31.8-53.7c9.9-5.6,20.2-8.6,31.4-8.6c20.2-0.4,40,0,60.2,0c0,19.3,0,38.7,0,58.5
		c-1.3,0-2.6,0-3.9,0c-11.2,0-22.4,0-34,0c-9,0-15,5.2-15,14.2c-0.4,12.5,0,24.9,0,37.4c18.1,0,35.7,0,54.2,0
		c-2.1,20.2-4.3,40-6,60.2c-15.9,0-31.8,0-47.7,0c0,56.7,0,113.5,0,170.2c-24.1,0-47.3,0-71.4,0c0-1.7,0-3.4,0-5.2
		c0-53.3,0-107,0-160.3c0-3.9-0.9-5.2-5.2-5.2c-8.2,0.4-16.3,0-24.5,0C343.5,417.7,342.2,417.7,340.5,417.7z"/>
	<g id="XMLID_279_" class="st2">
		<path id="XMLID_283_" class="st1" d="M445.4,357.1c0-6,0-12,0-18.1c0,7.3,0,14.6,0,22.4c18.1,0,35.7,0,53.7,0c0-1.3,0.4-3,0.4-4.3
			C481.5,357.1,463.4,357.1,445.4,357.1z"/>
		<path id="XMLID_282_" class="st1" d="M374.4,426.8c0,26.7,0,53.3,0,80C374,480.1,374.4,453.4,374.4,426.8L374.4,426.8z"/>
		<path id="XMLID_281_" class="st1" d="M374,357.1c0-1.3,0-2.6,0-3.9c0,1.3,0,2.6,0,4.3c-11.6,0-22.4,0-33.5,0c0,1.3,0,3,0,4.3
			c11.2,0,21.9,0,33.5,0C374,360.1,374,358.4,374,357.1z"/>
		<path id="XMLID_280_" class="st1" d="M374.9,314.6c1.7-22.8,11.2-42.1,31.8-53.7c9.9-5.6,20.2-8.6,31.4-8.6c20.2-0.4,40,0,60.2,0
			c0-1.3,0-3,0-4.3c-20.2,0-40.4-0.4-60.2,0c-11.2,0.4-21.9,3-31.4,8.6c-20.6,12-30.1,31-31.8,53.7c-0.9,8.2-0.9,15.9-0.9,24.1
			C374,327.5,374.4,321,374.9,314.6z"/>
	</g>
	<g id="XMLID_272_" class="st2">
		<path id="XMLID_278_" class="st3" d="M374,352.8c0-6,0-12.5,0-18.5C374,340.4,374,346.8,374,352.8L374,352.8z"/>
		<path id="XMLID_277_" class="st3" d="M460.8,309.8c11.2,0,22.4,0,34,0c1.3,0,2.6,0,3.9,0c0-1.3,0-3,0-4.3c-1.3,0-2.6,0-3.9,0
			c-11.2,0-22.4,0-34,0c-9,0-15,5.2-15,14.2c-0.4,6.4-0.4,12.9,0,19.3c0-5.2,0-10.3,0-15C445.8,315,451.8,310.3,460.8,309.8z"/>
		<path id="XMLID_276_" class="st3" d="M374.4,422.5c0-3.9-0.9-5.2-5.2-5.2c-8.2,0.4-16.3,0-24.5,0c-1.3,0-3,0-4.3,0
			c0,1.3,0,3,0,4.3c1.7,0,3,0,4.3,0c8.2,0,16.3,0.4,24.5,0c3.9,0,5.2,0.9,5.2,4.7C374.4,425.5,374.4,424.2,374.4,422.5z"/>
		<path id="XMLID_275_" class="st3" d="M493.5,417.7c-15.9,0-31.8,0-47.7,0c0,1.3,0,3,0,4.3c16.3,0,31.8,0,47.7,0
			c2.1-20.2,4.3-40,6-60.2h-0.4C497.4,380.3,495.2,398.8,493.5,417.7z"/>
		<path id="XMLID_274_" class="st3" d="M374,592.3c24.1,0,47.7,0,71.4,0c0-1.3,0-3,0-4.3c-24.1,0-47.3,0-71.4,0
			C374,589.3,374,590.5,374,592.3z"/>
		<path id="XMLID_273_" class="st3" d="M374,582.8c0-25.4,0-50.7,0-76.1c0,26.7,0,53.7,0,80.4C374,585.8,374,584.5,374,582.8z"/>
	</g>
</g>
</svg>
