<?xml version="1.0" encoding="utf-8"?>
<!-- Generator: Adobe Illustrator 19.2.0, SVG Export Plug-In . SVG Version: 6.00 Build 0)  -->
<svg version="1.1" id="Wireframe_1_" xmlns="http://www.w3.org/2000/svg" xmlns:xlink="http://www.w3.org/1999/xlink" x="0px"
	 y="0px" viewBox="0 0 840 840" style="enable-background:new 0 0 840 840;" xml:space="preserve">
<style type="text/css">
	.st0{fill:#CC1803;}
	.st1{fill:#FFFFFF;}
	.st2{opacity:0.2;}
	.st3{opacity:0.2;fill:#202020;enable-background:new    ;}
	.st4{fill:#202020;}
</style>
<circle class="st0" cx="420" cy="420" r="420"/>
<g>
	<g id="XMLID_233_">
		<path id="XMLID_255_" class="st1" d="M586.1,409.5c0,6.2-2.2,8.8-8.8,8.8c-14.6,0-29.1,0-43.7,0c-1.3,0-3.1,0-4.9,0
			c0,1.8,0,3.1,0,4.4c0,14.6,0,29.1,0,43.7c0,6.6-2.2,9.3-9.3,9.3c-3.5,0-7.5,0-11,0c-5.3,0-7.9-2.6-7.9-7.9c0-15,0-30,0-44.6
			c0-1.3,0-2.6,0-4.4c-1.8,0-3.1,0-4.4,0c-14.6,0-29.1,0-43.7,0c-6.6,0-9.3-2.2-9.3-9.3c0-3.5,0-6.6,0-10.2c0-6.6,2.2-9.3,8.8-9.3
			c14.6,0,28.7,0,43.3,0c1.3,0,3.1,0,4.9,0c0-1.8,0-3.1,0-4.4c0-14.6,0-29.1,0-44.2c0-6.6,2.2-8.8,8.8-8.8c3.1,0,6.2,0,9.3,0
			c7.9,0,10.2,2.2,10.2,9.7c0,14.1,0,28.7,0,42.8c0,1.3,0,2.6,0,4.4c1.8,0,3.1,0,4.9,0c14.6,0,28.7,0,43.3,0c6.6,0,9.3,2.2,9.3,9.3
			C586.1,402.9,586.1,406,586.1,409.5z M447.4,282.3c-4.9,3.5-10.2,7.1-15,11c-3.5,2.6-6.6,4.4-11,3.5c-0.9,0-1.8,0-2.6,0
			c0.4,0.9,0.4,1.3,0.9,1.3c17.7,24.3,21.6,64.5-11.9,92.3c-4,3.1-7.9,6.2-11.5,9.7c-5.3,4.9-7.9,11.5-0.9,18.5
			c4.9,4.9,10.2,9.7,15.5,14.1c2.6,2.6,5.7,4.4,8.8,6.6c30.9,23.4,32.2,68.9,13.7,92.7c-11,14.6-25.6,24.3-42.8,29.1
			c-34,10.2-67.6,7.5-100.3-6.6c-6.6-2.6-12.8-7.1-18.1-11.5c-17.7-14.6-22.1-35.3-12.4-56.5c9.3-19.9,25.2-32.2,45-40.6
			c12.8-5.3,26.1-7.9,39.7-8.4c1.3,0,2.6,0,4.9,0c-4.4-8.8-5.7-17.7-3.5-26.5c-5.7-0.9-11.5-1.3-17.2-2.6
			c-34.4-7.9-56.5-37.5-54.3-72.9c0.9-15.9,8.4-29.1,19.4-40.6c17.2-17.7,38.9-26.9,63.6-27.4c29.1-0.4,58.3,0,87,0
			c4,0,6.6,0.9,7.9,4.9C452.3,277,451.4,279.7,447.4,282.3z M312.3,475.3c-5.7,4.4-10.2,10.2-11.9,17.7
			c-3.1,14.1,2.6,25.6,13.2,34.4c11.9,10.2,26.5,12.8,42,12.4c2.6,0,5.3,0,7.9-0.4c10.2-0.9,20.3-3.5,29.6-8.8
			c15.9-9.3,22.5-38.4,3.5-52.1c-6.6-4.9-13.2-9.7-20.3-14.6c-0.9-0.4-1.3-0.9-2.2-0.9C351.6,457.7,330.8,461.2,312.3,475.3z
			 M381.2,323.8c-4.9-11-12.4-20.3-23.8-25.6c-14.6-7.1-28.3-1.8-34.9,12.4c-3.1,6.6-4.4,13.2-4,20.3c0.4,19,7.1,35.3,21.2,48.1
			c4.9,4.4,10.6,7.9,17.7,8.8c11.9,1.8,22.1-4.4,27.4-17.2C390,355.2,388.2,339.3,381.2,323.8z"/>
		<g id="XMLID_245_" class="st2">
			<path id="XMLID_254_" class="st1" d="M273.4,341.1c0.9-15.9,8.4-29.1,19.4-40.6c17.2-17.7,38.9-26.9,63.6-27.4
				c29.1-0.4,58.3,0,87,0c4,0,6.6,0.9,7.9,4.9c0.4-1.3,0.4-2.6,0-4.4c-1.3-4-4.4-4.9-7.9-4.9c-29.1,0-58.3-0.4-87,0
				c-24.7,0.4-45.9,9.3-63.6,27.4c-11,11-18.5,24.7-19.4,40.6c0,2.6,0,4.9,0,7.5C273.4,342.8,273.4,342,273.4,341.1z"/>
			<path id="XMLID_253_" class="st1" d="M529.1,394.5c1.8,0,3.1,0,4.9,0c14.6,0,28.7,0,43.3,0c6.6,0,9.3,2.2,9.3,8.8
				c0-1.3,0-3.1,0-4.4c0-6.6-2.2-9.3-9.3-9.3c-14.6,0-28.7,0-43.3,0c-1.3,0-2.6,0-4.9,0C529.1,391.4,529.1,392.7,529.1,394.5z"/>
			<path id="XMLID_252_" class="st1" d="M421.4,301.3c-0.9,0-1.3,0-2.6,0c0.4,0.9,0.4,1.3,0.9,1.3c7.5,10.6,12.4,23.8,13.2,38
				C432.8,326.5,428.4,312.4,421.4,301.3z"/>
			<path id="XMLID_251_" class="st1" d="M339.2,383.9c4.9,4.4,10.6,7.9,17.7,8.8c11.9,1.8,22.1-4.4,27.4-17.2
				c2.6-7.1,4-14.6,3.5-21.6c-0.4,5.7-1.3,11.5-3.5,17.2c-4.9,12.8-15,19-27.4,17.2c-6.6-0.9-12.4-4.4-17.7-8.8
				c-13.7-12.8-20.3-28.7-21.2-46.8c0,0.9,0,1.8,0,3.1C318.5,354.3,325.1,371.1,339.2,383.9z"/>
			<path id="XMLID_250_" class="st1" d="M443.9,399.4c0,1.3,0,3.1,0,4.4c0-6.6,2.2-9.3,8.8-9.3c14.6,0,28.7,0,43.3,0
				c1.3,0,3.1,0,4.9,0c0-1.8,0-3.1,0-4.4c0-14.6,0-29.1,0-44.2c0-6.6,2.2-8.8,8.8-8.8c3.1,0,6.2,0,9.3,0c7.9,0,10.2,2.2,10.2,9.7
				c0,14.1,0,28.7,0,42.8c0-1.8,0-3.1,0-4.4c0-14.1,0-28.7,0-42.8c0-7.5-2.2-9.7-10.2-9.7c-3.1,0-6.2,0-9.3,0
				c-6.6,0-8.8,2.2-8.8,8.8c0,14.6,0,29.1,0,44.2c0,1.3,0,2.6,0,4.4c-1.8,0-3.5,0-4.9,0c-14.6,0-28.7,0-43.3,0
				C446.1,390.1,443.9,392.7,443.9,399.4z"/>
			<path id="XMLID_249_" class="st1" d="M418.7,440.4c-3.1-2.2-6.2-4.4-8.8-6.6c-5.3-4.9-10.6-9.3-15.5-14.1c-2.2-2.2-3.5-4.4-4-6.6
				c-0.9,3.5,0,7.1,4,11c4.9,4.9,10.2,9.7,15.5,14.1c2.6,2.6,5.7,4.4,8.8,6.6c17.2,12.8,25.2,32.7,25.6,51.7
				C445.2,476.2,437.3,454.1,418.7,440.4z"/>
			<path id="XMLID_248_" class="st1" d="M344.1,416.2c-0.4,2.2-0.4,4.4,0,6.6c0-2.2,0.4-4,0.9-6.2
				C344.5,416.6,344.5,416.6,344.1,416.2z"/>
			<path id="XMLID_247_" class="st1" d="M258.8,492.1c9.3-19.9,25.2-32.2,45-40.6c12.8-5.3,26.1-7.9,39.7-8.4c1.3,0,2.6,0,4.9,0
				c-0.9-1.3-1.3-3.1-2.2-4.4c-0.9,0-2.2,0-3.1,0c-13.7,0.4-26.9,3.1-39.7,8.4c-19.9,8.4-35.8,20.8-45,40.6
				c-3.5,7.9-5.3,15.9-4.9,23.4C254.4,504.9,255.7,498.3,258.8,492.1z"/>
			<path id="XMLID_246_" class="st1" d="M313.6,531.9c11.9,10.2,26.5,12.8,42,12.4c2.6,0,5.3,0,7.9-0.4c10.2-0.9,20.3-3.5,29.6-8.8
				c9.7-5.7,15.9-18.5,15-30.9c-0.9,11-6.6,21.6-15,26.5c-9.3,5.3-19,7.5-29.6,8.8c-2.6,0.4-5.3,0.4-7.9,0.4
				c-15.5,0.4-29.6-2.2-42-12.4c-8.4-6.6-13.2-15-14.1-24.7C299,514.6,304.3,524.4,313.6,531.9z"/>
		</g>
		<path id="XMLID_244_" class="st3" d="M292.4,300.4c17.2-17.7,38.9-26.9,63.6-27.4c29.1-0.4,58.3,0,87,0c4,0,6.6,0.9,7.9,4.9
			c0.4-1.3,0.4-2.6,0-4.4l0,0c-0.9-2.6-3.1-4-5.3-4.9c0,0,0,0-0.4,0s-0.9,0-0.9,0c-0.4,0-0.9,0-1.3,0c-29.1,0-58.3-0.4-87,0
			c-24.7,0.4-45.9,9.3-63.6,27.4c-11,11-18.5,24.7-19.4,40.6c0,2.6,0,4.9,0,7.5c0-0.9,0-1.8,0-3.1
			C274.3,324.7,281.4,311.5,292.4,300.4z"/>
		<g id="XMLID_234_" class="st2">
			<path id="XMLID_243_" class="st4" d="M381.2,323.8c-4.9-11-12.4-20.3-23.8-25.6c-14.6-7.1-28.3-1.8-34.9,12.4
				c-3.1,6.6-4.4,13.2-4,20.3c0,0.4,0,0.9,0,1.3c0.4-6.2,1.3-11.9,4-17.7c6.6-14.6,20.8-19.4,34.9-12.4
				c11.5,5.3,18.5,14.6,23.8,25.6c4,8.4,6.2,17.2,6.6,25.6C388.2,343.7,385.6,333.6,381.2,323.8z"/>
			<path id="XMLID_242_" class="st4" d="M396.6,478.4c-6.6-4.9-13.2-9.7-20.3-14.6c-0.9-0.4-1.3-0.9-2.2-0.9
				c-22.5-5.3-43.3-2.2-61.8,12.4c-5.7,4.4-10.2,10.2-11.9,17.7c-0.9,3.5-0.9,6.6-0.9,9.3c0-1.8,0.4-3.5,0.9-4.9
				c1.8-7.5,6.2-13.2,11.9-17.7c18.5-14.6,39.3-17.7,61.8-12.4c0.9,0,1.8,0.4,2.2,0.9c6.6,4.9,13.2,9.7,20.3,14.6
				c7.5,5.3,11,13.2,11.5,21.2C408.6,494.8,405.5,485,396.6,478.4z"/>
			<path id="XMLID_241_" class="st4" d="M407.2,390.5c-4,3.1-7.9,6.2-11.5,9.7c-3.5,3.5-5.7,7.5-4.9,11.9c0.9-2.6,2.6-5.3,4.9-7.5
				c3.5-3.5,7.5-6.6,11.5-9.7c19-15.9,26.1-35.3,25.2-54.3C432,358.3,424.9,376.4,407.2,390.5z"/>
			<path id="XMLID_240_" class="st4" d="M346.7,438.7c0.4,0,1.3,0,2.2,0c-2.6-5.3-4.4-10.6-4.4-15.9
				C343.6,428.1,344.5,433.4,346.7,438.7z"/>
			<path id="XMLID_239_" class="st4" d="M451.4,277.9L451.4,277.9c-0.4,1.3-1.8,2.6-4,4.4c-4.9,3.5-10.2,7.1-15,11
				c-3.5,2.6-6.6,4.4-11,3.5c-0.9,0-1.8,0-2.6,0c0.4,0.9,0.4,1.3,0.9,1.3c0.4,0.9,1.3,1.8,1.8,2.6c0,0,0,0,0.4,0
				c4.4,0.4,7.9-0.9,11-3.5c4.9-4,9.7-7.1,15-11C451.4,284.1,452.3,281.4,451.4,277.9z"/>
			<path id="XMLID_238_" class="st4" d="M327.7,413.5c5.3,1.3,11,1.8,16.3,2.6c0-1.3,0.4-2.6,0.9-4.4c-5.7-0.9-11.5-1.3-17.2-2.6
				c-31.8-7.5-53.4-33.6-54.3-65.4C272.5,377.7,294.2,405.6,327.7,413.5z"/>
			<path id="XMLID_237_" class="st4" d="M501.3,418.4c-1.8,0-3.1,0-4.4,0c-14.6,0-29.1,0-43.7,0c-6.6,0-9.3-2.2-9.3-9.3
				c0,1.3,0,3.1,0,4.4c0,6.6,2.2,9.3,9.3,9.3c14.6,0,29.1,0,43.7,0c1.3,0,2.6,0,4.4,0C501.3,421.5,501.3,420.1,501.3,418.4z"/>
			<path id="XMLID_236_" class="st4" d="M586.1,409.5c0,6.2-2.2,8.8-8.8,8.8c-14.6,0-29.1,0-43.7,0c-1.3,0-3.1,0-4.9,0
				c0,1.8,0,3.1,0,4.4c0,14.6,0,29.1,0,43.7c0,6.6-2.2,9.3-9.3,9.3c-3.5,0-7.5,0-11,0c-5.3,0-7.9-2.6-7.9-7.9c0-15,0-30,0-44.6
				c0,1.8,0,3.1,0,4.4c0,15,0,30,0,44.6c0,5.3,2.6,7.9,7.9,7.9c3.5,0,7.5,0,11,0c6.6,0,9.3-2.2,9.3-9.3c0-14.6,0-29.1,0-43.7
				c0-1.3,0-2.6,0-4.4c1.8,0,3.1,0,4.9,0c14.6,0,29.1,0,43.7,0c6.2,0,8.8-2.6,8.8-8.8c0-3.5,0-7.1,0-10.2l0,0
				C586.1,405.6,586.1,407.8,586.1,409.5z"/>
			<path id="XMLID_235_" class="st4" d="M432.8,532.7c-11,14.6-25.6,24.3-42.8,29.1c-34,10.2-67.6,7.5-100.3-6.6
				c-6.6-2.6-12.8-7.1-18.1-11.5c-11-9.3-16.8-20.3-17.2-32.7c-0.9,14.1,5.3,26.9,17.2,37.1c5.3,4.4,11.9,8.8,18.1,11.5
				c32.7,14.1,66.2,16.8,100.3,6.6c17.2-4.9,31.8-14.6,42.8-29.1c8.4-10.6,12.4-25.6,11.9-41.1C444.3,510.2,440.3,523.5,432.8,532.7
				z"/>
		</g>
	</g>
</g>
</svg>
