<?xml version="1.0" encoding="utf-8"?>
<!-- Generator: Adobe Illustrator 19.2.0, SVG Export Plug-In . SVG Version: 6.00 Build 0)  -->
<svg version="1.1" id="Wireframe_1_" xmlns="http://www.w3.org/2000/svg" xmlns:xlink="http://www.w3.org/1999/xlink" x="0px"
	 y="0px" viewBox="0 0 400 599.2" style="enable-background:new 0 0 400 599.2;" xml:space="preserve">
<style type="text/css">
	.st0{fill:#FFFFFF;}
	.st1{opacity:0.2;}
	.st2{opacity:0.2;fill:#202020;enable-background:new    ;}
	.st3{fill:#202020;}
	.st4{fill:none;stroke:#FFFFFF;stroke-width:65.1593;stroke-miterlimit:10;}
</style>
<g>
	<g>
		<g id="XMLID_28_">
			<path id="XMLID_109_" class="st0" d="M399.5,183.4c0,8-2.6,11.4-10.1,11.4c-16.6,0-33.4,0-50,0c-1.5,0-3.5,0-5.6,0
				c0,2.3,0,4,0,5.7c0,18.8,0,37.7,0,56.5c0,8.6-2.6,12-10.6,12c-4.1,0-8.6,0-12.7,0c-6.1,0-9.1-3.4-9.1-10.3c0-19.4,0-38.8,0-57.7
				c0-1.7,0-3.4,0-5.7c-2,0-3.5,0-5,0c-16.6,0-33.4,0-50,0c-7.6,0-10.6-2.9-10.6-12c0-4.6,0-8.6,0-13.1c0-8.6,2.6-12,10.1-12
				c16.6,0,32.8,0,49.6,0c1.5,0,3.5,0,5.6,0c0-2.3,0-4,0-5.7c0-18.8,0-37.7,0-57.1c0-8.6,2.6-11.4,10.1-11.4c3.5,0,7.1,0,10.6,0
				c9.1,0,11.6,2.9,11.6,12.6c0,18.3,0,37.1,0,55.4c0,1.7,0,3.4,0,5.7c2,0,3.5,0,5.6,0c16.6,0,32.8,0,49.6,0c7.6,0,10.6,2.9,10.6,12
				C399.5,174.8,399.5,178.8,399.5,183.4z M240.7,18.9c-5.6,4.6-11.6,9.1-17.2,14.3c-4.1,3.4-7.6,5.7-12.7,4.6c-1,0-2,0-3,0
				c0.5,1.1,0.5,1.7,1,1.7c20.2,31.4,24.8,83.4-13.6,119.4c-4.5,4-9.1,8-13.1,12.6c-6.1,6.3-9.1,14.8-1,24
				c5.6,6.3,11.6,12.6,17.7,18.3c3,3.4,6.6,5.7,10.1,8.6c35.4,30.3,36.9,89.1,15.7,119.9c-12.7,18.8-29.3,31.4-49,37.7
				c-39,13.1-77.4,9.7-114.7-8.6c-7.6-3.4-14.7-9.1-20.7-14.8c-20.2-18.8-25.3-45.7-14.2-73.1c10.6-25.7,28.9-41.7,51.5-52.5
				c14.7-6.9,29.8-10.3,45.5-10.9c1.5,0,3,0,5.6,0c-5-11.4-6.6-22.8-4.1-34.3c-6.6-1.1-13.1-1.7-19.7-3.4
				C65.3,172.1,40,133.9,42.6,88.2c1-20.6,9.7-37.7,22.2-52.5c19.7-22.8,44.5-34.8,72.8-35.4c33.4-0.6,66.8,0,99.6,0
				c4.5,0,7.6,1.1,9.1,6.3C246.3,12.1,245.2,15.5,240.7,18.9z M86,268.5c-6.6,5.7-11.6,13.1-13.6,22.8c-3.5,18.3,3,33.1,15.1,44.5
				c13.6,13.1,30.4,16.6,48.1,16c3,0,6.1,0,9.1-0.6c11.6-1.1,23.3-4.6,33.9-11.4c18.2-12,25.8-49.7,4.1-67.4
				c-7.6-6.3-15.1-12.6-23.3-18.8c-1-0.6-1.5-1.1-2.6-1.1C131,245.6,107.2,250.2,86,268.5z M164.9,72.6
				c-5.6-14.3-14.2-26.3-27.3-33.1c-16.6-9.1-32.3-2.3-39.9,16c-3.5,8.6-5,17.1-4.5,26.3c0.5,24.6,8.1,45.7,24.3,62.2
				c5.6,5.7,12.1,10.3,20.2,11.4c13.6,2.3,25.3-5.7,31.3-22.3C174.9,113.2,173,92.6,164.9,72.6z"/>
			<g id="XMLID_99_" class="st1">
				<path id="XMLID_108_" class="st0" d="M41.5,94.9c1-20.6,9.7-37.7,22.2-52.5C83.5,19.6,108.3,7.6,136.5,7c33.4-0.6,66.8,0,99.6,0
					c4.5,0,7.6,1.1,9.1,6.3c0.5-1.7,0.5-3.4,0-5.7c-1.5-5.1-5-6.3-9.1-6.3c-33.4,0-66.8-0.6-99.6,0c-28.3,0.6-52.6,12-72.8,35.4
					C51.1,51,42.5,68.7,41.5,89.2c0,3.4,0,6.3,0,9.7C41.5,97.2,41.5,96,41.5,94.9z"/>
				<path id="XMLID_107_" class="st0" d="M334.2,164c2,0,3.5,0,5.6,0c16.6,0,32.8,0,49.6,0c7.6,0,10.6,2.9,10.6,11.4
					c0-1.7,0-4,0-5.7c0-8.6-2.6-12-10.6-12c-16.6,0-32.8,0-49.6,0c-1.5,0-3,0-5.6,0C334.2,160,334.2,161.7,334.2,164z"/>
				<path id="XMLID_106_" class="st0" d="M210.9,43.5c-1,0-1.5,0-3,0c0.5,1.1,0.5,1.7,1,1.7C217.4,58.9,223,76,224,94.3
					C224,76,218.9,57.8,210.9,43.5z"/>
				<path id="XMLID_105_" class="st0" d="M116.9,150.3c5.6,5.7,12.1,10.3,20.2,11.4c13.6,2.3,25.3-5.7,31.3-22.3
					c3-9.1,4.5-18.8,4.1-28c-0.5,7.4-1.5,14.8-4.1,22.3c-5.6,16.6-17.2,24.6-31.3,22.3c-7.6-1.1-14.2-5.7-20.2-11.4
					c-15.7-16.6-23.3-37.1-24.3-60.5c0,1.1,0,2.3,0,4C93.1,112,100.7,133.7,116.9,150.3z"/>
				<path id="XMLID_104_" class="st0" d="M236.7,170.3c0,1.7,0,4,0,5.7c0-8.6,2.6-12,10.1-12c16.6,0,32.8,0,49.6,0
					c1.5,0,3.5,0,5.6,0c0-2.3,0-4,0-5.7c0-18.8,0-37.7,0-57.1c0-8.6,2.6-11.4,10.1-11.4c3.5,0,7.1,0,10.6,0
					c9.1,0,11.6,2.9,11.6,12.6c0,18.3,0,37.1,0,55.4c0-2.3,0-4,0-5.7c0-18.3,0-37.1,0-55.4c0-9.7-2.6-12.6-11.6-12.6
					c-3.5,0-7.1,0-10.6,0c-7.6,0-10.1,2.9-10.1,11.4c0,18.8,0,37.7,0,57.1c0,1.7,0,3.4,0,5.7c-2,0-4.1,0-5.6,0
					c-16.6,0-32.8,0-49.6,0C239.2,158.3,236.7,161.7,236.7,170.3z"/>
				<path id="XMLID_103_" class="st0" d="M207.9,223.4c-3.5-2.9-7.1-5.7-10.1-8.6c-6.1-6.3-12.1-12-17.7-18.3
					c-2.6-2.9-4.1-5.7-4.5-8.6c-1,4.6,0,9.1,4.5,14.3c5.6,6.3,11.6,12.6,17.7,18.3c3,3.4,6.6,5.7,10.1,8.6
					c19.7,16.6,28.9,42.3,29.3,66.8C238.2,269.6,229.1,241.1,207.9,223.4z"/>
				<path id="XMLID_102_" class="st0" d="M122.4,192c-0.5,2.9-0.5,5.7,0,8.6c0-2.9,0.5-5.1,1-8C122.9,192.5,122.9,192.5,122.4,192z"
					/>
				<path id="XMLID_101_" class="st0" d="M24.8,290.2c10.6-25.7,28.9-41.7,51.5-52.5c14.7-6.9,29.8-10.3,45.5-10.9c1.5,0,3,0,5.6,0
					c-1-1.7-1.5-4-2.6-5.7c-1,0-2.6,0-3.5,0c-15.7,0.6-30.8,4-45.5,10.9c-22.8,10.9-41,26.8-51.5,52.5c-4.1,10.3-6.1,20.6-5.6,30.3
					C19.7,306.7,21.2,298.2,24.8,290.2z"/>
				<path id="XMLID_100_" class="st0" d="M87.6,341.6c13.6,13.1,30.4,16.6,48.1,16c3,0,6.1,0,9.1-0.6c11.6-1.1,23.3-4.6,33.9-11.4
					c11.2-7.4,18.2-24,17.2-40c-1,14.3-7.6,28-17.2,34.3c-10.6,6.9-21.8,9.7-33.9,11.4c-3,0.6-6.1,0.6-9.1,0.6
					c-17.7,0.6-33.9-2.9-48.1-16c-9.7-8.6-15.1-19.4-16.2-32C70.8,319.3,76.9,331.9,87.6,341.6z"/>
			</g>
			<path id="XMLID_92_" class="st2" d="M63.2,42.3C83,19.5,107.7,7.5,136,6.9c33.4-0.6,66.8,0,99.6,0c4.5,0,7.6,1.1,9.1,6.3
				c0.5-1.7,0.5-3.4,0-5.7l0,0c-1-3.4-3.5-5.1-6.1-6.3c0,0,0,0-0.5,0c-0.5,0-1,0-1,0c-0.5,0-1,0-1.5,0c-33.4,0-66.8-0.6-99.6,0
				c-28.3,0.6-52.6,12-72.8,35.4C50.6,50.9,42,68.6,41,89.1c0,3.4,0,6.3,0,9.7c0-1.1,0-2.3,0-4C42.5,73.8,50.6,56.6,63.2,42.3z"/>
			<g id="XMLID_29_" class="st1">
				<path id="XMLID_91_" class="st3" d="M164.9,72.6c-5.6-14.3-14.2-26.3-27.3-33.1c-16.6-9.1-32.3-2.3-39.9,16
					c-3.5,8.6-5,17.1-4.5,26.3c0,0.6,0,1.1,0,1.7c0.5-8,1.5-15.4,4.5-22.8c7.6-18.8,23.7-25.1,39.9-16c13.1,6.9,21.2,18.8,27.3,33.1
					c4.5,10.9,7.1,22.3,7.6,33.1C173,98.3,169.9,85.2,164.9,72.6z"/>
				<path id="XMLID_90_" class="st3" d="M182.6,272.5c-7.6-6.3-15.1-12.6-23.3-18.8c-1-0.6-1.5-1.1-2.6-1.1
					c-25.8-6.9-49.6-2.9-70.8,16c-6.6,5.7-11.6,13.1-13.6,22.8c-1,4.6-1,8.6-1,12c0-2.3,0.5-4.6,1-6.3c2-9.7,7.1-17.1,13.6-22.8
					c21.2-18.8,45-22.8,70.8-16c1,0,2,0.6,2.6,1.1c7.6,6.3,15.1,12.6,23.3,18.8c8.6,6.9,12.7,17.1,13.1,27.4
					C196.2,293.6,192.7,281.1,182.6,272.5z"/>
				<path id="XMLID_89_" class="st3" d="M194.7,158.8c-4.5,4-9.1,8-13.1,12.6c-4.1,4.6-6.6,9.7-5.6,15.4c1-3.4,3-6.9,5.6-9.7
					c4.1-4.6,8.6-8.6,13.1-12.6c21.8-20.6,29.8-45.7,28.9-70.2C223,117.2,215,140.6,194.7,158.8z"/>
				<path id="XMLID_86_" class="st3" d="M125.5,221.1c0.5,0,1.5,0,2.6,0c-3-6.9-5-13.7-5-20.6C121.9,207.4,122.9,214.2,125.5,221.1z
					"/>
				<path id="XMLID_85_" class="st3" d="M245.2,13.2L245.2,13.2c-0.5,1.7-2,3.4-4.5,5.7c-5.6,4.6-11.6,9.1-17.2,14.3
					c-4.1,3.4-7.6,5.7-12.7,4.6c-1,0-2,0-3,0c0.5,1.1,0.5,1.7,1,1.7c0.5,1.1,1.5,2.3,2,3.4c0,0,0,0,0.5,0c5,0.6,9.1-1.1,12.7-4.6
					c5.6-5.1,11.2-9.1,17.2-14.3C245.2,21.2,246.3,17.8,245.2,13.2z"/>
				<path id="XMLID_84_" class="st3" d="M103.7,188.5c6.1,1.7,12.7,2.3,18.7,3.4c0-1.7,0.5-3.4,1-5.7c-6.6-1.1-13.1-1.7-19.7-3.4
					c-36.4-9.7-61.2-43.4-62.2-84.5C40.5,142.3,65.3,178.3,103.7,188.5z"/>
				<path id="XMLID_83_" class="st3" d="M302.4,194.8c-2,0-3.5,0-5,0c-16.6,0-33.4,0-50,0c-7.6,0-10.6-2.9-10.6-12c0,1.7,0,4,0,5.7
					c0,8.6,2.6,12,10.6,12c16.6,0,33.4,0,50,0c1.5,0,3,0,5,0C302.4,198.8,302.4,197.1,302.4,194.8z"/>
				<path id="XMLID_82_" class="st3" d="M399.5,183.4c0,8-2.6,11.4-10.1,11.4c-16.6,0-33.4,0-50,0c-1.5,0-3.5,0-5.6,0
					c0,2.3,0,4,0,5.7c0,18.8,0,37.7,0,56.5c0,8.6-2.6,12-10.6,12c-4.1,0-8.6,0-12.7,0c-6.1,0-9.1-3.4-9.1-10.3c0-19.4,0-38.8,0-57.7
					c0,2.3,0,4,0,5.7c0,19.4,0,38.8,0,57.7c0,6.9,3,10.3,9.1,10.3c4.1,0,8.6,0,12.7,0c7.6,0,10.6-2.9,10.6-12c0-18.8,0-37.7,0-56.5
					c0-1.7,0-3.4,0-5.7c2,0,3.5,0,5.6,0c16.6,0,33.4,0,50,0c7.1,0,10.1-3.4,10.1-11.4c0-4.6,0-9.1,0-13.1l0,0
					C399.5,178.3,399.5,181.1,399.5,183.4z"/>
				<path id="XMLID_81_" class="st3" d="M224,342.7c-12.7,18.8-29.3,31.4-49,37.7c-39,13.1-77.4,9.7-114.7-8.6
					c-7.6-3.4-14.7-9.1-20.7-14.8c-12.7-12-19.2-26.3-19.7-42.3c-1,18.3,6.1,34.8,19.7,48c6.1,5.7,13.6,11.4,20.7,14.8
					c37.5,18.3,75.9,21.7,114.7,8.6c19.7-6.3,36.4-18.8,49-37.7c9.7-13.7,14.2-33.1,13.6-53.1C237.2,313.6,232.7,330.7,224,342.7z"
					/>
			</g>
		</g>
	</g>
	<line class="st4" x1="6.2" y1="566.7" x2="393.8" y2="566.7"/>
</g>
</svg>
