<?xml version="1.0" encoding="utf-8"?>
<!-- Generator: Adobe Illustrator 19.2.0, SVG Export Plug-In . SVG Version: 6.00 Build 0)  -->
<svg version="1.1" id="Layer_1" xmlns="http://www.w3.org/2000/svg" xmlns:xlink="http://www.w3.org/1999/xlink" x="0px" y="0px"
	 viewBox="0 0 960 327.8" style="enable-background:new 0 0 960 327.8;" xml:space="preserve">
<style type="text/css">
	.st0{display:none;}
	.st1{fill:#08D974;}
	.st2{fill:#CC1803;}
</style>
<g id="Background" class="st0">
	
		<image style="display:inline;overflow:visible;enable-background:new    ;" width="340" height="203" xlink:href="kk logo.png"  transform="matrix(9.1464 0 0 9.1464 -1074.8894 -598.7011)">
	</image>
</g>
<g id="Wireframe">
	<g>
		<g>
			<path class="st1" d="M29,227.7L95.9,0H366C366,0,156.2,51.3,29,227.7z"/>
			<path class="st2" d="M300.7,327.8H0C0,327.8,171.3,4.2,589.8,0C589.8,0,371,120.7,300.7,327.8z"/>
			<path class="st1" d="M380.3,327.8l-26.6-30.1c0,0,33.3-86.3,111.9-158.8c0,0,94.9,51.3,174.3,188.9H380.3z"/>
		</g>
		<g>
			<path class="st1" d="M654.5,277.7L688,163.9h135C823,163.9,718.1,189.6,654.5,277.7z"/>
			<path class="st2" d="M790.3,327.8H640c0,0,85.6-161.8,294.9-163.9C934.9,163.9,825.5,224.2,790.3,327.8z"/>
			<path class="st1" d="M830.2,327.8l-13.3-15.1c0,0,16.6-43.1,56-79.4c0,0,47.4,25.6,87.2,94.4H830.2V327.8z"/>
		</g>
	</g>
</g>
<g id="Guides" class="st0">
</g>
</svg>
