<?xml version="1.0" encoding="utf-8"?>
<!-- Generator: Adobe Illustrator 19.2.0, SVG Export Plug-In . SVG Version: 6.00 Build 0)  -->
<svg version="1.1" id="Layer_1" xmlns="http://www.w3.org/2000/svg" xmlns:xlink="http://www.w3.org/1999/xlink" x="0px" y="0px"
	 viewBox="0 0 359 206" style="enable-background:new 0 0 359 206;" xml:space="preserve">
<style type="text/css">
	.st0{fill:#DBDBDB;}
	.st1{fill:#606060;stroke:#606060;stroke-width:1.1302;stroke-miterlimit:22.9256;}
	.st2{fill:#FFFFFF;}
</style>
<g>
	<polygon class="st0" points="277.9,138.9 91,157.8 81.3,66.3 268.1,47.4 	"/>
	<polygon class="st1" points="87.6,71.9 263,54.2 271.6,133.3 96.2,151 	"/>
	<polygon class="st0" points="225.6,89.4 228.7,86.1 206.8,88.3 207.2,86.3 228.1,84.1 217.7,79.9 218.1,78.5 230.2,83.5 
		234.4,55.8 236.1,55.5 232.1,82.5 238.4,76 239.4,76.8 232.7,83.6 247.7,82.1 247.4,84.1 235,85.3 241.7,88.1 241.1,89.4 
		231.9,85.8 231.6,85.8 230.7,91.8 229,92 229.8,86.7 226.4,90.1 	"/>
	<g>
		<path class="st2" d="M250.7,98.3c0.3-0.6,2.3-2,4.6-2.2c2.2-0.3,3.7,1.4,3.4,3.1c-0.6,3.9-1.5,10.2-1.1,14.7
			c0.5,4.8,3.1,7,6.5,6.7c1.5-0.2,2.8-0.8,3.7-1.4c2.2-1.5,2.9-0.5,1.2,1.2c-1.7,1.5-3.7,2.5-6,2.8c-6.3,0.6-10.8-3.1-11.6-10.2
			c-0.2-1.7-0.5-3.4-0.5-4.3c-0.2-0.6-0.3-0.6-0.6-0.2c-0.8,1.5-2,3.7-2.3,5.4c-0.5,2-1.7,4-2.9,4.2c-0.8,0-1.7-0.6-2.5-1.1
			c-0.6-0.5-1.5-1.1-1.7-2.2c0-0.5-0.2-1.2-0.2-1.9c0-0.5-0.2-0.6-0.5-0.2c-1.2,1.9-3.3,5.6-7,5.9c-3.3,0.5-6.7-0.9-7.4-3.9
			c-0.2-0.6-0.3-0.6-0.6-0.2c-1.2,2.5-4.5,6-7.4,6.4c-2.5,0.2-4.3-0.9-5.7-2c-0.2-0.2-0.3-0.2-0.6,0c-0.9,1.1-2.5,2.5-4.3,3.3v-4.5
			c2.9-1.9,4.2-8.8,3.4-15.3c-0.2-1.5-1.1-3.4-2.8-3.2c-0.3,0-0.5,0-0.6,0.2v-4.6c0.8-0.3,1.4-0.8,2-0.9c1.7-0.8,3.6-0.9,4.8-0.2
			c1.7,1.1,1.9,3.1,2.2,5.6c0,2.2,0,4.9,0,4.9s1.2-0.5,0.9,1.1c-0.3,1.4-0.9,6.2-0.6,8.7c0.3,2.5,0.8,3.6,2,3.4
			c2.9-0.3,5.7-7.1,7-15.8c0-0.5-0.6-1.2,0.6-1.7c0.9-0.6,2.6-1.1,4-1.1c1.2-0.2,2.2-0.2,2.3,0.6c0,0.8-0.5,1.1-0.8,1.9
			c-0.5,1.9-1.1,7-0.8,10.2c0.3,2.6,1.1,3.9,2.5,3.7c4-0.5,6.3-9.8,7.3-13.3c0.2-0.8,0.6-1.1,1.2-1.4c0.9-0.5,3.9-1.7,4.8-0.5
			c0.3,0.5,0.5,1.1,0.2,2.3c-0.3,1.5-0.2,3.6,0,4.6c0.2,0.9,0.3,0.9,0.6,0.2c0.5-0.6,1.5-3.4,2.3-5.6
			C250.2,100.2,250.3,99,250.7,98.3L250.7,98.3L250.7,98.3z M207.2,122.3v-4.5c-0.5,0.3-0.8,0.5-1.2,0.5c-1.4,0.2-2.2-1.4-2.3-3.4
			c-0.6-5,0.8-11.6,1.7-13.6c0.3-0.9,1.1-1.5,1.9-1.9v-4.6c-2.3,1.2-5.1,2.8-6,3.6c-1.2,1.1-2.3,6.8-2.8,10.4
			c-0.3,2.3-0.6,4-1.4,5.3c-1.4,2.3-6.3,4.8-10.7,5.3c-5.7,0.6-9.3-2.9-9.8-7.7c-1.1-10.1,3.6-22,7.6-26.8c0.9-1.1,1.9-1.7,3.3-1.9
			c1.5-0.2,2.6,1.7,2.9,3.4c0.2,1.6-1.5,1.9-2.5,2c-0.5,0-0.6,0.3-0.8,0.6c-0.5,1.5-1.9,6-1.5,9c0.3,2.5,2.2,3.7,5.7,3.4
			c4.6-0.5,7.7-7.3,7-14.6c-0.8-7.1-6-9.9-11.3-9.3c-4.3,0.5-8.5,2.3-9.4,3.3c-1.4,1.1-7,9.9-8.8,18.9c0,0-1.1-0.2-1.5,0
			c-0.6,0-0.9,0.3-1.1,0.9c0,0.5-0.6,2.2-3.6,2.5c-3.3,0.3-5.7-1.1-6-4.3c-0.5-5.1,1.5-11.3,4.5-11.6c1.2-0.2,1.5,0.6,1.7,1.4
			c0,0.8-0.5,1.1-0.9,1.1c-0.2,0-0.3,0.3-0.3,0.5c-0.2,0.5-0.3,1.2-0.3,2c0.2,1.7,1.1,2.6,2.2,2.5c1.7-0.2,3.1-2.6,2.6-5.9
			c-0.2-1.7-0.8-2.8-1.4-3.7c-0.8-0.8-1.9-0.9-3.2-0.8c-2.2,0.2-4.8,1.1-5.9,2.2c-1.4,1.4-4,7-4.3,11.3v1.1c0,0,0,0.2,0,0.3
			c0.5,4.5,3.9,7.9,8,7.4c4.8-0.5,9-3.4,9-3.4s-0.9,4.8-0.5,9.1c0.9,9.6,7.9,14.6,16.4,13.6c7.6-0.8,13.2-6,14.2-7
			c0.2-0.2,0.5-0.3,0.6,0c0.3,0.8,2.3,4.3,7,3.9C206.2,122.5,206.7,122.5,207.2,122.3z"/>
	</g>
	<path class="st2" d="M103.9,131.9c0.2,0.2,0.6,0.3,0.9,0.3c1.2-0.2,4.3-6.7,7.6-20.4c2.6-10.5,3.6-19,3.6-19s-0.2-0.3-0.3-0.8
		c-0.2-1.1,0.3-2.6,1.5-3.4s4.8-2.3,6-2.5c1.7-0.2,2.8,0.9,3.1,3.1c0.6,3.6,1.1,11.5,1.2,15.9c0,5.7,0.5,9,0.6,11
		c0.2,0.5,0.3,0.8,0.8,0.2c1.7-2,3.4-6,4.8-10.8c2.9-9.3,3.7-15.6,3.7-15.6s-0.5-2.9,1.1-4.6c1.1-1.1,4.3-2.9,6.3-3.1
		c1.5-0.3,2.5,1.1,2.8,2.6c0.5,3.6,0.5,10.1,0.3,20.4c0,10.5-0.3,15.2,0.6,17.6c0.5,1.2,1.9,1.4,1.5,2.3c-0.5,1.2-0.6,2.3-2.3,2.6
		c-2.6,0.2-6.7-1.1-7.3-6.5c-0.9-6.4-0.8-12.7-0.8-17.5c0-0.8-0.3-0.9-0.6,0c-0.9,3.2-2.8,9.6-5.4,15c-2,4.5-5.4,7.4-7,7.6
		c-0.6,0.2-1.5-0.5-2.6-1.2c-1.2-0.9-2.2-1.7-2.2-2.6c-0.3-4.3-0.8-10.8-1.4-16.6c0-0.9-0.5-0.9-0.8,0.2c-1.1,3.7-2.8,9.6-4.6,14.9
		c-2,5.4-5.6,13.8-8.8,14.1c-2.3,0.2-3.1-1.4-3.1-2.5C103.1,131.6,103.7,131.6,103.9,131.9z"/>
</g>
</svg>
