<?xml version="1.0" encoding="utf-8"?>
<!-- Generator: Adobe Illustrator 19.2.0, SVG Export Plug-In . SVG Version: 6.00 Build 0)  -->
<svg version="1.1" id="Layer_1" xmlns="http://www.w3.org/2000/svg" xmlns:xlink="http://www.w3.org/1999/xlink" x="0px" y="0px"
	 viewBox="0 0 359 206" style="enable-background:new 0 0 359 206;" xml:space="preserve">
<style type="text/css">
	.st0{fill-rule:evenodd;clip-rule:evenodd;fill:#808080;}
	.st1{fill-rule:evenodd;clip-rule:evenodd;fill:#FFFFFF;}
</style>
<g>
	<path class="st0" d="M110.7,53.6l0.9,4.1c0.1,0.3,0.2,0.7,0.2,1l5.9,25.9c0,0.2,0.1,0.4,0.1,0.5l0.4,1.6c0.6,2.8,1.3,5.5,1.9,8.3
		l3.3,14.5c0.6,2.5,1.3,5.9,1.9,8.3c0.1,0.3,0.2,0.7,0.2,1c0.1,0.5,0.1,0.9,0.4,0.9h106.7c0.3,0,0.3-0.6,0.4-0.9l0.7-3.1
		c0.1-0.7,0.3-1.3,0.5-2.1l2.2-9.3c0.9-4.3,2.2-9.2,3.2-13.5l7.8-33.3c0.2-0.7,0.9-3.8,0.9-4.2c-1.5-0.8-9.1-3.6-11.1-4.2
		c-1.3-0.4-2.5-0.8-3.9-1.3C192.5,34.6,150.4,38.5,110.7,53.6L110.7,53.6z"/>
	<path class="st1" d="M227.6,111.9l-96.1,0l-12-53.2c8.2-3.4,18.6-6.4,27.4-8.1c20.4-4,44.6-4,65.2-0.3c4.9,0.9,9.8,2.1,14.4,3.4
		c3.1,0.9,7,2.1,10,3.3c0.5,0.2,1.1,0.4,1.6,0.6c0.5,0.2,1.1,0.5,1.6,0.6c-0.2,1.1-2.7,11.9-3,13.4c-1,4.5-2.1,9-3,13.4
		c-1,4.5-2,8.9-3,13.4C230.4,99.3,227.8,111.4,227.6,111.9L227.6,111.9z M129.7,114.3l99.6,0c0.2-0.5,3.1-13.5,3.3-14.3
		c2.1-9.5,4.4-19.1,6.5-28.7c0.5-2.4,1.1-4.8,1.6-7.1c0.3-1.2,0.5-2.4,0.8-3.6c0.2-1.1,0.7-2.5,0.8-3.6c-1-0.7-12.7-4.4-13.9-4.8
		c-33.9-10.1-71.6-9.1-105,2.3c-0.9,0.3-6.4,2.2-6.8,2.5L129.7,114.3L129.7,114.3z"/>
	<path class="st1" d="M226.8,71c-0.3,2.5-1.2,3.7-3.9,3.1c-0.7-0.1-2.4-0.6-2.6-1c-0.2-0.4,1.3-5,1.5-5.7c0.4-1.1,1-1.3,2.3-0.9
		C225.8,67.2,227.1,68.6,226.8,71L226.8,71z M183,62.1c0,0.6,0.4,0.6,0.9,0.7c1.7,0.5,1.3,1.9,1.2,3.4c-0.1,1.9-0.3,3.9-0.4,5.8
		c-0.2,2.1,0.1,4-1.7,4.6c-1.5,0.5-4.1,0.4-5-0.6c-0.6-0.6-0.5-1.8-0.5-2.7c0-1,0-2.1-0.1-3.1c0-1,0-2.1-0.1-3.1
		c-0.1-3.6-0.7-4,2.3-3.9c2.1,0.1,1.6,2.2,2.4,2.3c0.6,0.1,0.5-0.6,0.4-1c-0.2-0.8-0.2-2-0.4-2.7c-0.8-0.1-5.2,0.2-6.4,0.2
		c-0.9,0-6.3-0.1-6.6,0.1c-0.3,0.2-0.4,2.7-0.5,3.2c0,0.2-0.1,0.4-0.1,0.5c0,0.1,0,0.3,0.1,0.4c0.8,0.4,1-1.2,1.4-1.8
		c0.4-0.7,0.9-1.1,2.1-1.1c0.3,0,1.3,0,1.6,0c0.5,0.1,0.5,0.5,0.6,1c0.1,1,0,2.1,0.1,3.1c0,2.1,0.1,4.2,0.1,6.3c0,1.1,0.2,2-0.5,2.7
		c-0.7,0.7-2,0.2-1.8,1.3c0.6,0.3,3.6-0.1,4.5-0.1c1.4,0,3.3-0.1,4.6,0c1.5,0.1,3.1,0.1,4.6,0.2c0.8,0,3.9,0.4,4.4,0.1
		c0.1-0.6-0.5-0.6-1-0.8c-1.8-0.6-1.5-2.1-1.4-3.8c0.2-3.6-0.4-3.3,3.7-3c4.7,0.4,4.2-0.3,4,2.8c-0.1,1.3,0.2,3.7-1.1,4.3
		c-0.4,0.2-1,0.2-0.8,0.8c0.2,0.2,1.5,0.2,1.8,0.3c7.5,0.9,14.4,1.8,21.7,4.1c0.7,0.2,2.4,0.9,2.9,0.6c0.2-1.4-2.7-0.1-1.5-4
		c0.2-0.8,0.5-1.6,0.7-2.4c0.2-0.7,0.4-1.8,0.8-2.3c0.6-0.1,1.8,0.3,2.2,0.6c0.6,0.4,0.7,1,0.9,1.9c0.3,1.6,0.6,3.1,0.9,4.6
		c0.3,1.7,0.7,3,1.9,3.7c0.9,0.5,4.2,1,3.9-0.5c-1-0.5-1.6,0.2-1.9-1.3c-0.2-0.9-0.4-1.7-0.6-2.6c-0.2-0.9-1.2-4.7-1.1-5.3
		c0.4-0.3,1-0.3,1.5-0.5c3.7-1.2,3.9-6.2,0.8-8.3c-2.2-1.5-5.9-2-8.6-2.9c-0.6-0.2-2.4-1.1-2.8-0.7c-0.5,1.1,2.6,0.8,1.9,3.7
		c-0.4,1.5-0.9,3.1-1.4,4.6c-0.5,1.5-0.9,3-1.4,4.6c-1.3,4.2-1.2,5.3-6.9,3.5c-2.2-0.7-2.9-0.8-2.5-3.2c0.6-3.8,0.2-4.1,1.9-3.8
		c0.8,0.1,1.8,0.2,2.2,0.7c0.6,0.6,0.4,1.5,0.8,2.2c0.7,0.1,0.6-0.4,0.7-1.1c0.1-0.8,1.1-3.9,0.7-4.3c-0.2-0.2-0.5-0.1-0.7,0.2
		c-0.2,0.2-0.3,0.3-0.4,0.5c-1.6,1.6-4.2,0.4-4.2,0.3c-0.1-0.5,0.3-2.7,0.4-3.3c0.2-1.4,0-2.2,1.6-2c5.7,0.7,3.7,2.4,4.3,3.2
		c0.7,0.6,0.8-0.7,0.9-1.2c0.4-2.3,0.9-2.2-1.6-2.5c-0.7-0.1-1.4-0.2-2.1-0.3c-2.1-0.3-4.2-0.6-6.3-1c-0.7-0.1-1.5-0.4-1.9,0
		c-0.1,1.2,2.5,0.4,2.1,2.9l-1.4,8.9c-0.3,1.7-0.2,2.9-2.1,3c-1.2,0.1-2.8-0.7-3-2.1c-0.1-0.9,0.2-3.7,0.3-4.8
		c0.1-1,0.4-6.3,0.6-7.1c0.3-0.8,0.9-0.6,1.5-0.9c0.1-0.8-0.7-0.6-2.4-0.7c-0.4,0-4.2-0.4-4.4-0.4c-0.3,0.1-0.4,0.5,0.5,0.7
		c2.1,0.6,1.4,2.4,1.3,4.8c-0.1,1.5-0.4,1.4-1.8,1.3c-1-0.1-2-0.1-3-0.2c-3.5-0.3-2.9,0.5-2.6-4.3c0.2-2.6,1.6-1.4,1.9-2.3
		c-0.2-0.5-1-0.4-1.6-0.4c-0.6,0-1.3,0-1.9-0.1C185.6,62.1,183.8,61.8,183,62.1L183,62.1z"/>
	<path class="st1" d="M169.2,91.1c0.1,0.1,2.1,4.5,2.1,4.7c0.1,0.5,0,0.3-0.1,0.4c-0.3,0.1-2.3,0-2.8,0c-1.4,0-1.6,0.2-1.1-1.1
		C167.8,94.3,168.9,91.5,169.2,91.1L169.2,91.1z M196,92.7c-0.2,1.8-2.4,1.8-3.8,1.7c-1.1-0.1-0.9-0.5-0.9-1.9c0-0.9,0-1.9,0-2.8
		c0-1,0.1-1.6,1.1-1.6c0.9-0.1,1.6,0.1,2.3,0.5C195.7,89.4,196.2,91,196,92.7L196,92.7z M177.3,87.3c-0.2,1.4,2.5-0.2,2.5,2.8
		c0,1.8,0.1,9.5,0,10.6c-0.2,1.7-2.1,2-2.8,0.5c-0.6-1.1-1.1-2.5-1.6-3.7l-4.4-10.1c-0.2-0.4-0.2-0.6-0.7-0.6
		c-0.7,0.7-3.2,6.9-3.9,8.3c-0.7,1.4-1.3,2.8-1.9,4.2c-0.6,1.3-0.8,2.2-1.8,2.8c-0.3,0.2-0.8,0.3-0.6,0.7c0.5,0.2,2.2,0,2.9,0
		c0.5,0,2.6,0.3,2.8,0c0.5-1.2-3,0.1-2-3.1c0.8-2.6,1-2.2,3.4-2.2c0.5,0,2.4-0.1,2.8,0.1c0.4,0.2,1.8,2.9,1.3,3.9
		c-0.3,0.6-1.7,0.8-1.2,1.3c0.4,0.3,2.1,0,2.7,0c0.9,0,1.8,0,2.7,0.1c1.8,0.1,3.7-0.1,5.5-0.1c1.8,0,3.6,0.1,5.4,0
		c1.6,0,2.5-0.1,4.1,0c0.5,0,0.9,0.1,1.1-0.2c0-1.1-2.2,0.2-2.2-2.5c0-0.6-0.2-4.3,0.2-4.5c0.4-0.2,1.2-0.2,1.6,0
		c0.4,0.2,0.6,0.5,0.9,0.9c0.4,0.7,0.9,1.4,1.4,2.1l1.4,2.2c2,2.7,4.9,2.1,8.4,1.9c1.2,0,2.3-0.1,3.5-0.1c0.7,0,2.8,0.2,3.3-0.1
		c0.1-0.9-1.3-0.5-2-0.9c-0.7-0.4-0.7-1.3-0.7-2.3c0-2.9-0.3-2.8,0.9-5.1c0.7-1.2,2.4-4.8,3.2-5.7c0.2-0.3,0.5-0.5,0.8-0.7
		c1.4-0.8,0.2-0.8-0.7-0.8c-1,0.1-4-0.1-4.1,0.2c-0.1,0.5,0.4,0.5,0.9,0.7c1.8,0.5,1.3,1.5,0.6,2.7c-0.4,0.7-0.7,1.3-1.1,2l-1,1.9
		c-0.4-0.1-0.5-0.4-0.7-0.8c-0.4-0.9-2.2-4.5-2.3-5c-0.3-1.3,1.4-0.7,1.1-1.6c-0.4-0.1-2.7,0-3.4,0c-0.8,0-2.8-0.2-3.2,0
		c0,0.5,0.1,0.5,0.6,0.6c0.3,0.1,0.6,0.2,0.8,0.4c0.8,0.6,2.1,3.4,2.6,4.4c2.1,3.9,2.1,3.2,2,7.4c0,1.8-1,2-2.8,2
		c-1.7-0.1-2.4-0.4-3.2-1.5c-0.7-0.9-3.5-4.8-3.8-5.5c0.5-0.6,2.6-1.2,2.8-3.3c0.2-1.9-1.1-3.3-2.2-3.8c-2.1-1-5.7-0.5-8.4-0.6
		c-0.7,0-2.3-0.3-2.7,0.2c0,1.1,2.3,0,2.4,2.5c0,1.6,0,3.3,0,4.9c0,1.6,0,3.3,0,4.9c0,1.7-0.9,2.2-2.4,2.5c-0.6,0.1-1.6-0.1-2.1-0.3
		c-0.5-0.3-0.9-0.7-0.9-1.6c-0.1-2.1,0-7.3,0-9.8c0-0.7-0.1-1.7,0.3-2.2c0.3-0.4,1.6-0.5,1.2-1c-0.3-0.4-2.8-0.1-3.5-0.1
		C179.9,87.3,178,87,177.3,87.3L177.3,87.3z"/>
	<path class="st1" d="M147.1,81.7c0.6,0.2,2.5-0.4,3.2-0.5c1.1-0.2,2.1-0.4,3.2-0.6c0.5-0.1,1.2-0.2,1.2-0.7
		c-0.1-1.1-2.2,0.8-3.4-2.4c-0.4-1.2-1.3-4.5-1.8-5.9c-0.6-2-1.1-3.9-1.7-5.9c-0.4-1.3-0.6-2.1,0.3-2.9c0.3-0.3,1-0.5,1.1-0.8
		c0.3-0.7-0.7-0.4-1.1-0.3c-0.5,0.2-0.9,0.4-1.4,0.5c-1.9,0.5-1.7-0.1-2.1,1.8c-0.3,1.5-2.5,13.7-2.8,14.4c-0.5-0.1-1.2-1.2-1.7-1.7
		l-6.3-7.4c-0.3-0.4-0.5-0.6-0.8-0.9c-1.7-2-1.3-1.9-3.1-1.3c-1.8,0.6-1.3,0.3-2.6,0.7c-0.6,0.2-0.4,0.8,0.2,0.9
		c0.6,0.1,0.9,0,1.5,0.3c0.7,0.3,1.2,1.1,1.5,1.9c0.5,1.5,2.2,8.8,2.7,11c0.2,0.9,0.6,2,0.3,2.8c-0.4,1.1-1.5,0.9-1.3,2
		c0.5,0.2,2.7-0.9,3.3-1.1c0.5-0.2,1.1-0.4,1.7-0.6c1-0.3,1.3-0.3,1.1-1c-0.9-0.5-2.1,0.8-3.2-1c-0.6-0.9-0.8-2.1-1.1-3.3
		c-0.3-1.2-1.7-6.3-1.6-7.1c0.5,0,0.9,0.6,1.4,1.2c0.4,0.5,0.7,0.9,1.2,1.4c0.4,0.4,0.8,0.9,1.2,1.4c0.4,0.5,0.8,0.9,1.1,1.3
		c0.4,0.5,0.8,0.9,1.2,1.4c0.8,1,2,2.3,2.9,3.4c1.1,1.4,1-0.3,1.5-3c0.6-3.2,1.4-7.7,2.1-10.6c0.6,0.2,0.7,0.9,0.8,1.4
		c0.5,1.7,2.2,7.2,2.4,8.3C148.7,81,146.8,80.5,147.1,81.7L147.1,81.7z"/>
	<path class="st1" d="M156,70.2c-0.1-1.9,0.3-3.6,1.3-4.6c0.9-0.9,2.9-1.6,4.6-1.1c2.9,0.9,4.2,4.1,4.4,7.8c0.1,1.9-0.3,3.5-1.4,4.6
		c-0.9,0.9-2.9,1.6-4.6,1.1C157.5,77.3,156.2,73.6,156,70.2L156,70.2z M169.3,72.3c0.7-5.2-2.4-9-7.1-9.3c-2.3-0.1-5,0.7-6.4,1.9
		c-1.7,1.4-2.7,2.9-2.9,5.3c-0.6,5.1,2.4,9,7.1,9.3c2.6,0.2,4.8-0.7,6.5-1.9C168.1,76.5,169.1,74.4,169.3,72.3L169.3,72.3z"/>
	<path class="st1" d="M153.3,88c1.6-0.2,3.3,0.3,4.3,1.1c3.4,2.5,3.5,9.3,0.4,11.8c-1,0.8-2.7,1.3-4.3,1c-2-0.3-1.5-2-1.5-4
		c0-2.6-0.1-5.8,0-8.3C152.2,88.6,152.3,88.2,153.3,88L153.3,88z M163.4,95.4c0.3-2.6-0.3-4.6-2.1-6.3c-2.9-2.7-8.9-1.8-12.8-1.9
		c-0.4,0-1.8-0.3-1.5,0.5c0.2,0.6,2.1,0.1,2.2,2.1c0.1,2.4,0,6,0,8.5c0,1.1,0.3,3.1-0.6,3.6c-0.2,0.1-0.6,0.2-0.8,0.3
		c-0.2,0.1-0.3,0.5,0,0.6c0.3,0.1,1.6,0,2,0c4.1-0.2,6.9,1,10.7-1.9C161.8,99.9,163.1,98,163.4,95.4L163.4,95.4z"/>
	<path class="st0" d="M222.9,135.2c0-1.4,0-3.1,1-4.1c0.5-0.5,0.8-0.5,1.4-0.5c1.7,0,2.4,3.6,2.4,4.5c0,1.8,0.3,3-1.2,3.7
		c-1.5,0.7-2.6,0-3.2-1.5C223.2,136.9,222.9,135.8,222.9,135.2L222.9,135.2z M227.6,129.8c-0.4-0.1-0.8-1-2.6-1
		c-3.4,0-4.5,5.1-3.5,8.3c0.1,0.3,0.2,0.6,0.3,0.9c0.9,2.2,2.8,3.4,5,2.6c0.4-0.1,0.7-0.3,1-0.4c0,1.2,1.7,1,1.7,0.1l-0.1-14.1
		c-0.1-1.1,0.1-1.5-1.2-1.5c-0.8,0-0.7,1.8-0.6,2.2C227.7,127.7,227.6,128.9,227.6,129.8L227.6,129.8z"/>
	<path class="st0" d="M130.6,125c0,0.8,0,3.7,0.1,4.3l0.1,3.1c0,0.4,0.1,0.5,0.1,1c0,1.4,0.2,2.7,0.2,4.1c0,2.2-0.4,3.5,1.2,3.5
		c0.9,0,0.6-2.4,0.6-2.8c-0.1-0.5-0.1-2.9,0-3.3c0.3-1,0.5-1.7,1-2.5c1-2,2.8-2.6,3.8,0.1c0.7,1.7,0.8,4.7,0.5,6.5
		c-0.1,0.5-0.2,0.7-0.2,1.1c0,0.5,0.4,0.8,0.9,0.8c0.8,0,0.9-0.8,1-1.5c0.5-3.3,0.1-10.5-4-10.5c-2,0-2.9,1.8-3.3,2.1
		c-0.1-0.5-0.1-1.2-0.1-1.9c0-0.4-0.1-0.5-0.1-0.9l0-1.9c0-0.3-0.1-1.6-0.2-1.7c-0.3-0.4-1-0.5-1.3-0.1
		C130.7,124.5,130.6,124.8,130.6,125L130.6,125z"/>
	<path class="st0" d="M122.3,162.6c0.8,0,0.9-0.7,0.9-1.2l-0.1-4.5c0.1-1.2,1.4-4.7,3.1-4.7c2.1,0,2.7,4.9,2.4,6.6
		c-0.1,0.4-0.1,1-0.1,1.5c-0.1,0.6-0.5,1.3,0,1.8c0.3,0.4,1.2,0.5,1.5-0.2c0.9-2.4,0.4-7-0.5-9c-0.3-0.7-0.7-1.1-1.2-1.7
		c-1.5-1.4-3.5-0.8-4.7,0.5c-0.2,0.2-0.4,0.6-0.6,0.7c0-0.3-0.1-0.4-0.1-0.9l-0.1-2.9c0-1.3,0.3-3-0.9-3c-1.3,0-0.8,2.2-0.8,3.8
		c0,1.7,0.2,3,0.2,4.7l0.2,2.2c0,0.3,0,0.8,0,1.2c0,0.5,0.1,0.8,0.1,1.2c0,0.8-0.1,1.6,0,2.4c0,0.3,0,0.9,0.1,1.1
		C121.7,162.3,122.1,162.6,122.3,162.6L122.3,162.6z"/>
	<path class="st0" d="M158,152.1c1.6,0,3.6,2.3,2.1,4.9c-0.2,0.3-0.3,0.5-0.5,0.7c-0.8,1-1.6,1.6-2.8,2.2c-0.3,0.1-0.6,0.2-0.9,0.4
		c0-0.4,0-0.9,0-1.3l-0.2-3.9c0-1.3-0.3-1.1,0.4-2.1C156.5,152.6,157.3,152.1,158,152.1L158,152.1z M154.1,159.4l0,5.1
		c-0.1,0.8-0.2,1.7,0.9,1.7c0.8,0,0.8-0.9,0.8-1.7c0-0.9,0.1-1.5,0.1-2.4c0.8-0.1,2.5-1.1,3.3-1.6c0.3-0.2,0.6-0.5,0.9-0.8
		c0.3-0.3,0.9-0.9,1.1-1.3c0.8-1.1,1.1-1.9,1.1-3.5c0-1.7-1.2-3.3-2.3-3.9c-1.1-0.7-2.4-0.8-3.7-0.3c-0.4,0.2-0.6,0.4-1,0.6
		c0-1.2-1.3-1.4-1.7-0.6c-0.2,0.4,0,0.7,0,1.1L154.1,159.4L154.1,159.4z"/>
	<path class="st0" d="M219.5,152.1c1.8,0,2.8,1.9,2.8,3c0,2.1-2.2,3.9-3.9,4.8c-0.3,0.2-0.6,0.3-0.9,0.4c0-1.8,0-3.6-0.1-5.1
		c0-0.4-0.1-1,0-1.2C217.3,153.3,218.4,152.1,219.5,152.1L219.5,152.1z M215.3,151c0,1,0.3,4.1,0.4,5.5c0,0.4,0,0.8,0,1.2l0.1,5.4
		c0,0.6-0.5,3.1,0.5,3.1c0.4,0,0.8,0,1-0.5c0.2-0.6,0.1-3,0.1-3.6c0.7-0.1,1.8-0.7,2.4-1c2.7-1.5,5.5-5,3.5-8.4
		c-0.4-0.6-0.9-1.2-1.5-1.6c-2.5-1.6-4.4,0.2-4.8,0.3c0-0.4,0-0.5-0.2-0.8C216.3,149.9,215.3,150.3,215.3,151L215.3,151z"/>
	<path class="st0" d="M156.7,130.6c1.3,0,2,0.6,2.5,1.7c0.5,1.1,0.4,2-0.1,3c-0.6,1.1-1.4,1.7-2.3,2.4c-0.3,0.2-1.6,1-2,1
		c0-0.5-0.1-0.7-0.1-1.2l-0.1-3.9c-0.1-1-0.2-1.3,0.4-2C155.3,131.2,156,130.6,156.7,130.6L156.7,130.6z M153,139.5v1.6
		c0,1.6-0.6,3.7,0.9,3.7c0.9,0,0.8-1,0.9-1.6c0.1-0.7,0-1.7,0-2.5c0.6,0,1.9-0.7,2.3-1c0.3-0.2,0.6-0.4,1-0.7l0.9-0.8
		c2-2.1,3.2-4.5,1.4-7.3c-1.1-1.6-3.1-2.5-5-1.7c-1.1,0.4-0.9,0.7-1.1,0.5c0,0-0.1-1-0.8-1c-0.4,0-0.8,0.2-0.9,0.6
		c-0.1,0.4,0,1,0,1.4c0,0.4,0.1,1,0.1,1.3c0,0.3,0,0.5,0,0.8c0,0.3,0.1,0.3,0.1,0.7C152.9,135.5,153,137.4,153,139.5L153,139.5z"/>
	<path class="st0" d="M188.6,152.1c0.7,0,1.1,0.2,1.5,0.5c0.3,0.2,0.7,0.7,0.9,1.1c1.9,3.4-3.4,6.5-4.3,6.6l-0.2-5.1
		c-0.1-0.9-0.3-1.3,0.3-2C187.2,152.7,187.9,152.1,188.6,152.1L188.6,152.1z M184.9,160.6l0,2.4c0,0.6-0.2,1.8-0.1,2.5
		c0.2,1,1.5,0.9,1.7,0.2c0-0.1,0.1-0.9,0.1-1.1c0-0.8,0-1.6,0-2.4c1-0.5,1.9-0.5,3.8-2.1l0.1-0.1c2.5-2.1,3.8-5.4,1.3-8.2l-0.4-0.4
		c-0.7-0.6-1.9-1.1-2.9-1c-1.1,0.1-1.4,0.3-2.3,0.9c-0.1-0.5-0.3-1.1-0.9-1.1c-1.2,0-0.8,1.5-0.8,1.9l0.2,2.7
		C184.8,156.7,184.9,158.6,184.9,160.6L184.9,160.6z"/>
	<path class="st0" d="M167.4,130.6h0.3c1.2,0,2.5,1.6,2.5,2.9c0,1.1-0.4,1.9-1.1,2.7c-0.7,0.8-1.1,1.1-2,1.7
		c-0.3,0.2-1.2,0.7-1.6,0.8c0-0.4,0-0.8,0-1.2c0-0.5-0.1-0.7-0.1-1.2l-0.1-3.8C165.4,131.6,166.4,130.6,167.4,130.6L167.4,130.6z
		 M163.2,129.4c0,0.7,0.3,3,0.3,3.7c0,1.3,0.2,2.5,0.2,3.9c0,0.7-0.1,7,0,7.2c0.4,1,1.7,0.6,1.7-0.3v-3.3c1,0,3.4-1.6,4.2-2.3
		c0.6-0.6,1.1-1,1.5-1.8c1.1-1.8,1.2-3.7,0.1-5.5c-0.4-0.6-0.9-1.1-1.5-1.5c-1.2-0.8-2.9-0.7-4.1,0c-0.2,0.1-0.2,0.2-0.5,0.3
		c0-1.2-1-1.3-1.5-0.9C163.4,128.9,163.2,129.3,163.2,129.4L163.2,129.4z"/>
	<path class="st0" d="M145,153.9c0-1.1,2.6-2.9,4.1-0.9c1.6,2.1,0.7,3.6-0.9,5.3c-0.5,0.5-2.3,1.9-3.1,1.9V158
		C145.2,156.6,145,155.4,145,153.9L145,153.9z M143,151l0.4,5.4c0,0.4,0,0.8,0,1.2c0,0.4,0.1,0.6,0.1,1.1l0,4.7c0,0.5-0.4,3,0.5,3
		c1,0,1.2-0.3,1.2-1.6c0-0.8,0-1.7,0-2.5c0.9-0.1,2.6-1.1,3.3-1.6c1.1-0.9,1.7-1.4,2.4-2.6c2.4-4.1-1.2-7.8-3.9-7.4
		c-0.6,0.1-0.8,0.1-1.2,0.3l-1.1,0.6c0-0.4,0-0.5-0.2-0.8C144,149.9,143,150.3,143,151L143,151z"/>
	<path class="st0" d="M143.8,138.1c0-1.3,1.9-3.1,2.8-3.6c0.7-0.4,1-0.6,1.8-0.6c0.6,0,0.6,0.5,0.6,1.1l0.1,2.2
		c0,0.4-0.2,0.5-0.4,0.6c-1,0.7-3.4,1.8-4.5,1C144,138.6,143.8,138.4,143.8,138.1L143.8,138.1z M143.2,131c0,0.4,0,1.1,0.9,1.1
		c0.6,0,1.6-1.6,3-1.6c0.7,0,1.3,1,1.4,1.6c-1.6,0-3.1,0.8-4.1,1.8c-1.4,1.4-2.2,2.3-2.2,4.4c0,0.7,0.5,1.3,0.9,1.7
		c1.5,1.4,4.3,0.5,5.9-0.3c0,0.3,0.1,0.5,0.2,0.7c0.4,0.5,1,0.3,1.3,0c0.5-0.6,0.4-3.9,0.4-4.7c0-2.2-0.7-6.9-3.6-6.9
		c-0.7,0-1,0-1.6,0.3C145,129.4,143.2,130.5,143.2,131L143.2,131z"/>
	<path class="st0" d="M139.4,159.1c-1.2,0.8-2.3,1.5-4,1.5c-0.6,0-1.2-0.4-1.2-0.9c0-1.2,1-2.1,1.6-2.7c0.6-0.6,2.5-2,3.3-1.4
		c0.3,0.2,0.3,1.1,0.3,1.4c0,0.5,0.1,0.7,0.1,1.1C139.5,158.4,139.4,158.6,139.4,159.1L139.4,159.1z M134.4,153.6
		c0.7,0,0.6-0.3,1.5-0.9c0.5-0.3,1-0.7,1.6-0.7c0.7,0,1.3,1,1.4,1.6c-1.1,0-1.7,0.3-2.4,0.6c-0.3,0.2-0.6,0.4-0.9,0.6
		c-0.3,0.2-0.6,0.5-0.9,0.7c-1.2,1.2-2.2,2.2-2.2,4.3c0,1.4,1.5,2.5,2.5,2.5c1.2,0,1.6,0.1,2.8-0.3c0.7-0.2,1.2-0.6,1.5-0.6
		c0,1,1.1,1.2,1.6,0.6c0.2-0.2,0.2-0.5,0.2-0.9c0.4-2.6,0.2-6.8-0.9-9c-0.4-0.8-1.4-1.8-2.4-1.8c-0.9,0-1.2,0-2,0.5
		c-0.6,0.3-1.9,1.1-2.1,1.8C133.5,153.1,133.8,153.6,134.4,153.6L134.4,153.6z"/>
	<path class="st0" d="M197.2,153.8c0.1-0.8,0.8-1.9,1.7-1.9c0.8,0,1.8,0.9,2.2,1.6C199.7,153.5,198.5,153.8,197.2,153.8L197.2,153.8
		z M195.1,155.4c0,2,0,3.3,1.1,5.2c0.2,0.3,0.3,0.4,0.5,0.7c0.9,1.2,3.1,1.5,4.4,0.8l0.8-0.6c0,0,0.1-0.1,0.1-0.1l0.1-0.1
		c0.5-0.6,0.8-0.9,1.1-1.6c0.7-1.4-0.9-2.1-1.4-1.1c-0.5,0.9-0.9,2-2.3,2c-0.5,0-0.9-0.2-1.3-0.5c-1.2-0.9-1.4-3.1-1.4-4.7l3.5-0.2
		c0.5,0,1.3-0.1,1.7-0.1c0.5-0.1,0.4,0,0.7-0.3c0.5-0.5,0.4-1.3,0.1-1.8c-0.1-0.2-0.2-0.4-0.3-0.6c-0.1-0.2-0.3-0.4-0.4-0.5
		c-0.2-0.2-0.2-0.3-0.4-0.5c-0.6-0.5-1.7-1.3-2.5-1.3c-0.8,0-1.6,0-2.2,0.6C195.8,151.8,195.1,153.7,195.1,155.4L195.1,155.4z"/>
	<path class="st0" d="M232.9,153.8c0.7-2.8,2.9-2,3.9-0.2C235.5,153.5,234.2,153.8,232.9,153.8L232.9,153.8z M230.8,155.5
		c0,2,0.2,4.1,1.6,5.7c1.5,1.7,4.2,1.6,5.4,0.1c0.4-0.5,1.3-1.6,1.3-2.4c0-0.7-1.1-1.4-1.7-0.3c-0.2,0.3-0.3,0.6-0.5,0.9
		c-1.5,2.2-4.4,1.3-4.4-4.1c0.4,0,0.5-0.1,0.9-0.1l4.6-0.3c0.5-0.1,0.8-0.6,0.8-1.1c0-1.2-1.3-2.7-2.4-3.4c-1.7-1-3.6-0.5-4.7,1.3
		C231.3,152.8,230.8,154.4,230.8,155.5L230.8,155.5z"/>
	<path class="st0" d="M205.2,139.2c-1,0-1.4-0.1-2-1.2c-0.8-1.4-0.5-4.2,0.1-5.5c0.2-0.5,0.3-0.8,0.6-1.2c0.1-0.1,0.1-0.1,0.2-0.2
		c0.2-0.3,0.4-0.5,0.8-0.6c2.4-0.3,3.5,4.5,2.1,7.2C206.7,138.3,206.1,139.2,205.2,139.2L205.2,139.2z M204.9,140.9
		c1.5,0,2.6-0.7,3.4-1.8c0.8-1.2,1-2.3,1.1-4.1c0-0.2-0.1-0.8-0.1-1.1c-0.1-1.5-0.9-3.5-2.1-4.4c-1.1-0.8-2.1-1.2-3.3-0.5
		c-0.8,0.4-1.3,1.2-1.8,2c-0.6,1-1,2.5-1,4c0,0.5-0.1,0.5,0,1.1c0.2,1,0.1,1.8,0.7,3c0.5,0.8,1.1,1.5,2,1.8
		C204,140.9,204.5,140.9,204.9,140.9L204.9,140.9z"/>
	<path class="st0" d="M215.4,139.2h-0.6c-1.4,0-1.9-2-1.9-3.5c0-1.7,0.5-3.8,1.6-4.9c0.7-0.7,1.9,0,2.5,1c0.9,1.6,0.9,4.5,0.1,6
		C216.7,138.4,216,139.2,215.4,139.2L215.4,139.2z M211.1,135c0,1.5,0,3.1,1,4.4c1.7,2.2,4.7,1.9,6.2-0.4c0.3-0.5,0.6-1.3,0.8-1.9
		c0.8-2.9,0.1-6.9-2.7-8.3C213,127.2,211.1,132.4,211.1,135L211.1,135z"/>
	<path class="st0" d="M206.8,157.3c0-1.1,0.2-2.3,0.5-3.1c0.2-0.5,1-2.1,1.5-2.1c1.1,0,1.7,0.2,2.3,1.4c0.9,1.8,0.9,5.2-0.6,6.6
		c-0.9,0.9-2.3,0.9-3-0.3C207.1,159.2,206.8,158.2,206.8,157.3L206.8,157.3z M205.1,156.8c0,2,0.3,4.1,1.9,5.1
		c1.7,1.1,4.1,0.5,5.3-1.4c1.8-2.9,1.4-7.8-1.2-9.6C207.2,148.1,205.1,153.6,205.1,156.8L205.1,156.8z"/>
	<path class="st0" d="M174.1,129.6c0,0.6,1.1,3.4,1.5,4.2c0.6,1.5,1.4,2.8,2.4,4l0.5,0.6c-1.2,1.8-1.5,2.4-3.1,3.7
		c-0.8,0.6-0.2,1.6,0.5,1.6c0.4,0,1.3-0.8,1.6-1.1c2.2-2.2,4-5.6,5-8.6c0.3-1,1-3.2,1-4.4c0-0.6-0.4-0.8-0.9-0.8
		c-1,0-0.8,1.4-1.2,2.9c-0.1,0.4-0.2,0.7-0.3,1.1c-0.3,1-1.6,4-1.6,4c-0.7-0.5-1.9-2.9-2.4-3.9c-0.3-0.7-0.6-1.5-0.9-2.2
		c-0.2-0.6-0.4-2-1.2-2C174.6,128.7,174.1,129.2,174.1,129.6L174.1,129.6z"/>
	<path class="st0" d="M169,160c-0.3,0.4-0.5,0.8-0.8,1.2l-1.8,2.1c-0.1,0.1-0.1,0.1-0.2,0.2c-0.3,0.3-0.7,0.3-0.7,1
		c0,0.5,0.4,0.9,0.9,0.9c0.8,0,2.4-1.9,2.9-2.5c0.8-1.1,1.5-2.1,2.1-3.3c0.9-1.8,2.7-6.1,2.7-8.3c0-0.9-1.4-1.1-1.7-0.2
		c-0.1,0.4-0.1,0.8-0.2,1.2c-0.1,0.7-0.4,1.6-0.6,2.2c-0.3,1-0.9,2.6-1.4,3.5c-0.1,0.2-0.2,0.3-0.2,0.5c-1.3-0.8-3-5.3-3.6-7.2
		c-0.4-1.3-1.9-0.8-1.7,0.2c0.1,0.8,1.2,3.4,1.5,4.1c0.4,0.9,0.8,1.6,1.3,2.5c0.1,0.2,0.2,0.4,0.4,0.6l0.8,1.1
		C168.7,159.7,168.8,159.8,169,160L169,160z"/>
	<path class="st0" d="M192.7,131.5c-0.5,0-0.3-0.2-1.2-0.2c-0.2,0-0.6,0.4-0.6,0.6c0,0.5-0.1,0.9,0.7,1.1c0.2,0.1,0.9,0.2,1.2,0.2
		c0,1.1,0.5,6.6,0.9,7.3c0.4,0.7,1.6,0.5,1.6-0.5l-0.8-6.8c0.4,0,2.3-0.2,2.5-0.4c0.6-0.5,0.3-1.7-0.7-1.6c-0.7,0.1-1.2,0.2-1.8,0.2
		c0-1.4,0.1-6.1,2-6.1c0.9,0,1.1,0.8,1.9,0.8c0.5,0,0.8-0.5,0.8-1c0-0.5-0.6-0.8-1-1c-0.7-0.5-1.2-0.5-2-0.5c-1.5,0-2.5,1.6-2.9,2.7
		C192.7,128.4,192.9,130.7,192.7,131.5L192.7,131.5z"/>
	<path class="st0" d="M226.5,154.2c0,1.5,0.1,3.2,0.2,4.6c0.1,0.7,0.2,1.5,0.3,2.1c0.2,0.8,0.2,1.5,1,1.5c1,0,0.9-1,0.7-1.7
		c-0.2-1-0.2-1.7-0.4-2.7l-0.1-4.5c0-1.6,0.1-2.9,0.2-4.4l0.1-2.2c0.1-0.4,0.1-0.8-0.1-1c-0.4-0.6-1.7-0.9-1.7,1
		c0,1.2-0.2,2.4-0.2,3.6c0,0.5-0.1,0.7-0.1,1.2C226.6,152.7,226.5,153.3,226.5,154.2L226.5,154.2z"/>
</g>
</svg>
