<?xml version="1.0" encoding="utf-8"?>
<!-- Generator: Adobe Illustrator 19.2.0, SVG Export Plug-In . SVG Version: 6.00 Build 0)  -->
<svg version="1.1" xmlns="http://www.w3.org/2000/svg" xmlns:xlink="http://www.w3.org/1999/xlink" x="0px" y="0px"
	 viewBox="0 0 512 512" style="enable-background:new 0 0 512 512;" xml:space="preserve">
<style type="text/css">
	.st0{fill:#FFFFFF;}
</style>
<g id="Layer_1">
	<path class="st0" d="M192.2,235.9l0.3,0.3v-0.3C192.9,235.9,192.5,235.9,192.2,235.9z M333.6,215.9
		C333.6,215.9,333.6,216.2,333.6,215.9l0.3,1C334,216.9,334,216.6,333.6,215.9z M192.2,235.9l0.3,0.3v-0.3
		C192.9,235.9,192.5,235.9,192.2,235.9z M192.2,235.9l0.3,0.3v-0.3C192.9,235.9,192.5,235.9,192.2,235.9z M192.2,235.9l0.3,0.3v-0.3
		C192.9,235.9,192.5,235.9,192.2,235.9z"/>
	<path class="st0" d="M407.7,253.8c0,3,0,6.1-0.3,9.1c-4.7-79.2-70.4-141.8-150.9-141.8s-145.9,62.6-150.6,141.8
		c-0.3-3-0.3-6.1-0.3-9.1c0-83.6,67.7-151.3,151.3-151.3S407.7,170.2,407.7,253.8z"/>
	<path class="st0" d="M345.1,212.5c-5.8,1.7-9.5,4.1-11.8,6.4c0-1,0.3-1.7,0.7-2.7v-0.3c0.3-1.4,0.7-2.7,1-3.7l6.1-4.1
		c5.1,4.1,12.5,6.1,20.3,5.1c8.1-1,14.6-5.4,18.3-10.8c-5.1-4.1-12.5-6.4-20.6-5.1c-7.1,1-12.9,4.4-16.6,8.8c-2.4,1-4.7,2.4-6.8,4.1
		c5.4-15.2,15.6-25,26.1-23.7c5.1,0.7,9.8,4.1,12.9,9.1c-3.4-7.8-9.1-13.2-15.6-13.9c-11.5-1.4-23,11.2-27.7,29.1
		c-0.3-1-1-1.7-1.4-2.7l0,0c2.4-5.8,1.7-12.2-1.7-17.9c-3.4-5.4-9.5-8.8-15.6-8.8c-2.4,5.8-1.7,12.2,1.7,17.9
		c3,4.7,8.1,7.8,13.5,8.8l3,4.7c-0.7,2.4-1,4.7-1.4,7.1c-0.3,2.7-0.3,5.1-0.3,7.4v0.3c0,0-1-11.2-5.1-16.2
		c-27.4,2-50.1,20.3-58.5,45.3h-3.7l52.5-77.5l-9.1-6.4l-111.7,61.3c0,0.7-0.3,1.4-0.7,1.7v0.3l-0.3-0.3l-1.4-0.7l2-1.4
		c1-4.4-0.7-8.8-4.4-11.5c-3.7-2.7-8.5-3-12.5-1c0.3-2.7-1-5.4-3.4-7.4l-0.3-0.3c1-0.7,1.7-1.4,2.4-2.4c3.4-4.7,2.7-11.2-2-14.6
		c-4.1-3-9.5-2.7-13.2,0.3c0.7-2,0-4.4-2-6.1c-2.4-1.7-5.8-1.4-7.4,1c-1.7,2.4-1.4,5.8,1,7.4c1.7,1.4,4.4,1.4,6.1,0.3
		c-0.7,1-1,2-1,3c-0.3-0.3-0.7-0.7-1-0.7c-3-2.4-7.8-1.7-10.2,1.4c-0.7,1-1,2-1.4,3c0,0-0.3-0.3-0.7-0.3c-2.4-1.7-5.8-1.4-7.4,1
		c-0.7,0.7-1,1.7-1,2.7l-6.8-7.8l-6.8,3.7l16.9,12.9c-0.3,0.3-0.3,0.7-0.7,1c-2,2.7-2.7,6.1-2.4,9.5c-0.7-1-1.4-2.4-2.7-3
		c0,0,0,0-0.3-0.3c0.7-0.3,1-1,1.7-1.4c2-2.7,1.7-6.8-1.4-9.1c-2.7-2-6.8-1.7-9.1,1.4c-2,2.4-1.7,6.1,0.3,8.1
		c-1.4,0.7-2.7,1.7-3.7,3c-2.4,3.4-2.4,7.4,0,10.5c-2.4-1-5.1-0.3-6.4,1.7c-1.7,2.4-1.4,5.8,1,7.4c2,1.4,4.4,1.4,6.1,0.3
		c-1,2.7-0.3,5.8,2,7.8H112v60.9l58.5,92h172.2l58.5-92v-60.6h-8.5C385.4,234.5,367.5,217.9,345.1,212.5z M144.8,214.2
		c0.3-0.3,0.7-1,0.7-1.4c0.3,0.7,1,1,1.4,1.4c0.3,0.3,1,0.7,1.4,0.7c-3,0-6.1,0.7-8.5,2.7v-1.7C141.8,216.6,143.8,215.6,144.8,214.2
		z M131.3,244.7c-2.4-1.4-5.4-1-7.4,0.3c0.3-1.4,0.3-3-0.3-4.1c2.7,1.7,6.1,1.7,8.8,0.3C131.3,242.3,130.9,243.7,131.3,244.7z
		 M131.9,255.8c0.3-0.3,0.7-0.7,1-1c1-1,1.4-2.7,1.4-4.1c2,1.4,4.4,1.4,6.4,0.7c0,1.7,0.7,3,1.4,4.4H131.9z M160.7,251.8
		c0-1,0-2,0-2.7l0.3,0.3c1,0.7,2,1.4,3,1.7C163.1,251.1,161.7,251.4,160.7,251.8z M159,233.2c-2,2.7-2.7,6.4-2,9.5
		c-3.4-2.7-8.1-2.7-11.5-0.3c-0.3-1.4-1.4-2.7-2.4-3.7c-2-1.7-5.1-2-7.4-0.7c1-1.7,1.4-3.7,1.4-5.8c0.7,1.7,2,3.4,3.7,4.7
		c5.4,4.1,13.2,3,17.3-2.4c4.1-5.4,3-13.2-2.4-17.3c-1-0.7-2.4-1.4-3.4-1.7c2,0,4.1-1,5.4-2.7c0.3-0.7,0.7-1.4,1-2
		c0.7,1,1.4,2,2.4,2.7c0.7,0.3,1,0.7,1.7,1c-0.3,0.3-0.7,0.7-1,1.4c-2.7,3.7-2,9.1,1.7,11.8c0.7,0.7,1.4,1,2.4,1.4
		C162.7,229.8,160.7,231.1,159,233.2z M191.5,255.2c-0.3,0.3-0.3,0.7-0.7,1h-1.4c-0.3-2-1.7-3.7-3.4-5.1c-4.1-3-9.8-2.4-12.9,1.7
		c-0.7,0.7-1,1.4-1.4,2c-0.7-0.7-1-1.4-2-2c-0.7-0.3-1-0.7-1.7-1c3.4,0,6.8-1.7,8.8-4.7c1-1.4,1.7-2.7,2-4.4c1.7,0.3,3.7,0.3,5.4,0
		c-1,3.4,0.3,7.1,3.4,9.5c1.4,1,2.7,1.7,4.4,1.7C191.8,254.5,191.8,254.8,191.5,255.2z M280.8,191.9c1-1.7,3-2,4.7-1s2,3,1,4.7
		c-1,1.7-3,2-4.7,1S279.8,193.6,280.8,191.9z M268.7,216.2c1-1.7,3-2,4.7-1s2,3,1,4.7c-1,1.7-3,2-4.7,1
		C268,220,267.6,217.9,268.7,216.2z M212.8,255.8c-0.7-1.4-2-2.4-3-3.4c-2.4-2-5.4-2.7-8.5-2.7c1.4-2,1.7-4.7,1-7.1l19.6,13.2
		C222,255.8,212.8,255.8,212.8,255.8z M232.1,237.2c-1.4,2-4.1,2.7-6.1,1.4c-2-1.4-2.7-4.1-1.4-6.1c1.4-2,4.1-2.7,6.1-1.4
		C232.8,232.5,233.5,235.2,232.1,237.2z M247.3,255.8h-10.8c-1.4-2-1.4-5.1,0-7.4c2-3,6.1-3.7,9.1-1.7
		C248.4,248.7,249.4,252.8,247.3,255.8z M254.1,234.2c-1,1.7-3,2-4.7,1c-1.7-1-2-3-1-4.7c1-1.7,3-2,4.7-1
		C254.8,230.5,255.1,232.8,254.1,234.2z M257.5,244.7c-1.7-1-2-3-1-4.7c1-1.7,3-2,4.7-1c1.7,1,2,3,1,4.7
		C261.2,245.3,259.2,245.7,257.5,244.7z"/>
</g>
<g id="Capa_1">
	<g>
		<path class="st0" d="M256,13c32.9,0,64.9,6.4,95,19.2c29.1,12.3,55.1,29.9,77.6,52.3c22.4,22.4,40,48.5,52.3,77.6
			c12.7,30.1,19.2,62,19.2,95s-6.4,64.9-19.2,95c-12.3,29.1-29.9,55.1-52.3,77.6c-22.4,22.4-48.5,40-77.6,52.3
			c-30.1,12.7-62,19.2-95,19.2s-64.9-6.4-95-19.2c-29.1-12.3-55.1-29.9-77.6-52.3C61,407.1,43.5,381,31.2,352
			c-12.7-30.1-19.2-62-19.2-95s6.4-64.9,19.2-95C43.5,133,61,106.9,83.5,84.5c22.4-22.4,48.5-40,77.6-52.3C191.1,19.4,223,13,256,13
			 M256,1C114.6,1,0,115.6,0,257s114.6,256,256,256s256-114.6,256-256S397.4,1,256,1L256,1z"/>
	</g>
</g>
</svg>
