<?xml version="1.0" encoding="utf-8"?>
<!-- Generator: Adobe Illustrator 19.2.0, SVG Export Plug-In . SVG Version: 6.00 Build 0)  -->
<svg version="1.1" id="Capa_1" xmlns="http://www.w3.org/2000/svg" xmlns:xlink="http://www.w3.org/1999/xlink" x="0px" y="0px"
	 viewBox="0 0 512 512" style="enable-background:new 0 0 512 512;" xml:space="preserve">
<style type="text/css">
	.st0{fill:#FFFFFF;}
</style>
<g>
	<path class="st0" d="M405.7,186.6l-143.3-58.5c-4.9-2-10.4-2-15.3,0l-140.9,58.5c-3.8,1.6-6.2,5.2-6.2,9.3v21
		c0,5.6,4.5,10.1,10.1,10.1h7.5c1.4,0,2.5,1.1,2.5,2.5v133.4c0,12.5,10.1,22.6,22.6,22.6h6.6v-121h213.3v121h6.6
		c12.5,0,22.6-10.1,22.6-22.6V229.4c0-1.4,1.1-2.5,2.5-2.5h7.5c5.6,0,10.1-4.5,10.1-10.1v-20.9C412,191.8,409.5,188.2,405.7,186.6z
		 M200.6,226.9h-50.3v-22.6h50.3L200.6,226.9L200.6,226.9z M281.2,226.9h-50.3v-22.6h50.3V226.9z M361.7,226.9h-50.3v-22.6h50.3
		L361.7,226.9L361.7,226.9z M213.7,335.1h-14.3v19.8h-6.7v-19.8h-14.4c-5.2,0-9.4,4.2-9.4,9.4V376c0,5.2,4.2,9.4,9.4,9.4h35.4
		c5.2,0,9.4-4.2,9.4-9.4v-31.4C223.2,339.3,218.9,335.1,213.7,335.1z M273.7,335.1h-14.3v19.8h-6.7v-19.8h-14.4
		c-5.2,0-9.4,4.2-9.4,9.4V376c0,5.2,4.2,9.4,9.4,9.4h35.4c5.2,0,9.4-4.2,9.4-9.4v-31.4C283.2,339.3,278.9,335.1,273.7,335.1z
		 M334.8,335.1h-14.3v19.8h-6.7v-19.8h-14.4c-5.2,0-9.4,4.2-9.4,9.4V376c0,5.2,4.2,9.4,9.4,9.4h35.4c5.2,0,9.4-4.2,9.4-9.4v-31.4
		C344.3,339.3,340,335.1,334.8,335.1z M243.9,278.4h-14.3v19.8h-6.7v-19.8h-14.4c-5.2,0-9.4,4.2-9.4,9.4v31.4c0,5.2,4.2,9.4,9.4,9.4
		h35.4c5.2,0,9.4-4.2,9.4-9.4v-31.4C253.3,282.6,249.1,278.4,243.9,278.4z M305.3,278.4H291v19.8h-6.7v-19.8h-14.4
		c-5.2,0-9.4,4.2-9.4,9.4v31.4c0,5.2,4.2,9.4,9.4,9.4h35.4c5.2,0,9.4-4.2,9.4-9.4v-31.4C314.7,282.6,310.5,278.4,305.3,278.4z"/>
</g>
<g>
	<path class="st0" d="M257,13c32.9,0,64.9,6.4,95,19.2c29.1,12.3,55.1,29.9,77.6,52.3c22.4,22.4,40,48.5,52.3,77.6
		c12.7,30.1,19.2,62,19.2,95s-6.4,64.9-19.2,95c-12.3,29.1-29.9,55.1-52.3,77.6c-22.4,22.4-48.5,40-77.6,52.3
		c-30.1,12.7-62,19.2-95,19.2s-64.9-6.4-95-19.2c-29.1-12.3-55.1-29.9-77.6-52.3C62,407.1,44.5,381,32.2,352
		c-12.7-30.1-19.2-62-19.2-95s6.4-64.9,19.2-95C44.5,133,62,106.9,84.5,84.5c22.4-22.4,48.5-40,77.6-52.3C192.1,19.4,224,13,257,13
		 M257,1C115.6,1,1,115.6,1,257s114.6,256,256,256s256-114.6,256-256S398.4,1,257,1L257,1z"/>
</g>
</svg>
