<?xml version="1.0" encoding="utf-8"?>
<!-- Generator: Adobe Illustrator 19.2.0, SVG Export Plug-In . SVG Version: 6.00 Build 0)  -->
<svg version="1.1" id="Capa_1" xmlns="http://www.w3.org/2000/svg" xmlns:xlink="http://www.w3.org/1999/xlink" x="0px" y="0px"
	 viewBox="0 0 512 512" style="enable-background:new 0 0 512 512;" xml:space="preserve">
<style type="text/css">
	.st0{fill:#FFFFFF;}
</style>
<g>
	<path class="st0" d="M394,137.7c0-10.1-8.3-18.4-18.4-18.4H136.4c-10.1,0-18.4,8.3-18.4,18.4c0,8.6,5.9,15.7,13.8,17.7v223.4
		l13.8-13.8l27.6,27.6l27.6-27.6l27.6,27.6l27.6-27.6l27.6,27.6l27.6-27.6l27.6,27.6l27.6-27.6l13.8,13.8V155.5
		C388.1,153.4,394,146.3,394,137.7z M371,356.6l-4.6-4.6l-27.6,27.6L311.2,352l-27.6,27.6L256,352l-27.6,27.6L200.8,352l-27.6,27.6
		L145.6,352l-4.6,4.6V156.1v-13.8h230v13.8V356.6z M380.2,145.7v-12.6H131.8v12.6c-2.7-1.6-4.6-4.6-4.6-8c0-5.1,4.1-9.2,9.2-9.2
		h239.2c5.1,0,9.2,4.1,9.2,9.2C384.8,141.1,382.9,144.1,380.2,145.7z"/>
	<path class="st0" d="M320.4,303.3h-69c-2.5,0-4.6,2.1-4.6,4.6c0,2.5,2.1,4.6,4.6,4.6h69c2.5,0,4.6-2.1,4.6-4.6
		C325,305.4,322.9,303.3,320.4,303.3z"/>
	<path class="st0" d="M340.1,304.7c-0.8,0.9-1.3,2-1.3,3.3c0,1.2,0.5,2.4,1.3,3.3c0.9,0.8,2.1,1.3,3.3,1.3s2.4-0.5,3.3-1.3
		c0.8-0.9,1.3-2.1,1.3-3.3c0-1.2-0.5-2.4-1.3-3.3C344.9,303,341.9,303,340.1,304.7z"/>
	<path class="st0" d="M343.4,238.9h-69c-2.5,0-4.6,2.1-4.6,4.6c0,2.5,2.1,4.6,4.6,4.6h69c2.5,0,4.6-2.1,4.6-4.6
		C348,241,345.9,238.9,343.4,238.9z"/>
	<path class="st0" d="M343.4,271.1h-46c-2.5,0-4.6,2.1-4.6,4.6c0,2.5,2.1,4.6,4.6,4.6h46c2.5,0,4.6-2.1,4.6-4.6
		C348,273.2,345.9,271.1,343.4,271.1z"/>
	<path class="st0" d="M246.8,275.7c0,2.5,2.1,4.6,4.6,4.6h9.2c2.5,0,4.6-2.1,4.6-4.6c0-2.5-2.1-4.6-4.6-4.6h-9.2
		C248.9,271.1,246.8,273.2,246.8,275.7z"/>
	<path class="st0" d="M325,211.3c0-2.5-2.1-4.6-4.6-4.6h-69c-2.5,0-4.6,2.1-4.6,4.6s2.1,4.6,4.6,4.6h69
		C322.9,215.9,325,213.9,325,211.3z"/>
	<path class="st0" d="M340.1,208.1c-0.8,0.9-1.3,2-1.3,3.3c0,1.2,0.5,2.4,1.3,3.3c0.9,0.8,2.1,1.3,3.3,1.3c1.2,0,2.4-0.5,3.3-1.3
		c0.8-0.9,1.3-2.1,1.3-3.3c0-1.2-0.5-2.4-1.3-3.3C345,206.4,341.8,206.4,340.1,208.1z"/>
	<path class="st0" d="M259.3,246.8c0.8-0.9,1.3-2,1.3-3.3c0-1.2-0.5-2.4-1.3-3.3c-1.7-1.7-4.8-1.7-6.5,0c-0.8,0.9-1.3,2-1.3,3.3
		c0,1.2,0.5,2.4,1.3,3.3c0.9,0.8,2.1,1.3,3.3,1.3C257.2,248.1,258.4,247.6,259.3,246.8z"/>
	<path class="st0" d="M282.3,279c0.8-0.9,1.3-2,1.3-3.3c0-1.2-0.5-2.4-1.3-3.3c-1.7-1.7-4.8-1.7-6.5,0c-0.8,0.9-1.3,2.1-1.3,3.3
		c0,1.2,0.5,2.4,1.3,3.3c0.9,0.8,2.1,1.3,3.3,1.3C280.2,280.3,281.4,279.8,282.3,279z"/>
	<path class="st0" d="M196.2,216.4v-5.1c0-2.5-2.1-4.6-4.6-4.6s-4.6,2.1-4.6,4.6v5.1c-5,1-9.6,3.7-13,7.7c-2.8,3.3-4.1,7.6-3.7,12
		c0.5,4.5,2.8,8.7,6.4,11.5l10.3,8v25c-5.3-1.9-9.2-7-9.2-13c0-2.5-2.1-4.6-4.6-4.6s-4.6,2.1-4.6,4.6c0,11.1,7.9,20.4,18.4,22.5v4
		c0,2.5,2.1,4.6,4.6,4.6s4.6-2.1,4.6-4.6v-4.1c5-1,9.6-3.7,13-7.7c2.8-3.3,4.1-7.6,3.6-12c-0.5-4.5-2.8-8.7-6.4-11.4l-10.3-8v-25
		c5.3,1.9,9.2,7,9.2,13c0,2.5,2.1,4.6,4.6,4.6s4.6-2.1,4.6-4.6C214.6,227.8,206.7,218.6,196.2,216.4z M200.8,266.2
		c1.6,1.2,2.6,3.1,2.9,5.1c0.2,1.9-0.3,3.7-1.5,5.1c-1.6,1.9-3.7,3.2-5.9,4v-17.8L200.8,266.2z M182.4,240.3
		c-1.6-1.3-2.6-3.1-2.9-5.2c-0.2-1.9,0.3-3.7,1.5-5.1c1.6-1.9,3.7-3.2,5.9-4v17.8L182.4,240.3z"/>
	<circle class="st0" cx="302" cy="169.9" r="4.6"/>
	<circle class="st0" cx="283.6" cy="169.9" r="4.6"/>
	<circle class="st0" cx="320.4" cy="169.9" r="4.6"/>
	<circle class="st0" cx="265.2" cy="169.9" r="4.6"/>
	<circle class="st0" cx="338.8" cy="169.9" r="4.6"/>
	<circle class="st0" cx="210" cy="169.9" r="4.6"/>
	<circle class="st0" cx="228.4" cy="169.9" r="4.6"/>
	<circle class="st0" cx="246.8" cy="169.9" r="4.6"/>
	<circle class="st0" cx="357.2" cy="169.9" r="4.6"/>
	<circle class="st0" cx="191.6" cy="169.9" r="4.6"/>
	<circle class="st0" cx="173.2" cy="169.9" r="4.6"/>
	<circle class="st0" cx="154.8" cy="169.9" r="4.6"/>
</g>
<g>
	<path class="st0" d="M257,13c32.9,0,64.9,6.4,95,19.2c29.1,12.3,55.1,29.9,77.6,52.3c22.4,22.4,40,48.5,52.3,77.6
		c12.7,30.1,19.2,62,19.2,95s-6.4,64.9-19.2,95c-12.3,29.1-29.9,55.1-52.3,77.6c-22.4,22.4-48.5,40-77.6,52.3
		c-30.1,12.7-62,19.2-95,19.2s-64.9-6.4-95-19.2c-29.1-12.3-55.1-29.9-77.6-52.3C62,407.1,44.5,381,32.2,352
		c-12.7-30.1-19.2-62-19.2-95s6.4-64.9,19.2-95C44.5,133,62,106.9,84.5,84.5c22.4-22.4,48.5-40,77.6-52.3C192.1,19.4,224,13,257,13
		 M257,1C115.6,1,1,115.6,1,257s114.6,256,256,256s256-114.6,256-256S398.4,1,257,1L257,1z"/>
</g>
</svg>
