<?xml version="1.0" encoding="utf-8"?>
<!-- Generator: Adobe Illustrator 19.2.0, SVG Export Plug-In . SVG Version: 6.00 Build 0)  -->
<svg version="1.1" id="Capa_1" xmlns="http://www.w3.org/2000/svg" xmlns:xlink="http://www.w3.org/1999/xlink" x="0px" y="0px"
	 viewBox="0 0 512 512" style="enable-background:new 0 0 512 512;" xml:space="preserve">
<style type="text/css">
	.st0{fill:#FFFFFF;}
</style>
<g>
	<g>
		<path class="st0" d="M213.3,293.4c-15.2,0-27.5,12.4-27.5,27.6c0,15.2,12.3,27.5,27.5,27.5c15.2,0,27.5-12.4,27.5-27.5
			C240.8,305.8,228.5,293.4,213.3,293.4z M213.3,334.8c-7.6,0-13.8-6.2-13.8-13.8c0-7.6,6.2-13.8,13.8-13.8
			c7.6,0,13.8,6.2,13.8,13.8C227,328.6,220.9,334.8,213.3,334.8z M421,273v29.4c0,7.3-5.9,13.3-13.3,13.3h-14.2
			c-2.6-17.6-17.8-31.2-36.1-31.2c-18.3,0-33.5,13.6-36,31.2h-72c-2.6-17.6-17.8-31.2-36-31.2s-33.5,13.6-36,31.2h-17.8
			c-7.3,0-13.3-5.9-13.3-13.3V273L421,273L421,273z M357.5,293.4c-15.2,0-27.6,12.4-27.6,27.6c0,15.2,12.4,27.5,27.6,27.5
			c15.2,0,27.5-12.4,27.5-27.5C385,305.8,372.6,293.4,357.5,293.4z M357.5,334.8c-7.6,0-13.8-6.2-13.8-13.8
			c0-7.6,6.2-13.8,13.8-13.8c7.6,0,13.8,6.2,13.8,13.8C371.2,328.6,365,334.8,357.5,334.8z M415.8,243.4l-52.2-51.6
			c-3.3-3.3-7.8-5.1-12.4-5.1h-26.3v-9.9c0-7.4-5.9-13.3-13.3-13.3H159.4c-7.3,0-13.3,5.9-13.3,13.3v2.1l-53.9,6.2l95.5,12.4
			L91,207.1l96.4,13.7L91,229.2l55.2,10.4l0,26.1H421V256C421,251.2,419.1,246.7,415.8,243.4z M393,245.1h-50.5
			c-1.2,0-2.1-0.9-2.1-2.1v-39c0-1.2,0.9-2.1,2.1-2.1h9.6c0.5,0,1.1,0.2,1.5,0.6l40.9,39C395.8,242.8,394.9,245.1,393,245.1z"/>
	</g>
</g>
<g>
	<path class="st0" d="M256,12c32.9,0,64.9,6.4,95,19.2c29.1,12.3,55.1,29.9,77.6,52.3c22.4,22.4,40,48.5,52.3,77.6
		c12.7,30.1,19.2,62,19.2,95s-6.4,64.9-19.2,95c-12.3,29.1-29.9,55.1-52.3,77.6c-22.4,22.4-48.5,40-77.6,52.3
		c-30.1,12.7-62,19.2-95,19.2s-64.9-6.4-95-19.2c-29.1-12.3-55.1-29.9-77.6-52.3C61,406.1,43.5,380,31.2,351
		c-12.7-30.1-19.2-62-19.2-95s6.4-64.9,19.2-95C43.5,132,61,105.9,83.5,83.5c22.4-22.4,48.5-40,77.6-52.3C191.1,18.4,223,12,256,12
		 M256,0C114.6,0,0,114.6,0,256s114.6,256,256,256s256-114.6,256-256S397.4,0,256,0L256,0z"/>
</g>
</svg>
