<?xml version="1.0" encoding="utf-8"?>
<!-- Generator: Adobe Illustrator 19.2.0, SVG Export Plug-In . SVG Version: 6.00 Build 0)  -->
<svg version="1.1" xmlns="http://www.w3.org/2000/svg" xmlns:xlink="http://www.w3.org/1999/xlink" x="0px" y="0px"
	 viewBox="0 0 512 512" style="enable-background:new 0 0 512 512;" xml:space="preserve">
<style type="text/css">
	.st0{fill:#FFFFFF;}
</style>
<g id="Layer_1">
	<g>
		<path class="st0" d="M366.4,350.6V240.2H145.7v110.3c-15.8,0-15.8,7-15.8,15.8v15.8h94.6V271.8h63.1v110.3h94.6v-15.8
			C382.1,357.6,382.1,350.6,366.4,350.6z"/>
		<path class="st0" d="M366.4,129.9H145.7c-8.7,0-15.8,7-15.8,15.8v47.3c0,17.4,14.1,31.5,31.5,31.5s31.5-14.1,31.5-31.5
			c0,17.4,14.1,31.5,31.5,31.5s31.5-14.1,31.5-31.5c0,17.4,14.1,31.5,31.5,31.5c17.4,0,31.5-14.1,31.5-31.5
			c0,17.4,14.1,31.5,31.5,31.5c17.4,0,31.5-14.1,31.5-31.5v-47.3C382.1,136.9,375.1,129.9,366.4,129.9z"/>
	</g>
</g>
<g id="Capa_1">
	<g>
		<path class="st0" d="M257,13c32.9,0,64.9,6.4,95,19.2c29.1,12.3,55.1,29.9,77.6,52.3c22.4,22.4,40,48.5,52.3,77.6
			c12.7,30.1,19.2,62,19.2,95s-6.4,64.9-19.2,95c-12.3,29.1-29.9,55.1-52.3,77.6c-22.4,22.4-48.5,40-77.6,52.3
			c-30.1,12.7-62,19.2-95,19.2s-64.9-6.4-95-19.2c-29.1-12.3-55.1-29.9-77.6-52.3C62,407.1,44.5,381,32.2,352
			c-12.7-30.1-19.2-62-19.2-95s6.4-64.9,19.2-95C44.5,133,62,106.9,84.5,84.5c22.4-22.4,48.5-40,77.6-52.3C192.1,19.4,224,13,257,13
			 M257,1C115.6,1,1,115.6,1,257s114.6,256,256,256s256-114.6,256-256S398.4,1,257,1L257,1z"/>
	</g>
</g>
</svg>
