<?xml version="1.0" encoding="utf-8"?>
<!-- Generator: Adobe Illustrator 19.2.0, SVG Export Plug-In . SVG Version: 6.00 Build 0)  -->
<svg version="1.1" id="Capa_1" xmlns="http://www.w3.org/2000/svg" xmlns:xlink="http://www.w3.org/1999/xlink" x="0px" y="0px"
	 viewBox="0 0 512 512" style="enable-background:new 0 0 512 512;" xml:space="preserve">
<style type="text/css">
	.st0{fill:#FFFFFF;}
</style>
<g>
	<g>
		<path class="st0" d="M194.4,335.4h173.2V187.2H194.4V335.4z M282.1,202.2l62.7,54.4h-15.5v65.5h-36.6V276h-23.3v46.1h-34.4v-65.5
			h-16.1L282.1,202.2z"/>
		<polygon class="st0" points="175,151.1 175,116.7 136.7,116.7 136.7,395.3 175,395.3 175,168.3 375.3,168.3 375.3,151.1 		"/>
	</g>
</g>
<g>
	<path class="st0" d="M257,12c32.9,0,64.9,6.4,95,19.2c29.1,12.3,55.1,29.9,77.6,52.3c22.4,22.4,40,48.5,52.3,77.6
		c12.7,30.1,19.2,62,19.2,95s-6.4,64.9-19.2,95c-12.3,29.1-29.9,55.1-52.3,77.6c-22.4,22.4-48.5,40-77.6,52.3
		c-30.1,12.7-62,19.2-95,19.2s-64.9-6.4-95-19.2c-29.1-12.3-55.1-29.9-77.6-52.3C62,406.1,44.5,380,32.2,351
		c-12.7-30.1-19.2-62-19.2-95s6.4-64.9,19.2-95C44.5,132,62,105.9,84.5,83.5c22.4-22.4,48.5-40,77.6-52.3C192.1,18.4,224,12,257,12
		 M257,0C115.6,0,1,114.6,1,256s114.6,256,256,256s256-114.6,256-256S398.4,0,257,0L257,0z"/>
</g>
</svg>
