<?xml version="1.0" encoding="utf-8"?>
<!-- Generator: Adobe Illustrator 19.2.0, SVG Export Plug-In . SVG Version: 6.00 Build 0)  -->
<svg version="1.1" xmlns="http://www.w3.org/2000/svg" xmlns:xlink="http://www.w3.org/1999/xlink" x="0px" y="0px"
	 viewBox="0 0 512 512" style="enable-background:new 0 0 512 512;" xml:space="preserve">
<style type="text/css">
	.st0{fill:#FFFFFF;}
</style>
<g id="Layer_1">
	<g>
		<path class="st0" d="M350.8,143.3H165.2c-10.1,0-18.3,8.5-18.3,19.1V382c0,10.5,8.2,19.1,18.3,19.1h185.7
			c10.1,0,18.3-8.5,18.3-19.1V162.4C369.1,151.8,360.9,143.3,350.8,143.3z M353,373.2c0,0,0.5,4.4-1.6,6.7c-2.1,2.3-6,2-6,2
			L168.8,382c0,0-2.5,0-4.4-2.2c-1.6-1.9-1.6-5.9-1.6-5.9l0.1-204.9c0,0,0-3,1.8-4.7c1.9-1.8,4.7-1.9,4.7-1.9H346
			c0,0,3.3-0.1,4.9,1.5c2.1,2.2,2.1,4.5,2.1,4.5L353,373.2L353,373.2z"/>
		<path class="st0" d="M274.7,117.7c0,4.1-3.6,7.3-8.1,7.3h-16.3c-4.5,0-8.1-3.3-8.1-7.3l0,0c0-4,3.6-7.3,8.1-7.3h16.3
			C271,110.4,274.7,113.7,274.7,117.7L274.7,117.7z"/>
		<path class="st0" d="M293.3,133.6c0-4.2-0.4-11.3-3.9-11.3h-62.7c-3.2,0-4,7.1-4,11.3L293.3,133.6z"/>
		<path class="st0" d="M308.4,148.3c0-6.1-0.6-16.2-5.5-16.2h-89.6c-4.6,0-5.7,10.1-5.7,16.1L308.4,148.3z"/>
		<rect x="220.7" y="204.3" class="st0" width="103.1" height="9.2"/>
		<path class="st0" d="M188.3,237v22.9h22.9V237H188.3z M191.7,256.4v-16h16v16H191.7z"/>
		<rect x="220.7" y="247.8" class="st0" width="103.1" height="9.2"/>
		<rect x="220.7" y="289.6" class="st0" width="103.1" height="9.2"/>
		<rect x="220.7" y="330.3" class="st0" width="103.1" height="9.2"/>
		<path class="st0" d="M188.3,193.4v22.9h22.9v-22.9C211.2,193.4,188.3,193.4,188.3,193.4z M191.7,212.9v-16h16v16H191.7z"/>
		<path class="st0" d="M188.3,278.7v22.9h22.9v-22.9H188.3z M191.7,298.2v-16h16v16H191.7z"/>
		<path class="st0" d="M188.3,319.5v22.9h22.9v-22.9H188.3z M191.7,338.9v-16h16v16H191.7z"/>
	</g>
</g>
<g id="Capa_1">
	<g>
		<path class="st0" d="M256,12c32.9,0,64.9,6.4,95,19.2c29.1,12.3,55.1,29.9,77.6,52.3c22.4,22.4,40,48.5,52.3,77.6
			c12.7,30.1,19.2,62,19.2,95s-6.4,64.9-19.2,95c-12.3,29.1-29.9,55.1-52.3,77.6c-22.4,22.4-48.5,40-77.6,52.3
			c-30.1,12.7-62,19.2-95,19.2s-64.9-6.4-95-19.2c-29.1-12.3-55.1-29.9-77.6-52.3C61,406.1,43.5,380,31.2,351
			c-12.7-30.1-19.2-62-19.2-95s6.4-64.9,19.2-95C43.5,132,61,105.9,83.5,83.5c22.4-22.4,48.5-40,77.6-52.3C191.1,18.4,223,12,256,12
			 M256,0C114.6,0,0,114.6,0,256s114.6,256,256,256s256-114.6,256-256S397.4,0,256,0L256,0z"/>
	</g>
</g>
</svg>
