<?xml version="1.0" encoding="utf-8"?>
<!-- Generator: Adobe Illustrator 19.2.0, SVG Export Plug-In . SVG Version: 6.00 Build 0)  -->
<svg version="1.1" id="Layer_1" xmlns="http://www.w3.org/2000/svg" xmlns:xlink="http://www.w3.org/1999/xlink" x="0px" y="0px"
	 viewBox="0 0 100 125" style="enable-background:new 0 0 100 125;" xml:space="preserve">
<style type="text/css">
	.st0{fill:none;}
	.st1{fill:#FFFFFF;}
</style>
<g>
	<path class="st0" d="M30.8,77.1l0.6-1.3c-0.8,0.8-1.9,1.3-3,1.3c-1.1,0-2.2-0.5-3-1.4l0.9,2c-0.2-0.3-1-0.5-2-0.6
		c0.4,0.7,1.3,1.2,2.5,1.5l1.6,2.6l1.6-2.6c1.4-0.3,2.5-1.1,2.6-1.9C31.8,76.6,31,76.7,30.8,77.1z"/>
	<path class="st0" d="M50.1,48.3c2.4,0,4.5-2.7,4.8-6.1c-0.2,0.1-0.5,0.2-0.8,0.4c0,0,0.5-3.2-0.6-3.7c0,0-1.6,0.8-3.4,0.8
		c-1.8,0-3.4-0.8-3.4-0.8c-1.2,0.5-0.6,3.7-0.6,3.7c-0.3-0.2-0.6-0.3-0.8-0.4C45.6,45.6,47.6,48.3,50.1,48.3z"/>
	<path class="st0" d="M74,77.1l0.6-1.3c-0.8,0.8-1.9,1.3-3,1.3c-1.1,0-2.2-0.5-3-1.4l0.9,2c-0.2-0.3-1-0.5-2-0.6
		c0.4,0.7,1.3,1.2,2.5,1.5l1.6,2.6l1.6-2.6c1.4-0.3,2.5-1.1,2.6-1.9C75,76.6,74.2,76.7,74,77.1z"/>
	<path class="st1" d="M54.5,48.5c0,1.3-2,2.4-4.4,2.4c-2.4,0-4.3-1.1-4.4-2.4c-3.7,0.3-6.5,3.4-6.5,7.2c0,4,3.2,4,7.2,4h7.4
		c4,0,7.2,0,7.2-4C61,51.9,58.1,48.8,54.5,48.5z"/>
	<path class="st1" d="M44.6,42c0,0.1,0,0.1,0,0.2c0.3,3.9,2.7,7,5.4,7c2.8,0,5.1-3,5.4-7c0-0.1,0-0.1,0-0.2c0-0.2,0-0.3,0.1-0.5
		c0-0.1,0-0.2,0-0.4c0-0.3,0-0.6-0.1-0.9c-0.4-2.8-2.7-4.9-5.5-4.9s-5.1,2.1-5.5,4.9c0,0.3-0.1,0.6-0.1,0.9c0,0.1,0,0.2,0,0.4
		C44.6,41.6,44.6,41.8,44.6,42z M46.7,38.8c0,0,1.6,0.8,3.4,0.8c1.8,0,3.4-0.8,3.4-0.8c1.2,0.5,0.6,3.7,0.6,3.7
		c0.3-0.2,0.6-0.3,0.8-0.4c-0.3,3.4-2.3,6.1-4.8,6.1c-2.4,0-4.5-2.7-4.8-6.1c0.2,0.1,0.5,0.2,0.8,0.4C46.1,42.5,45.5,39.3,46.7,38.8
		z"/>
	<path class="st1" d="M33,75.6c0,1.3-2,2.4-4.4,2.4c-2.4,0-4.3-1.1-4.4-2.4c-3.7,0.3-6.5,3.4-6.5,7.2c0,4,3.2,4,7.2,4h7.4
		c4,0,7.2,0,7.2-4C39.5,79,36.6,75.9,33,75.6z"/>
	<path class="st1" d="M23.1,69c0,0.1,0,0.1,0,0.2c0.3,3.9,2.7,7,5.4,7c2.8,0,5.1-3,5.4-7c0-0.1,0-0.1,0-0.2c0-0.2,0-0.3,0.1-0.5
		c0-0.1,0-0.2,0-0.4c0-0.3,0-0.6-0.1-0.9c-0.4-2.8-2.7-4.9-5.5-4.9s-5.1,2.1-5.5,4.9c0,0.3-0.1,0.6-0.1,0.9c0,0.1,0,0.2,0,0.4
		C23.1,68.7,23.1,68.9,23.1,69z M25.2,65.9c0,0,1.6,0.8,3.4,0.8c1.8,0,3.4-0.8,3.4-0.8c1.2,0.5,0.6,3.7,0.6,3.7
		c0.3-0.2,0.6-0.3,0.8-0.4c-0.3,3.4-2.3,6.1-4.8,6.1s-4.5-2.7-4.8-6.1c0.2,0.1,0.5,0.2,0.8,0.4C24.6,69.6,24,66.4,25.2,65.9z"/>
	<path class="st1" d="M76.3,75.6c0,1.3-2,2.4-4.4,2.4c-2.4,0-4.3-1.1-4.4-2.4C63.9,75.9,61,79,61,82.7c0,4,3.2,4,7.2,4h7.4
		c4,0,7.2,0,7.2-4C82.9,79,80,75.9,76.3,75.6z"/>
	<path class="st1" d="M66.5,69c0,0.1,0,0.1,0,0.2c0.3,3.9,2.7,7,5.4,7c2.8,0,5.1-3,5.4-7c0-0.1,0-0.1,0-0.2c0-0.2,0-0.3,0.1-0.5
		c0-0.1,0-0.2,0-0.4c0-0.3,0-0.6-0.1-0.9c-0.4-2.8-2.7-4.9-5.5-4.9c-2.8,0-5.1,2.1-5.5,4.9c0,0.3-0.1,0.6-0.1,0.9c0,0.1,0,0.2,0,0.4
		C66.4,68.7,66.4,68.9,66.5,69z M68.5,65.9c0,0,1.6,0.8,3.4,0.8c1.8,0,3.4-0.8,3.4-0.8c1.2,0.5,0.6,3.7,0.6,3.7
		c0.3-0.2,0.6-0.3,0.8-0.4c-0.3,3.4-2.3,6.1-4.8,6.1s-4.5-2.7-4.8-6.1c0.2,0.1,0.5,0.2,0.8,0.4C67.9,69.6,67.4,66.4,68.5,65.9z"/>
	<polygon class="st1" points="51.8,62.4 48.3,62.4 48.3,71.1 40.7,75.5 42.5,78.6 50.1,74.2 57.7,78.6 59.4,75.5 51.8,71.1 	"/>
</g>
</svg>
