<?xml version="1.0" encoding="utf-8"?>
<!-- Generator: Adobe Illustrator 19.2.0, SVG Export Plug-In . SVG Version: 6.00 Build 0)  -->
<svg version="1.1" id="Layer_1" xmlns="http://www.w3.org/2000/svg" xmlns:xlink="http://www.w3.org/1999/xlink" x="0px" y="0px"
	 viewBox="0 0 359.3 206" style="enable-background:new 0 0 359.3 206;" xml:space="preserve">
<style type="text/css">
	.st0{fill:#FFFFFF;stroke:#FFFFFF;stroke-width:1.2766;}
</style>
<g>
	<path d="M79.9,70.4c0,0,43.1-12.7,99.7-12.7c56.6,0,99.7,12.7,99.7,12.7v0.2v64.3c0,0-43.1,13.5-99.7,13.5
		c-56.6,0-99.7-13.5-99.7-13.5V70.6V70.4z"/>
	<path class="st0" d="M140.2,117.3v3.8c0,2.1,2.9,2.8,2.9,2.8c0.5,0.2,2.6,0.2,2.6,0.2v1.1h-9.2H135c0,0-8.2,0.2-17.1-6.1
		c0,0-7.6-5.3-12.6-16.9c0,0,12.3,0.4,12.1-10c0,0,1-9.7-10.6-9.7c0,0-3.4,0-3.7,0.5v1v3.8v0.1v33.2c0,2.1,2.9,2.8,2.9,2.8
		c0.5,0.2,2.6,0.2,2.6,0.2v1.1h-9.2h-9.2v-1.1c0,0,2.1,0,2.6-0.2c0,0,2.9-0.6,2.9-2.8v-3.8v-0.1V84c0-2.1-2.9-2.8-2.9-2.8
		C92.2,81,90.1,81,90.1,81v-1.1h9.2h9.2c0,0,16.8-1.1,16.6,12c0,0,0.6,6.5-4.9,9.6c0,0-1.7,1.3-5.7,2.7c0,0,6.3,14.9,18.2,18v-4.9
		v-0.1V84c0-2.1-2.9-2.8-2.9-2.8c-0.5-0.2-2.6-0.2-2.6-0.2v-1.1h9.2h9.2V81c0,0-2.1,0-2.6,0.2c0,0-2.9,0.6-2.9,2.8V117.3
		L140.2,117.3z"/>
	<path class="st0" d="M219.8,103.9v17.2c0,2.1-2.9,2.8-2.9,2.8c-0.5,0.2-2.6,0.2-2.6,0.2v1.1h9.2h9.2v-1.1c0,0-2.1,0-2.6-0.2
		c0,0-2.9-0.6-2.9-2.8v-3.8v-0.1V84c0-2.1,2.9-2.8,2.9-2.8c0.5-0.2,2.6-0.2,2.6-0.2v-1.1h-9.2h-9.2V81c0,0,2.1,0,2.6,0.2
		c0,0,2.9,0.6,2.9,2.8v3.8l0,12.7h-20.1V84c0-2.1,2.9-2.8,2.9-2.8c0.5-0.2,2.6-0.2,2.6-0.2v-1.1H196h-9.2V81c0,0,2.1,0,2.6,0.2
		c0,0,2.9,0.6,2.9,2.8v33.4v0v3.8c0,2.1-2.9,2.8-2.9,2.8c-0.5,0.2-2.6,0.2-2.6,0.2v1.1h9.2h9.2v-1.1c0,0-2.1,0-2.6-0.2
		c0,0-2.9-0.6-2.9-2.8v-17.2H219.8z"/>
	<path class="st0" d="M186.5,115.9c-8,11-19,9.9-19,9.9c-23.2-1-22-23.2-22-23.2c1.6-23.9,23.4-22.9,23.4-22.9c6.5,0,10,2.2,10,2.2
		c1.2,0.6,2.1,0.5,2.1,0.5c2.2,0,2.8-2.5,2.8-2.5h1.1l0.9,14.7H185c0,0-2.5-12.6-15.8-12.6c0,0-15.3-1.5-16,20.6
		c0,0-1.5,18.7,16.6,20.6c0,0,8.4,0.5,15.6-7.8L186.5,115.9z"/>
	<path class="st0" d="M235.1,85.5c-0.6-0.5-1-1.3-1-2.1c0-1.5,1.2-2.7,2.7-2.7c1.2,0,2.3,0.8,2.6,1.9c0,0,0.5,1.5-0.2,4
		c0,0-0.2,1.2-1.7,3.1c-1.1,1.5-3.1,2.8-3.1,2.8l-0.6-0.7c0,0,2.3-1.2,2.6-4c0,0,0.2-1.2-0.7-1.8L235.1,85.5z"/>
	<path class="st0" d="M266.8,93.1h0.8l-0.5-13.2h-1.1c0,0-0.1,1.8-1.6,1.8c0,0-1.1,0.2-2.8-0.5c0,0-3.3-1.8-6.9-1.7
		c0,0-12.5-1-13.2,11.5c0,0-1.7,7.3,11.5,13.6c0,0,11.3,5.2,10.5,11.6c0,0,0.6,6.6-8,7.1c0,0-12,0.9-13.1-13.3l-0.1-0.1h-0.8
		l0.5,15.2h1.1c0,0,0-1.7,2-1.7c0,0,0.9-0.3,3.5,0.9c3,1.4,6.8,1.5,7.2,1.5c0,0,10.5,0.6,13.4-7.3c0,0,2.7-5.9-0.7-11
		c0,0-3-5-9.3-7.7c0,0-10.8-5.5-11.6-9.6c0,0-1.4-5.7,3.6-8c0,0,5.9-2.2,11.2,2.2C262.2,84.3,265.4,87.6,266.8,93.1z"/>
</g>
</svg>
