<?xml version="1.0" encoding="utf-8"?>
<!-- Generator: Adobe Illustrator 19.2.0, SVG Export Plug-In . SVG Version: 6.00 Build 0)  -->
<svg version="1.1" id="Capa_1" xmlns="http://www.w3.org/2000/svg" xmlns:xlink="http://www.w3.org/1999/xlink" x="0px" y="0px"
	 viewBox="0 0 512 512" style="enable-background:new 0 0 512 512;" xml:space="preserve">
<style type="text/css">
	.st0{fill:#CC1803;}
</style>
<g>
	<path class="st0" d="M376,200.7l-114.6-46.8c-3.9-1.6-8.3-1.6-12.2,0l-112.7,46.8c-3,1.3-5,4.2-5,7.4v16.8c0,4.5,3.6,8.1,8.1,8.1h6
		c1.1,0,2,0.9,2,2v106.7c0,10,8.1,18.1,18.1,18.1h5.3V263h170.6v96.8h5.3c10,0,18.1-8.1,18.1-18.1V234.9c0-1.1,0.9-2,2-2h6
		c4.5,0,8.1-3.6,8.1-8.1v-16.7C381,204.8,379,202,376,200.7z M211.9,232.9h-40.2v-18.1h40.2V232.9L211.9,232.9z M276.4,232.9h-40.2
		v-18.1h40.2V232.9z M340.8,232.9h-40.2v-18.1h40.2V232.9L340.8,232.9z M222.4,319.5h-11.4v15.8h-5.4v-15.8H194
		c-4.2,0-7.5,3.4-7.5,7.5v25.2c0,4.2,3.4,7.5,7.5,7.5h28.3c4.2,0,7.5-3.4,7.5-7.5v-25.1C230,322.8,226.5,319.5,222.4,319.5z
		 M270.4,319.5h-11.4v15.8h-5.4v-15.8H242c-4.2,0-7.5,3.4-7.5,7.5v25.2c0,4.2,3.4,7.5,7.5,7.5h28.3c4.2,0,7.5-3.4,7.5-7.5v-25.1
		C278,322.8,274.5,319.5,270.4,319.5z M319.2,319.5h-11.4v15.8h-5.4v-15.8h-11.5c-4.2,0-7.5,3.4-7.5,7.5v25.2c0,4.2,3.4,7.5,7.5,7.5
		h28.3c4.2,0,7.5-3.4,7.5-7.5v-25.1C326.8,322.8,323.4,319.5,319.2,319.5z M246.5,274.1h-11.4V290h-5.4v-15.8h-11.5
		c-4.2,0-7.5,3.4-7.5,7.5v25.1c0,4.2,3.4,7.5,7.5,7.5h28.3c4.2,0,7.5-3.4,7.5-7.5v-25.1C254,277.5,250.7,274.1,246.5,274.1z
		 M295.6,274.1h-11.4V290h-5.4v-15.8h-11.5c-4.2,0-7.5,3.4-7.5,7.5v25.1c0,4.2,3.4,7.5,7.5,7.5h28.3c4.2,0,7.5-3.4,7.5-7.5v-25.1
		C303.2,277.5,299.8,274.1,295.6,274.1z"/>
</g>
<g>
	<path class="st0" d="M257,61.8c26.3,0,51.9,5.1,76,15.4c23.3,9.8,44.1,23.9,62.1,41.8c17.9,17.9,32,38.8,41.8,62.1
		c10.2,24.1,15.4,49.6,15.4,76s-5.1,51.9-15.4,76c-9.8,23.3-23.9,44.1-41.8,62.1c-17.9,17.9-38.8,32-62.1,41.8
		c-24.1,10.2-49.6,15.4-76,15.4s-51.9-5.1-76-15.4c-23.3-9.8-44.1-23.9-62.1-41.8C101,377.1,87,356.2,77.2,333
		c-10.2-24.1-15.4-49.6-15.4-76s5.1-51.9,15.4-76c9.8-23.2,23.8-44.1,41.8-62c17.9-17.9,38.8-32,62.1-41.8
		C205.1,66.9,230.6,61.8,257,61.8 M257,52.2C143.9,52.2,52.2,143.9,52.2,257S143.9,461.8,257,461.8S461.8,370.1,461.8,257
		S370.1,52.2,257,52.2L257,52.2z"/>
</g>
</svg>
