<?xml version="1.0" encoding="utf-8"?>
<!-- Generator: Adobe Illustrator 19.2.0, SVG Export Plug-In . SVG Version: 6.00 Build 0)  -->
<svg version="1.1" id="Capa_1" xmlns="http://www.w3.org/2000/svg" xmlns:xlink="http://www.w3.org/1999/xlink" x="0px" y="0px"
	 viewBox="0 0 512 512" style="enable-background:new 0 0 512 512;" xml:space="preserve">
<style type="text/css">
	.st0{fill:#CC1803;}
</style>
<g>
	<g>
		<path class="st0" d="M206.9,319.5h138.6V201H206.9V319.5z M277.1,213l50.2,43.5h-12.4v52.4h-29.3V272h-18.6v36.9h-27.5v-52.4
			h-12.9L277.1,213z"/>
		<polygon class="st0" points="191.4,172.1 191.4,144.6 160.8,144.6 160.8,367.4 191.4,367.4 191.4,185.8 351.6,185.8 351.6,172.1 
					"/>
	</g>
</g>
<g>
	<path class="st0" d="M257,60.8c26.3,0,51.9,5.1,76,15.4c23.3,9.8,44.1,23.9,62.1,41.8c17.9,17.9,32,38.8,41.8,62.1
		c10.2,24.1,15.4,49.6,15.4,76s-5.1,51.9-15.4,76c-9.8,23.3-23.9,44.1-41.8,62.1c-17.9,17.9-38.8,32-62.1,41.8
		c-24.1,10.2-49.6,15.4-76,15.4s-51.9-5.1-76-15.4c-23.3-9.8-44.1-23.9-62.1-41.8C101,376.1,87,355.2,77.2,332
		c-10.2-24.1-15.4-49.6-15.4-76s5.1-51.9,15.4-76c9.8-23.2,23.8-44.1,41.8-62c17.9-17.9,38.8-32,62.1-41.8
		C205.1,65.9,230.6,60.8,257,60.8 M257,51.2C143.9,51.2,52.2,142.9,52.2,256S143.9,460.8,257,460.8S461.8,369.1,461.8,256
		S370.1,51.2,257,51.2L257,51.2z"/>
</g>
</svg>
