<?xml version="1.0" encoding="utf-8"?>
<!-- Generator: Adobe Illustrator 19.2.0, SVG Export Plug-In . SVG Version: 6.00 Build 0)  -->
<svg version="1.1" xmlns="http://www.w3.org/2000/svg" xmlns:xlink="http://www.w3.org/1999/xlink" x="0px" y="0px"
	 viewBox="0 0 512 512" style="enable-background:new 0 0 512 512;" xml:space="preserve">
<style type="text/css">
	.st0{fill:#08D974;}
	.st1{fill:#FFFFFF;}
</style>
<g id="Layer_1">
	<circle class="st0" cx="257" cy="257" r="218.5"/>
	<g id="Layer_1_1_">
		<g>
			<path class="st1" d="M344.5,331.9v-88.3H168v88.2c-12.6,0-12.6,5.6-12.6,12.6v12.6H231v-88.2h50.5v88.2h75.7v-12.6
				C357.1,337.5,357.1,331.9,344.5,331.9z"/>
			<path class="st1" d="M344.5,155.3H168c-7,0-12.6,5.6-12.6,12.6v37.8c0,13.9,11.3,25.2,25.2,25.2c13.9,0,25.2-11.3,25.2-25.2
				c0,13.9,11.3,25.2,25.2,25.2s25.2-11.3,25.2-25.2c0,13.9,11.3,25.2,25.2,25.2c13.9,0,25.2-11.3,25.2-25.2
				c0,13.9,11.3,25.2,25.2,25.2c13.9,0,25.2-11.3,25.2-25.2V168C357.1,160.9,351.5,155.3,344.5,155.3z"/>
		</g>
	</g>
	<g id="Capa_1">
		<g>
			<path class="st1" d="M257,61.8c26.3,0,51.9,5.1,76,15.4c23.3,9.8,44.1,23.9,62.1,41.8c17.9,17.9,32,38.8,41.8,62.1
				c10.2,24.1,15.4,49.6,15.4,76s-5.1,51.9-15.4,76c-9.8,23.3-23.9,44.1-41.8,62.1c-17.9,17.9-38.8,32-62.1,41.8
				c-24.1,10.2-49.6,15.4-76,15.4s-51.9-5.1-76-15.4c-23.3-9.8-44.1-23.9-62.1-41.8C101,377.1,87,356.2,77.2,333
				c-10.2-24.1-15.4-49.6-15.4-76s5.1-51.9,15.4-76c9.8-23.2,23.8-44.1,41.8-62c17.9-17.9,38.8-32,62.1-41.8
				C205.1,66.9,230.6,61.8,257,61.8 M257,52.2C143.9,52.2,52.2,143.9,52.2,257S143.9,461.8,257,461.8S461.8,370.1,461.8,257
				S370.1,52.2,257,52.2L257,52.2z"/>
		</g>
	</g>
</g>
<g id="Capa_1_1_">
</g>
</svg>
