<?xml version="1.0" encoding="utf-8"?>
<!-- Generator: Adobe Illustrator 19.2.0, SVG Export Plug-In . SVG Version: 6.00 Build 0)  -->
<svg version="1.1" id="Capa_1" xmlns="http://www.w3.org/2000/svg" xmlns:xlink="http://www.w3.org/1999/xlink" x="0px" y="0px"
	 viewBox="0 0 512 512" style="enable-background:new 0 0 512 512;" xml:space="preserve">
<style type="text/css">
	.st0{fill:#08D974;}
	.st1{fill:#FFFFFF;}
</style>
<circle class="st0" cx="256" cy="256" r="218.5"/>
<g>
	<g>
		<path class="st1" d="M375.8,200.5l-114.6-46.8c-3.9-1.6-8.3-1.6-12.2,0l-112.7,46.8c-3,1.3-5,4.2-5,7.4v16.8
			c0,4.5,3.6,8.1,8.1,8.1h6c1.1,0,2,0.9,2,2v106.7c0,10,8.1,18.1,18.1,18.1h5.3v-96.8h170.6v96.8h5.3c10,0,18.1-8.1,18.1-18.1V234.7
			c0-1.1,0.9-2,2-2h6c4.5,0,8.1-3.6,8.1-8.1v-16.7C380.8,204.6,378.8,201.8,375.8,200.5z M211.7,232.7h-40.2v-18.1h40.2V232.7
			L211.7,232.7z M276.2,232.7h-40.2v-18.1h40.2V232.7z M340.6,232.7h-40.2v-18.1h40.2V232.7L340.6,232.7z M222.2,319.3h-11.4v15.8
			h-5.4v-15.8h-11.5c-4.2,0-7.5,3.4-7.5,7.5V352c0,4.2,3.4,7.5,7.5,7.5h28.3c4.2,0,7.5-3.4,7.5-7.5v-25.1
			C229.8,322.6,226.3,319.3,222.2,319.3z M270.2,319.3h-11.4v15.8h-5.4v-15.8h-11.5c-4.2,0-7.5,3.4-7.5,7.5V352
			c0,4.2,3.4,7.5,7.5,7.5h28.3c4.2,0,7.5-3.4,7.5-7.5v-25.1C277.8,322.6,274.3,319.3,270.2,319.3z M319,319.3h-11.4v15.8h-5.4v-15.8
			h-11.5c-4.2,0-7.5,3.4-7.5,7.5V352c0,4.2,3.4,7.5,7.5,7.5H319c4.2,0,7.5-3.4,7.5-7.5v-25.1C326.6,322.6,323.2,319.3,319,319.3z
			 M246.3,273.9h-11.4v15.8h-5.4v-15.8H218c-4.2,0-7.5,3.4-7.5,7.5v25.1c0,4.2,3.4,7.5,7.5,7.5h28.3c4.2,0,7.5-3.4,7.5-7.5v-25.1
			C253.8,277.3,250.5,273.9,246.3,273.9z M295.4,273.9H284v15.8h-5.4v-15.8h-11.5c-4.2,0-7.5,3.4-7.5,7.5v25.1
			c0,4.2,3.4,7.5,7.5,7.5h28.3c4.2,0,7.5-3.4,7.5-7.5v-25.1C303,277.3,299.6,273.9,295.4,273.9z"/>
	</g>
	<g>
		<path class="st1" d="M375.8,200.5l-114.6-46.8c-3.9-1.6-8.3-1.6-12.2,0l-112.7,46.8c-3,1.3-5,4.2-5,7.4v16.8
			c0,4.5,3.6,8.1,8.1,8.1h6c1.1,0,2,0.9,2,2v106.7c0,10,8.1,18.1,18.1,18.1h5.3v-96.8h170.6v96.8h5.3c10,0,18.1-8.1,18.1-18.1V234.7
			c0-1.1,0.9-2,2-2h6c4.5,0,8.1-3.6,8.1-8.1v-16.7C380.8,204.6,378.8,201.8,375.8,200.5z M211.7,232.7h-40.2v-18.1h40.2V232.7
			L211.7,232.7z M276.2,232.7h-40.2v-18.1h40.2V232.7z M340.6,232.7h-40.2v-18.1h40.2V232.7L340.6,232.7z M222.2,319.3h-11.4v15.8
			h-5.4v-15.8h-11.5c-4.2,0-7.5,3.4-7.5,7.5V352c0,4.2,3.4,7.5,7.5,7.5h28.3c4.2,0,7.5-3.4,7.5-7.5v-25.1
			C229.8,322.6,226.3,319.3,222.2,319.3z M270.2,319.3h-11.4v15.8h-5.4v-15.8h-11.5c-4.2,0-7.5,3.4-7.5,7.5V352
			c0,4.2,3.4,7.5,7.5,7.5h28.3c4.2,0,7.5-3.4,7.5-7.5v-25.1C277.8,322.6,274.3,319.3,270.2,319.3z M319,319.3h-11.4v15.8h-5.4v-15.8
			h-11.5c-4.2,0-7.5,3.4-7.5,7.5V352c0,4.2,3.4,7.5,7.5,7.5H319c4.2,0,7.5-3.4,7.5-7.5v-25.1C326.6,322.6,323.2,319.3,319,319.3z
			 M246.3,273.9h-11.4v15.8h-5.4v-15.8H218c-4.2,0-7.5,3.4-7.5,7.5v25.1c0,4.2,3.4,7.5,7.5,7.5h28.3c4.2,0,7.5-3.4,7.5-7.5v-25.1
			C253.8,277.3,250.5,273.9,246.3,273.9z M295.4,273.9H284v15.8h-5.4v-15.8h-11.5c-4.2,0-7.5,3.4-7.5,7.5v25.1
			c0,4.2,3.4,7.5,7.5,7.5h28.3c4.2,0,7.5-3.4,7.5-7.5v-25.1C303,277.3,299.6,273.9,295.4,273.9z"/>
	</g>
</g>
<g>
	<path class="st1" d="M256.8,61.6c26.3,0,51.9,5.1,76,15.4c23.3,9.8,44.1,23.9,62.1,41.8c17.9,17.9,32,38.8,41.8,62.1
		c10.2,24.1,15.4,49.6,15.4,76s-5.1,51.9-15.4,76c-9.8,23.3-23.9,44.1-41.8,62.1c-17.9,17.9-38.8,32-62.1,41.8
		c-24.1,10.2-49.6,15.4-76,15.4c-26.4,0-51.9-5.1-76-15.4c-23.3-9.8-44.1-23.9-62.1-41.8c-17.9-18.1-31.9-39-41.8-62.2
		c-10.2-24.1-15.4-49.6-15.4-76c0-26.4,5.1-51.9,15.4-76c9.8-23.2,23.8-44.1,41.8-62c17.9-17.9,38.8-32,62.1-41.8
		C204.9,66.7,230.4,61.6,256.8,61.6 M256.8,52C143.7,52,52,143.7,52,256.8s91.7,204.8,204.8,204.8s204.8-91.7,204.8-204.8
		S369.9,52,256.8,52L256.8,52z"/>
</g>
</svg>
