<?xml version="1.0" encoding="utf-8"?>
<!-- Generator: Adobe Illustrator 19.2.0, SVG Export Plug-In . SVG Version: 6.00 Build 0)  -->
<svg version="1.1" xmlns="http://www.w3.org/2000/svg" xmlns:xlink="http://www.w3.org/1999/xlink" x="0px" y="0px"
	 viewBox="0 0 100 125" style="enable-background:new 0 0 100 125;" xml:space="preserve">
<style type="text/css">
	.st0{fill:#FFFFFF;}
</style>
<g id="Layer_1">
</g>
<g id="Isolation_Mode">
	<g>
		<path class="st0" d="M40.5,77.1c-4.1,0-8.1,0-12.3,0c0-2.8,0-5.6,0-8.5c0,0,0,0,0.1-0.1c0.1-0.1,0.2-0.1,0.3-0.1
			c3.9,0,7.9,0,11.9,0C40.5,71.3,40.5,74.1,40.5,77.1z"/>
		<path class="st0" d="M40.6,79.8c0,2.9,0,5.7,0,8.5c-4.1,0-8.1,0-12.3,0c-0.3-1.3-0.1-2.7-0.1-4.1c0-1.4,0-2.9,0-4.4
			C32.3,79.8,36.3,79.8,40.6,79.8z"/>
		<path class="st0" d="M43.2,88.3c0-2.9,0-5.6,0-8.5c4.1,0,8.1,0,12.3,0c0.3,1.3,0.1,2.7,0.1,4.1c0,1.4,0,2.9,0,4.4
			C51.5,88.3,47.5,88.3,43.2,88.3z"/>
		<path class="st0" d="M28.2,99.5c0-2.9,0-5.6,0-8.5c4.1,0,8.1,0,12.3,0c0.3,1.3,0.1,2.7,0.1,4.1c0,1.4,0,2.9,0,4.4
			C36.5,99.5,32.5,99.5,28.2,99.5z"/>
		<path class="st0" d="M55.5,99.6c-4.1,0-8.1,0-12.3,0c0-2.8,0-5.6,0-8.6c4-0.3,8.1,0,12.3-0.1C55.5,93.8,55.5,96.5,55.5,99.6z"/>
		<path class="st0" d="M70.5,99.6c-4.1,0-8.1,0-12.3,0c0-2.8,0-5.6,0-8.6c4-0.2,8.1,0,12.3-0.1C70.5,93.8,70.5,96.5,70.5,99.6z"/>
		<path class="st0" d="M49.3,40.8c2.2,1.9,2.5,2.5,1.6,3.4c-0.8,0.8-2.2,0.7-3-0.1C47.1,43.3,47.3,42.8,49.3,40.8z"/>
		<path class="st0" d="M82.9,42.8c-4.7-2.9-9.7-5.3-14.5-8c-4-2.2-7.9-4.4-12-6.4c-1.4-0.7-2.8-1.3-4.1-2.3
			c-1.1-0.9-2.6-1.3-4.1-0.2c-2.2,1.6-4.9,2.4-7.1,3.8c-3.8,2.4-7.9,4.1-11.7,6.5c-3.5,2.2-7.2,4.1-11,5.9c-1.5,0.7-2.2,1.6-2.1,3.2
			c0.1,1.8,0,3.7,0,5.6c1.4,0,2.5,0,3.8,0c0,16.3,0,32.4,0,48.5c1.7,0,3.3,0,4.9,0c0-2.7,0-5.3,0-7.8c0-8.1,0-16.2,0-24.3
			c0-1.8,0.6-3.4,1.8-4.9c1.9-2.2,4.1-3.2,7-2.8c0.5,0.1,1,0,1.6,0c10.7,0,21.4,0,32.1,0c1.1,0,2.2,0,3.2,0.7c2.5,1.8,4.3,4,4.3,7.5
			c-0.1,9.6,0,19.1,0,28.7c0,1,0,2,0,3.2c1.8-0.1,3.4,0.1,5.1-0.1c0-16.3,0-32.4,0-48.6c1.2,0,2.3,0,3.5,0c0-2.7,0-5.2,0-7.9
			C83.5,42.8,83.1,43,82.9,42.8z M64.6,47.4c-0.6,0.4-1.3,0.8-1.9,1.1c-0.3,0.1-0.6,0.3-0.8,0.5c0.6,0.4,1.2,0.7,1.7,1.3
			c0.4,0.5-0.1,1.2-0.7,0.9c-0.5-0.3-1.1-0.6-1.6-0.9c0,0.3,0,0.6,0,0.9c0,0.3,0.1,0.6,0,0.9c0,0.4-0.1,0.7-0.1,1.1
			c0,0.5-0.7,0.7-1,0.3c-0.3-0.5-0.2-1.3-0.3-1.9c0-0.6,0.1-1.4,0-1.9c0-0.1,0-0.1,0-0.2c-0.4-0.2-0.8-0.4-1.1-0.7
			c-0.1,1.5-0.4,3-0.6,4.5c-0.1,0.5-0.8,0.4-0.9,0c-0.3-0.9-0.2-1.9-0.1-2.8c0.1-0.8,0.1-1.7,0.2-2.5c0,0,0,0,0-0.1
			c-0.4-0.2-0.8-0.5-1.3-0.7c0,0,0,0,0,0c-0.6,0.6-1.6,0.7-2.3,0.2c-0.7-0.4-1.1-1.2-1-2c-0.6-0.3-1.1-0.6-1.6-1c0,0.6,0,1.3,0,1.9
			c0.7,0.3,1.2,1,1.2,1.8c0,0.8-0.5,1.5-1.2,1.9c0,0.3,0,0.5,0,0.8c0,0.3,0,0.6,0,1c0.6,0.1,1.3,0.4,1.8,0.7
			c0.9,0.4,1.9,0.8,2.8,1.2c0.8,0.4,0.2,1.7-0.6,1.4c-0.8-0.2-1.6-0.7-2.3-1c-0.5-0.2-1-0.5-1.5-0.8c-0.1,0-0.1-0.1-0.2-0.1
			c0,0.5,0,1,0,1.5c0.5,0.2,0.9,0.5,1.3,0.6c0.7,0.4,1.4,0.8,2.1,1.2c0.7,0.3,0.4,1.7-0.6,1.2c-0.6-0.3-1.3-0.7-1.9-1.1
			c-0.3-0.2-0.6-0.3-0.9-0.5c0,0.7,0,1.4-0.2,2.1c-0.2,0.6-1.1,0.5-1.1-0.1c0-0.6,0-1.2,0-1.8c-0.3,0.1-0.5,0.3-0.8,0.4
			c-0.3,0.2-0.5,0.4-0.8,0.5c-0.3,0.1-0.7,0.3-1,0.4c-0.4,0.3-1-0.3-0.7-0.7c0.3-0.5,1-0.9,1.5-1.2c0.5-0.3,1.3-0.6,1.7-1
			c0,0,0.1-0.1,0.1-0.1c0-0.4,0-0.9,0-1.3c-1.3,0.7-2.8,1.1-4.2,1.7c-0.5,0.2-0.8-0.5-0.5-0.8c0.6-0.7,1.5-1.1,2.3-1.5
			c0.7-0.4,1.5-0.7,2.2-1.1c0,0-0.1,0,0,0c0-0.5-0.2-1-0.2-1.5c0,0,0,0,0,0c0-0.3-1.2-1-1.2-1.9c0-0.8,0.7-1.6,1.4-1.9
			c0-0.6,0-1.3,0-1.9c-0.5,0.3-1.1,0.7-1.6,1c0.1,0.8-0.3,1.6-1,2C46,47.7,45,47.6,44.4,47c0,0,0,0,0,0c-0.4,0.2-0.8,0.5-1.3,0.7
			c0,0,0,0,0,0.1c0,0.8,0.1,1.7,0.1,2.5c0.1,0.9,0.1,1.9-0.1,2.8c-0.1,0.4-0.9,0.5-0.9,0c-0.2-1.5-0.5-3-0.6-4.5
			c-0.4,0.2-0.8,0.4-1.1,0.7c0,0.1,0,0.1,0,0.2c-0.1,0.5,0,1.3,0,1.9c0,0.6,0,1.4-0.3,1.9c-0.2,0.5-1,0.2-1-0.3
			c0-0.3-0.1-0.7-0.1-1.1c0-0.3,0-0.6,0-0.9c0-0.3,0-0.6,0-0.9c-0.5,0.3-1.1,0.6-1.6,0.9c-0.6,0.3-1.1-0.4-0.7-0.9
			c0.5-0.5,1.1-0.9,1.7-1.2c-0.3-0.2-0.5-0.4-0.8-0.5c-0.6-0.3-1.4-0.7-1.9-1.1c-0.9-0.6,0.2-1.6,0.8-1.2c0.7,0.4,1.4,0.8,2.1,1.2
			c0.3,0.2,0.8,0.5,1.2,0.8c0.4-0.3,0.9-0.5,1.3-0.8c-0.1,0-0.1-0.1-0.2-0.1c-0.5-0.3-1-0.6-1.4-0.9c-0.7-0.5-1.4-1-2-1.5
			c-0.6-0.6,0.2-1.8,0.9-1.2c0.8,0.6,1.6,1.2,2.4,1.8c0.5,0.3,1.1,0.7,1.5,1.2c0.3-0.2,0.6-0.3,0.8-0.5c0.2-0.1,0.4-0.3,0.7-0.4
			c-0.1-0.8,0.3-1.6,1-2c0.7-0.4,1.6-0.3,2.2,0.1c0.5-0.3,1.1-0.6,1.6-1C48,42.6,47.5,42.3,47,42c-0.6,0.5-1.5,0.6-2.2,0.2
			c-0.8-0.4-1.1-1.3-1-2.2c0,0,0,0,0,0c-0.4-0.2-0.8-0.5-1.3-0.7c0,0,0,0,0,0c-0.7,0.5-1.4,0.9-2.1,1.4c-0.7,0.5-1.6,1.1-2.5,1.3
			c-0.4,0.1-0.9-0.5-0.5-0.8c1.2-0.9,2.3-1.9,3.6-2.7c-0.4-0.2-0.8-0.4-1.1-0.7c0,0-0.1,0.1-0.2,0.1c-0.5,0.2-1.2,0.7-1.7,0.9
			c-0.5,0.3-1.2,0.7-1.8,0.7c-0.5,0-0.7-0.7-0.3-1c0.3-0.2,0.6-0.4,0.9-0.7c0.3-0.2,0.6-0.3,0.8-0.5c0.2-0.1,0.5-0.3,0.7-0.5
			c-0.5-0.3-1.1-0.6-1.6-0.9c-0.6-0.3-0.2-1.1,0.4-1c0.7,0.1,1.3,0.5,1.9,0.8c0-0.3,0.1-0.7,0-1c0-0.7-0.1-1.5,0-2.2
			c0.1-1.1,1.5-0.7,1.4,0.1c0,0.8,0,1.6,0,2.4c0,0.4,0,0.9-0.1,1.4c0.5,0.2,0.9,0.5,1.4,0.7c0-0.1,0-0.1,0-0.2c0-0.6,0-1.1,0.1-1.7
			c0.1-0.8,0.1-1.7,0.3-2.5c0.2-0.8,1.6-0.7,1.5,0.2c-0.1,1-0.3,2-0.4,3c0,0.6-0.1,1.3-0.3,1.9c0.3,0.2,0.6,0.3,0.8,0.5
			c0.2,0.1,0.4,0.2,0.7,0.4c0.6-0.5,1.5-0.5,2.2-0.1c0.7,0.4,1,1.2,1,1.9c0.5,0.3,1,0.6,1.6,0.9c0-0.6-0.1-1.2-0.1-1.8
			c-0.7-0.3-1.3-1-1.3-1.9c0-0.9,1.2-1.6,1.2-1.9c0,0,0,0,0,0c0-0.5,0.2-1,0.2-1.5c0,0,0.1,0,0.1,0c-0.7-0.4-1.5-0.7-2.2-1.1
			c-0.8-0.4-1.7-0.8-2.3-1.5c-0.3-0.3,0-1,0.5-0.8c1.4,0.6,2.8,1,4.2,1.7c0-0.4,0-0.9,0-1.3c-0.1,0-0.1-0.1-0.1-0.1
			c-0.4-0.4-1.2-0.7-1.7-1c-0.5-0.3-1.2-0.7-1.5-1.2c-0.3-0.4,0.3-1,0.7-0.7c0.3,0.2,0.7,0.3,1,0.4c0.3,0.1,0.5,0.3,0.8,0.5
			c0.2,0.1,0.5,0.3,0.8,0.4c0-0.6,0-1.2,0-1.8c0-0.6,0.9-0.7,1.1-0.1c0.2,0.6,0.2,1.4,0.2,2.1c0.3-0.1,0.6-0.3,0.9-0.5
			c0.6-0.4,1.3-0.8,1.9-1.1c1-0.4,1.4,1,0.6,1.2c-0.7,0.4-1.4,0.8-2.1,1.2c-0.4,0.2-0.8,0.5-1.3,0.6c0,0.5,0,1,0,1.5
			c0.1,0,0.1-0.1,0.2-0.1c0.5-0.2,1-0.5,1.5-0.8c0.8-0.3,1.5-0.7,2.3-1c0.8-0.3,1.4,1.1,0.6,1.4c-0.9,0.4-1.9,0.8-2.8,1.2
			c-0.5,0.3-1.2,0.6-1.8,0.7c0,0.3,0,0.6,0,1c0,0.3,0,0.5,0,0.8c0.7,0.3,1.2,1,1.2,1.9c0,0.8-0.5,1.5-1.2,1.8c0,0.6,0,1.2,0,1.8
			c0.5-0.3,1.1-0.6,1.6-0.9c-0.1-0.8,0.3-1.5,1-1.9c0.7-0.4,1.6-0.3,2.2,0.1c0.2-0.1,0.4-0.2,0.7-0.4c0.3-0.2,0.6-0.3,0.8-0.5
			c-0.2-0.6-0.3-1.3-0.3-1.9c-0.1-1-0.2-2-0.3-3c-0.1-0.9,1.3-1,1.5-0.2c0.2,0.8,0.2,1.7,0.3,2.5c0.1,0.6,0,1.1,0.1,1.7
			c0,0.1,0,0.2,0,0.2c0.5-0.2,0.9-0.5,1.4-0.7c-0.1-0.5-0.1-1-0.1-1.4c-0.1-0.8,0-1.6,0-2.4c-0.1-0.8,1.3-1.1,1.4-0.1
			c0.1,0.7,0,1.5,0,2.2c0,0.3,0,0.7,0,1c0.6-0.3,1.3-0.7,1.9-0.8c0.6-0.1,1,0.7,0.4,1c-0.5,0.3-1.1,0.6-1.6,0.9
			c0.2,0.2,0.5,0.3,0.7,0.5c0.3,0.2,0.6,0.3,0.8,0.5c0.3,0.2,0.6,0.5,0.9,0.7c0.4,0.3,0.3,1-0.3,1c-0.6,0-1.3-0.4-1.8-0.7
			c-0.5-0.3-1.2-0.8-1.7-1c-0.1,0-0.1,0-0.2-0.1c-0.4,0.2-0.8,0.4-1.1,0.7c1.3,0.8,2.4,1.8,3.6,2.8c0.4,0.3,0,0.9-0.5,0.8
			c-0.9-0.2-1.7-0.8-2.5-1.3c-0.7-0.5-1.4-0.9-2.1-1.4c0,0,0,0,0,0c-0.4,0.2-0.8,0.5-1.3,0.7c0,0,0,0,0,0c0.2,0.8-0.2,1.7-1,2.1
			c-0.7,0.4-1.6,0.3-2.2-0.2c-0.5,0.3-1.1,0.6-1.6,0.9c0.6,0.3,1.1,0.7,1.7,1c0.6-0.4,1.5-0.5,2.2-0.1c0.7,0.4,1.1,1.2,1,2
			c0.2,0.1,0.4,0.3,0.6,0.4c0.3,0.2,0.6,0.3,0.8,0.5c0.4-0.5,1-0.9,1.5-1.2c0.8-0.6,1.6-1.2,2.4-1.8c0.7-0.5,1.6,0.6,0.9,1.2
			c-0.6,0.6-1.3,1-2,1.5c-0.4,0.3-1,0.6-1.4,0.9c-0.1,0-0.1,0.1-0.2,0.1c0.4,0.3,0.9,0.5,1.3,0.8c0.4-0.3,0.9-0.6,1.2-0.8
			c0.7-0.5,1.4-0.8,2.1-1.2C64.5,45.7,65.5,46.7,64.6,47.4z"/>
	</g>
</g>
</svg>
