<?xml version="1.0" encoding="utf-8"?>
<!-- Generator: Adobe Illustrator 19.2.0, SVG Export Plug-In . SVG Version: 6.00 Build 0)  -->
<svg version="1.1" id="Layer_1" xmlns="http://www.w3.org/2000/svg" xmlns:xlink="http://www.w3.org/1999/xlink" x="0px" y="0px"
	 viewBox="0 0 100 125" style="enable-background:new 0 0 100 125;" xml:space="preserve">
<style type="text/css">
	.st0{fill:#FFFFFF;}
	.st1{fill:#FFFFFF;stroke:#FFFFFF;stroke-miterlimit:10;}
	.st2{fill:#FFFFFF;stroke:#FFFFFF;stroke-width:0.6701;stroke-linecap:round;stroke-linejoin:round;stroke-miterlimit:10;}
</style>
<g>
	<path class="st0" d="M50,78.5c-3.2,0-6.4,0-9.5,0c-1.4,0-2-0.6-2.1-1.8c-0.2-4-0.2-8,0-12c0.1-1.2,0.6-1.8,1.9-1.8
		c6.4,0,12.8,0.1,19.3,0c1.4,0,2,0.7,2.1,1.8c0.1,4,0.1,8,0,12.1c0,1.3-0.8,1.8-2.1,1.8C56.4,78.5,53.2,78.5,50,78.5z"/>
	<path class="st0" d="M42.4,54c0-4.3,3.4-7.6,7.7-7.5c4.1,0,7.5,3.5,7.5,7.6s-3.6,7.7-7.7,7.7C45.8,61.7,42.4,58.3,42.4,54z"/>
</g>
<g>
	<path class="st1" d="M56.6,31.4c1,0.6,2.4,0.6,3.2,1.7c0.4,0.5,0.8,1,0.8,1.7c-0.9,0.8-1.9,0.7-2.9,0.4c-1.5-0.5-2.6-1.7-3.7-2.8
		c-0.6-0.6,0.1-0.7,0.3-1C55,31.4,55.8,31.4,56.6,31.4z"/>
	<path class="st1" d="M45.5,31.4c0.3,0.2,0.7,0.3,1,0.5c-1.8,2.6-5,4.6-6.9,2.8c0.4-2.4,2.4-2.7,4.2-3.3
		C44.4,31.4,45,31.4,45.5,31.4z"/>
	<path class="st1" d="M16.7,60.9c0.2-0.3,0.3-0.7,0.6-1.2c1.6,1.7,3.4,3.1,3.3,5.7c0,0.5-0.1,1.2-0.7,1.4c-0.6,0.2-1-0.3-1.5-0.6
		c-1-0.7-1.2-1.9-1.7-2.9C16.7,62.4,16.7,61.6,16.7,60.9z"/>
	<path class="st1" d="M16.7,67.9c1.6,0.4,2.9,1.2,4.1,2.3c1,0.9,1.4,2.1,1,3.5c-1.7,0.3-2.8-0.6-3.7-1.9c-0.8-1.1-0.7-2.5-1.5-3.6
		C16.7,68.1,16.7,68,16.7,67.9z"/>
	<path class="st1" d="M30,78.5c2,1.4,3.7,2.8,3.7,5.3c0,0.6-0.1,1.5-0.8,1.7s-1.3-0.3-1.7-0.8C29.8,82.9,29.8,80.9,30,78.5z"/>
	<path class="st1" d="M50,93.6c-1.7,0-2.9-0.8-2.8-2c0.2-1.6,1.6-1.8,2.8-1.8c1.6-0.1,2.8,0.8,2.8,1.9C52.9,92.9,51.8,93.6,50,93.6z
		"/>
	<path class="st1" d="M64.1,90.9c-3.1,2-5.7,1.9-7.5-0.3C58,88.4,60.6,88.5,64.1,90.9z"/>
	<path class="st1" d="M36.1,90.9c2.9-2.3,5.9-2.4,7.4-0.4C41.9,92.8,38.9,92.9,36.1,90.9z"/>
	<path class="st1" d="M72.1,81.4c-1.8-2-1.4-4.9,1.1-7.4C74.9,77.2,74.5,80.4,72.1,81.4z"/>
	<path class="st1" d="M79.3,59.4c0,1.1,0.5,2.3-0.3,3.3c-2.8-0.8-4-3.3-3.2-6.8C77.3,56.6,78.2,58.2,79.3,59.4L79.3,59.4z"/>
	<path class="st1" d="M21.7,53c-1.7,0-2.5-0.9-2.5-2.7s0.7-3.3,1.9-4.8C22.6,48.1,22.8,50.5,21.7,53L21.7,53z"/>
	<path class="st1" d="M38.8,32c-1.1,2.4-1.7,4.6-4.2,5.4c-0.5,0.2-1.1,0.4-1.5-0.1s-0.2-1.1-0.1-1.6c0.5-1.6,1.8-2.4,3.3-3
		C37,32.6,37.7,32.4,38.8,32z"/>
	<path class="st1" d="M59.7,85c-0.6,2-1.6,3.5-3.2,4.5c-0.8,0.5-1.9,1-2.6,0.2c-0.7-0.7,0-1.7,0.5-2.4C55.8,85.7,57.6,85.2,59.7,85z
		"/>
	<path class="st1" d="M60.2,88.2c-0.4-2.9,1.1-4.5,4.9-5.7C65.2,85.7,62.9,88.3,60.2,88.2z"/>
	<path class="st1" d="M29.5,87.6c3.6-1.7,6.9-1.5,7.6,0.8C35.2,90.3,32.7,90.1,29.5,87.6z"/>
	<path class="st1" d="M34.1,42c-1.6,1.8-3.1,3.2-5.5,3c-0.7-0.1-1.5-0.1-1.7-0.8c-0.2-0.8,0.4-1.3,1.1-1.7
		C29.8,41.3,31.8,41.5,34.1,42z"/>
	<path class="st1" d="M19.4,75.1c2.2,0.4,4,0.9,5.4,2.5c0.6,0.6,1.2,1.6,0.6,2.4c-0.5,0.7-1.5,0.4-2.3,0
		C21.1,79.1,20.3,77.2,19.4,75.1z"/>
	<path class="st1" d="M76.2,75.7c-2.3-1.8-2.4-4.2-0.5-7.4C77.9,70.5,78.2,73.9,76.2,75.7z"/>
	<path class="st1" d="M23.4,81.8c4.5-0.3,6.3,0.5,6.8,3.1C27.8,86.2,25.2,85.1,23.4,81.8z"/>
	<path class="st1" d="M29.9,45.9c-1.4,2.3-2.5,4.3-5.3,4.2c-0.5,0-1.1,0.1-1.3-0.5c-0.2-0.6,0.1-1.1,0.4-1.5
		C25.3,46.3,27.3,45.8,29.9,45.9z"/>
	<path class="st1" d="M78.2,73.8c-0.4-2.6,1.6-5,4.8-5.7C82.9,71.8,81.1,73.9,78.2,73.8z"/>
	<path class="st1" d="M40,88.1c-2.6,0.3-4.8-2.1-5.1-5.6C38.6,83.4,40.2,85.2,40,88.1z"/>
	<path class="st1" d="M73.7,50.6c4.3,1.4,5.8,2.9,5.4,5.3C76.4,56.4,74.3,54.4,73.7,50.6z"/>
	<path class="st1" d="M63.1,88.4c0.9-2.4,4.3-2.5,7.5-0.9C68.1,90,65.3,90.3,63.1,88.4z"/>
	<path class="st1" d="M79.3,59.4c-0.1-2.7,1-4.8,3.1-6.6c0.7,1.8,0.8,3.6,0.1,5.3C81.8,59.9,80.6,60.3,79.3,59.4L79.3,59.4z"/>
	<path class="st1" d="M31.5,35.2c0.1,3.8-1.2,6-3.6,6.5C26.4,39.4,28,36.5,31.5,35.2z"/>
	<path class="st1" d="M40.5,85.2c3.3-0.2,5.9,1.8,5.8,4.6C43.8,90.4,41.5,88.6,40.5,85.2z"/>
	<path class="st1" d="M82.8,59.8c0.9,2.4,0.4,5.2-1.1,6.4c-1.3,1-2,0.7-2.2-0.9C79.3,64,80,63,80.6,62
		C81.2,61.2,81.9,60.4,82.8,59.8z"/>
	<path class="st1" d="M69.8,84.9c0.8-2.6,2.7-3.4,6.8-3C75.4,84.8,72.4,86.2,69.8,84.9z"/>
	<path class="st1" d="M21.3,62.7c-1.3-2.2-0.1-4.8,3.1-6.7C25.3,58.5,24.1,62.6,21.3,62.7z"/>
	<path class="st1" d="M79,45.3c1.2,2.1,2.4,3.8,1.8,6c-0.2,0.8-0.4,1.8-1.4,1.7c-0.9-0.1-1.4-1-1.5-1.9c-0.2-1.3,0-2.6,0.5-3.9
		C78.5,46.7,78.7,46.2,79,45.3z"/>
	<path class="st1" d="M25.6,39.8c1.3,2.9,0.5,6-1.9,7.1C21.9,44.9,22.7,42,25.6,39.8z"/>
	<path class="st1" d="M21.7,53C21.7,53,21.7,53.1,21.7,53c1.3-1,2.8-2,4.8-2.3c-0.5,2.1-1.2,3.9-3.1,5c-0.7,0.4-1.6,0.7-2.2,0.2
		c-0.7-0.6-0.1-1.4,0.2-2.1C21.4,53.5,21.6,53.3,21.7,53z"/>
	<path class="st1" d="M31.2,39.6c1.7-2,4.2-2,7.5,0C36.3,41.8,32.5,41.9,31.2,39.6z"/>
	<path class="st1" d="M68.9,39.7c-1.3,2.3-5.1,1.9-7.5-0.1C64.8,37.5,67.6,37.6,68.9,39.7z"/>
	<path class="st1" d="M70.1,78.6c0.3,2.1,0.2,3.8-0.6,5.4c-0.5,0.9-1.2,2-2.3,1.5c-1-0.4-0.9-1.6-0.6-2.7
		C67.1,80.9,68.4,79.7,70.1,78.6z"/>
	<path class="st1" d="M61.4,32.2c1.8,0.2,3,0.7,4.1,1.5c0.7,0.5,1.2,1.1,1.6,1.9c0.2,0.6,0.4,1.3,0,1.7c-0.4,0.6-1.1,0.3-1.7,0.1
		C63,36.6,62.5,34.4,61.4,32.2z"/>
	<path class="st1" d="M24.4,68c0.9,1.6,1.5,3.1,1.3,4.8c0,0.6-0.2,1.2-0.5,1.7s-0.7,1.2-1.3,1.1c-0.7-0.1-1-0.9-1.1-1.5
		C22.5,71.9,23,69.9,24.4,68z"/>
	<path class="st1" d="M76.2,62.3c1.6,1.5,3.2,2.9,3.2,5.4c0,0.6,0,1.2-0.6,1.4c-0.6,0.3-1.1-0.2-1.5-0.5c-1.3-1-1.6-2.4-1.6-4
		c0-0.7,0-1.4,0-2.1C75.9,62.4,76.1,62.3,76.2,62.3z"/>
	<path class="st1" d="M17.8,53.1c2.1,1.3,3.4,4.1,2.9,6c-0.3,1.1-0.9,1.3-1.8,0.6C17.3,58.5,16.8,55.9,17.8,53.1z"/>
	<path class="st1" d="M80.7,75.1c-0.8,2.2-1.6,4.1-3.7,4.9c-0.7,0.3-1.6,0.6-2.1-0.1s-0.1-1.5,0.4-2.2
		C76.5,76.1,78.4,75.6,80.7,75.1z"/>
	<path class="st1" d="M28,81.4c-2.3-1.1-2.7-4.4-1.1-7.4C29.4,76.5,29.8,79.3,28,81.4z"/>
	<path class="st1" d="M44.5,38.8c-4,0.9-6.1,0.2-7.2-2.3C39,34.8,41.8,35.7,44.5,38.8z"/>
	<path class="st1" d="M70.3,45.9c2.4,0,4.4,0.4,6,2c0.4,0.4,0.8,1,0.6,1.7c-0.3,0.8-1,0.6-1.6,0.5C72.7,49.9,71.6,48.1,70.3,45.9z"
		/>
	<path class="st1" d="M76.6,47c-2.5-1.1-3.3-3.9-2.1-7.2C77.3,41.7,78.1,44.5,76.6,47z"/>
	<path class="st1" d="M68.8,35.2c3.4,1.5,4.8,3.9,3.6,6.4C69.8,41.2,68.5,39,68.8,35.2z"/>
	<path class="st1" d="M55.5,38.9c1.6-1.7,3.1-2.9,5.1-3.3c0.8-0.1,1.7-0.1,2.1,0.7c0.4,0.8-0.4,1.5-1,1.9
		C59.9,39.6,57.9,39.2,55.5,38.9z"/>
	<path class="st1" d="M24.3,62c0.1,2.2,0.6,4.3-0.9,6.1c-0.5,0.6-1.1,1.3-1.9,1s-0.8-1.3-0.7-2C21.1,64.9,22.4,63.5,24.3,62z"/>
	<path class="st1" d="M73.4,44.3c-2.1,1.9-5.9,0.1-7.1-2.2C70.2,41.1,72.5,41.8,73.4,44.3z"/>
	<path class="st2" d="M26.9,73.8c0.1,0.6,0.2,1.2,0.3,1.8"/>
	<path class="st2" d="M24.4,68.1c-0.1,0.6-0.1,1.2-0.2,1.8"/>
	<path class="st2" d="M70.8,87.5c-0.6,0.1-1.2,0.2-1.8,0.3"/>
	<path class="st2" d="M29.3,87.5c0.6,0.1,1.2,0.2,1.8,0.3"/>
	<path class="st2" d="M34,42.1c-0.6,0.2-1.2,0.3-1.8,0.5"/>
	<path class="st2" d="M25.6,39.6c-0.2,0.6-0.3,1.1-0.5,1.7"/>
	<path class="st2" d="M82.4,53c-0.1,0.6-0.6,1.1-0.5,1.8"/>
	<path class="st2" d="M79,45.6c0.1,0.6,0.1,1.2,0.2,1.8"/>
	<path class="st2" d="M24.3,62c-0.3,0.7-0.6,1.3-0.8,2"/>
	<path class="st2" d="M75.9,68.1c0,0.6,0,1.2,0,1.8"/>
	<path class="st2" d="M21.1,45.6c-0.1,0.6-0.1,1.2-0.2,1.8"/>
	<path class="st2" d="M39,39.6c-0.7,0.1-1.3,0.1-2,0.2"/>
	<path class="st2" d="M66.1,41.9c0.7,0.3,1.3,0.6,2,0.8"/>
	<path class="st2" d="M76.2,72.9c0.2,0,0.4-0.1,0.7-0.1"/>
	<path class="st2" d="M67.6,83.6c-0.2,0-0.3-0.1-0.5-0.1"/>
	<path class="st2" d="M80.7,64.9c-0.2,0-0.3-0.1-0.5-0.1"/>
</g>
</svg>
