<?xml version="1.0" encoding="utf-8"?>
<!-- Generator: Adobe Illustrator 19.2.0, SVG Export Plug-In . SVG Version: 6.00 Build 0)  -->
<svg version="1.1" id="Layer_1" xmlns="http://www.w3.org/2000/svg" xmlns:xlink="http://www.w3.org/1999/xlink" x="0px" y="0px"
	 viewBox="0 0 359 206" style="enable-background:new 0 0 359 206;" xml:space="preserve">
<style type="text/css">
	.st0{fill:#5B5B5B;}
	.st1{fill:#8C8C8C;}
</style>
<g>
	<path class="st0" d="M101.1,139.6c-2.8,0-5.6,0-8.4,0c-0.5-1.3-1-2.6-1.5-3.9c-0.8-2.2-1.7-4.4-2.5-6.6c-0.9-2.3-1.6-4.6-2.5-6.8
		c-0.8-2.1-1.6-4.1-2.4-6.2c-0.5-1.2-0.9-2.4-1.4-3.6c-0.7-1.9-1.4-3.8-2.1-5.8c-0.1-0.1,0-0.3,0-0.6c2.6,0,5.2,0,7.9,0
		c3,8.7,5.6,17.6,8.6,26.5c0.3-0.7,0.8-1.3,0.8-1.9c0.1-1.5,0.9-2.7,1.1-4.1c0.3-1.3,1-2.5,1.2-3.8c0.4-1.8,1-3.5,1.5-5.3
		c0.6-2.1,1.5-4.1,1.9-6.2c0.3-1.6,1.2-2.9,1.2-4.6c0-0.2,0.3-0.4,0.4-0.6c2.2,0,4.4,0,6.8,0c0.1,0.2,0.3,0.6,0.5,0.9
		c0.1-0.1,0.1-0.1,0.2-0.2c2.8,8.6,5.5,17.2,8.3,25.8c0.6-1.8,1.4-3.6,1.8-5.4c0.7-2.7,1.7-5.3,2.3-8c0.2-1.1,0.6-2.2,1-3.2
		c0.5-1.2,0.7-2.4,1.1-3.6c0.4-1.1,0.8-2.2,1.1-3.4c0.2-1,0.7-2,1.1-3c2.4,0,4.8,0,7.3,0c-3.8,11.2-7.6,22.3-11.5,33.5
		c-2.8,0-5.6,0-8.3,0c-1.4-3.8-2.8-7.5-4.1-11.3c-1.3-3.7-2.7-7.4-3.9-11.4C106.2,124.6,103.6,132,101.1,139.6z"/>
	<path class="st0" d="M130.7,72.8c-6,0-11.7,0-17.6,0c0-2.3,0-4.4,0-6.6c9.4,0,18.8,0,28.2,0c0,2.2,0,4.4,0,6.8
		c-1.7,1.9-3.6,4-5.4,6.1c-1.5,1.8-3.1,3.6-4.7,5.4c-0.9,1.1-2,2.1-2.9,3.2c-1.6,2-3.3,4-5.3,6c6.2,0,12.2,0,18.3,0c0,2.4,0,4.6,0,7
		c-0.4,0-0.9,0-1.3,0c-8.5,0-17,0-25.5,0c-0.7,0-1.4-0.2-2.1-0.3c0-2.2,0-4.3,0-6.6c1.8-2,3.7-4,5.5-6.2c1.6-1.9,3.2-3.7,4.8-5.5
		c1.7-1.9,3.3-3.8,4.9-5.6c0.9-1,1.7-2,2.6-2.9C130.5,73.4,130.5,73.2,130.7,72.8z"/>
	<path class="st1" d="M186.8,75.2c0-2.7,0-5.3,0-8c2.2,0,4.4,0,6.6,0c0,11.1,0,22.2,0,33.4c-2,0-4.1,0-6.2,0
		c-0.1-0.1-0.2-0.2-0.4-0.4c0-0.6,0-1.2,0-1.8c-0.4-0.1-0.5,0.3-0.7,0.4s-0.3,0.3-0.5,0.5c-0.9,1-2.1,1.4-3.4,1.5
		c-0.5,0-1.1,0.3-1.6,0.3c-1.5,0.2-5.7-0.9-6.9-1.8c-0.7-0.5-1.3-1.1-2-1.6c-0.2-0.2-0.5-0.4-0.6-0.6c-0.3-1-1.3-1.5-1.5-2.5
		c-0.2-0.8-0.8-1.6-0.9-2.4c-0.2-1.8-0.6-3.6-0.4-5.4c0.7-0.8,0-2,0.7-2.9c0.1-1.7,1.2-3.1,2.1-4.3c1.5-2,3.6-3.1,5.9-3.8
		c0.9-0.3,1.9-0.6,2.9-0.5C182.2,75.3,184.5,75.2,186.8,75.2z M179.2,95.6c1.5-0.2,2.9,0.3,4-0.5c0.4-1,1.1-1.8,0.8-2.7
		c-0.3-0.7-0.5-1.1-0.9-1.8c1.3,0.6,2.4,0.2,3.4,0.4c1.5-0.9,1.6-1.1,1.6-2.8c0-0.6,0-1.3,0-1.8c-0.2-0.4-0.4-0.7-0.4-0.9
		c-1.5-1-3-0.3-4.5-0.1c0.5-1,0.9-1.9,0.7-2.9c-0.3-0.6-0.6-1.2-0.9-1.7c-1.2-0.7-2.6-0.2-3.6-0.3c-2.1,0.6-1.8,2.2-1.8,3.5
		c0.3,0.6,0.5,1,0.7,1.4c0,0.1-0.1,0.2-0.2,0.4c-0.4-0.3-0.7-0.5-1-0.8c-0.8,0-1.6,0-2.4,0c-0.4,0.3-0.8,0.6-1.1,0.8
		c0,1.6,0,3,0,4.4c0.7,0.7,1.4,0.8,2.2,0.8c0.9,0,1.7,0,2.6,0c-0.3,0.3-0.6,0.6-0.7,0.7c0,0.9,0,1.6,0,2.4
		C178.2,94.5,178.7,95.1,179.2,95.6z"/>
	<path class="st0" d="M160.8,75.3c2.5,0,5,0,7.6,0c-0.1,1.2-0.6,2.1-0.9,3.1c-0.7,2-1.5,4-2.2,6.1c-0.4,1-0.7,2.1-1.1,3
		c-1.1,2.6-2,5.2-3,7.8c-1,2.7-2,5.5-3,8.2c-1,2.6-2.2,5.2-4.4,7.1c-0.9,0.8-1.9,1.2-3,1.3c-1.9,0.1-3.8,0-5.8,0c0-2.2,0-4.3,0-6.6
		c0.7,0,1.5,0,2.3,0c1.3,0,3-1.1,3.1-2.3c0.1-0.7,0.5-1.3,0.4-1.9s-0.3-1.1-0.5-1.7c-1.1-2.9-2.3-5.7-3.2-8.6
		c-1-3.1-2.3-6.1-3.3-9.3c-0.5-1.6-1.2-3.2-1.8-4.8c-0.2-0.4-0.2-0.9-0.2-1.3c2.5,0,4.9,0,7.2,0c0.3,0.3,0.6,0.6,0.7,0.7
		c0.4,1.3,0.6,2.3,0.9,3.4c0.7,2.3,1.6,4.5,2.1,6.8c0.2,1,0.7,1.9,1,2.9c0.4,1.3,0.8,2.7,1.2,4.1c0.2-0.1,0.5-0.1,0.5-0.2
		c0.5-1.7,0.9-3.3,1.5-5c0.9-2.9,1.6-5.8,2.7-8.7c0.3-0.6,0.2-1.4,0.4-2.1C160.1,76.5,160.5,75.9,160.8,75.3z"/>
	<path class="st0" d="M206.9,119.6c0.4-0.7,1-1.5,1.5-2.5c0.7-1.4,2.1-1.9,3.4-2.3c1-0.4,2.1-0.5,3.2-0.4c1.9,0.1,3.7,0,5.6,0
		c1.9,0,3.6,0.7,4.9,2c1.4,1.4,2,3.1,2.4,5c0.6,2.6,0.1,5.3,0.4,8c-5.2,0-10.2,0-15.4,0c-0.1,0.9-0.1,1.7,0.3,2.6c0.4,1,1,1.6,2,1.7
		c0.6,0,1.3,0,1.9,0c3.8,0,7.6,0,11.4,0c0,2,0,3.9,0,5.9c-4.9,0-9.7,0-14.5,0c-0.4,0-3-0.7-3.3-0.9c-1.3-0.7-2.2-1.9-3.1-3.1
		c-0.2-0.3-0.4-0.7-0.4-1.1c0-0.8-0.4-1.5-0.4-2.3c0.1-1.5-0.5-2.9-0.4-4.4c0.1-1.5,0-2.9,0-4.4C206.5,122.3,206.7,121,206.9,119.6z
		 M220.7,120.3c-1.8,0-3.5,0.1-5.2,0c-1.2-0.1-2.1,0.4-2.8,1.2c0,1,0,2,0,3c2.4,0,4.8,0,7.2,0c0.8,0,1.5-0.1,2.2-0.5
		c0-0.7,0-1.4,0-2.2C221.7,121.3,221.2,120.8,220.7,120.3z"/>
	<path class="st0" d="M155.4,129.4c-5.2,0-10.2,0-15.2,0c-0.5,1,0.1,1.9,0.3,3.1c0.4,0.3,0.9,0.7,1.5,1.1c4.5,0,9.1,0,13.7,0
		c0,2,0,3.9,0,5.9c-0.5,0-1,0-1.5,0c-4,0-8,0-12,0c-1.5,0-2.9-0.4-4.3-1c-2-0.9-3-2.6-3.4-4.6c-0.3-1.3-0.6-2.8-0.4-4.2
		c0.2-1.1-0.3-2.2-0.3-3.3c0-2,0.3-4,0.4-6c0.1-1.2,0.6-2.4,1.6-3.3c0.6-0.6,1.1-1.2,1.8-1.6c0.8-0.6,1.9-0.5,2.7-1
		c0.3-0.2,0.7,0,1,0c2.3,0,4.7,0,7,0c1.7,0,3.2,0.8,4.5,1.8c1,0.7,1.6,2,1.9,3.2c0.4,1.4,0.8,2.8,0.7,4.2
		C155.3,125.5,155.4,127.4,155.4,129.4z M149.4,124c0-0.8,0-1.6,0-2.5c-0.5-0.4-1-0.7-1.6-1.1c-1.7,0-3.4,0.1-5.1,0
		c-1.3-0.1-2.3,0.3-2.8,1.7c0,0.8,0,1.6,0,2.5c3,0,5.9,0,8.9,0C149.1,124.4,149.2,124.3,149.4,124z"/>
	<path class="st0" d="M223.9,100.8c0-2.1,0-4.2,0-6.3c1.2,0,2.5,0,3.7,0c3.2,0,6.4,0,9.6,0c0.7,0,1.3-0.2,1.9-0.3
		c0.6-0.8,0.7-1.5,0.5-2.4c-0.2-0.2-0.4-0.4-0.6-0.6c-1.3-0.7-2.7-0.5-4-0.5c-1.6,0-3.1,0-4.7,0c-1.7,0-3.3-0.7-4.5-1.7
		c-1.3-1-1.9-2.5-2.1-4.2c-0.1-0.9-0.1-1.8,0-2.6c0.3-2.7,1.6-5.2,4.8-6.2c0.3-0.1,0.5-0.3,0.7-0.3c1-0.1,2-0.3,3-0.3
		c4.1,0,8.2,0,12.2,0c0.2,0.2,0.3,0.3,0.6,0.6c-0.2,1.9,0.3,3.8-0.3,5.6c-0.2,0.1-0.3,0.1-0.3,0.1c-4.4,0-8.7,0-13.2,0
		c-0.4,0.4-0.7,0.8-1.2,1.4c0,0.3,0,0.7,0,1.3c0.2,0.2,0.6,0.5,1,0.8c0,0,0.2,0,0.3,0c2.3,0,4.5,0,6.8,0c0.6,0,1.1,0,1.6,0.3
		c0.4,0.3,1.1-0.2,1.6,0.4c1.3,0,1.9,1,2.8,1.7c0.8,0.7,1.3,1.6,1.6,2.5c0.7,2.4,0.8,4.8-0.7,6.9c-1.5,2.3-3.5,3.9-6.5,3.9
		C233.6,100.8,228.8,100.8,223.9,100.8z"/>
	<path class="st0" d="M198.9,97.7c-0.2-0.6-0.3-0.9-0.5-1.2c-0.4-1.1-0.8-2.2-0.8-3.3c0-5.6,0-11.3,0-16.9c0-0.3,0-0.6,0-0.9
		c2.2,0,4.3,0,6.6,0c0,0.5,0,1,0,1.5c0,4.7,0,9.4,0,14.2c0,1.4,0.5,2.5,1.3,3.5c0.7,0.8,1.8,1.1,2.8,1.1c1.1,0,2.1-0.4,3.1-1
		c0.9-0.6,1.4-1.6,1.8-2.5c0.1-0.3,0.1-0.8,0.1-1.2c0-5,0-10,0-15c0.2-0.2,0.3-0.3,0.5-0.5c2.1,0,4.2,0,6.4,0c0,8.3,0,16.6,0,25
		c-0.1,0.1-0.2,0.2-0.4,0.4c-2,0-4,0-6,0c-0.1-0.1-0.2-0.2-0.5-0.5c0-0.7,0-1.4,0-2.4c-1.1,1.7-2.3,2.6-4.1,3
		c-1.7,0.4-3.5,0.5-5.1,0.2c-1.7-0.3-3.5-0.7-4.5-2.6C199.5,98,199,97.8,198.9,97.7z"/>
	<path class="st0" d="M262,122.9c0.8,1,1.7,1.4,2.9,1.3c2-0.1,4,0,5.9,0c2.4,0,4.4,0.9,5.9,2.6c0.6,0.7,0.9,1.6,1.4,2.5
		c0.2,0.7-0.2,1.5,0.4,2.2c-0.5,1.7-0.5,3.4-1.7,4.9c-1.1,1.4-2.4,2.4-4.2,3.1c-5.3,0-10.8,0-16.4,0c0-1.9,0-3.8,0-5.9
		c0.5,0,1,0,1.5,0c2.9,0,5.8,0,8.7,0c1.5,0,3.1,0.2,4.7-0.5c0.1-0.1,0.4-0.4,0.7-0.8c0-0.5,0-1.1,0-1.8c-0.4-0.2-0.8-0.5-1.2-0.8
		c-1.7,0-3.4,0-5.2,0c-1.5,0-3-0.1-4.4-0.4c-1.2-0.3-2.5-0.6-3.3-1.7c-0.7-0.9-1.7-1.8-1.6-3.2c-0.9-2.1-0.4-4.1,0.4-6
		c0.4-1.1,1.3-2.1,2.4-2.7c1.5-0.9,3-1.4,4.7-1.4c4.1,0,8.2,0,12.2,0c0.4,0,0.8,0,1.2,0c0,2,0,3.9,0,5.9c-1.3,0-2.5,0-3.8,0
		c-2.7,0-5.5,0.1-8.2,0c-0.7,0-1.3,0.3-1.9,0.4C262.1,121,262,122,262,122.9z"/>
	<path class="st0" d="M252.5,114.4c0,2,0,3.9,0,5.9c-1.6,0-3.1,0-4.7,0c-2.4,0-4.8,0-7.2,0c-0.6,0-1.2,0.1-1.8,0.4
		c-0.4,0.2-0.7,0.6-1,0.8c0,0.7,0,1.2,0,1.8c0.6,0.7,1.4,0.9,2.3,0.9c2.3,0,4.5,0,6.8,0c2.2,0,5.1,1.6,6.2,3.6
		c0.4,0.7,0.7,1.5,0.8,2.3c0.2,2.2,0,4.3-1.4,6.2c-0.9,1.2-1.9,2.2-3.2,2.8c-0.7,0.3-1.3,0.5-2.1,0.5c-5.1,0-10.1,0-15.3,0
		c0-1,0-1.9,0-2.9s0-2,0-3c1.3,0,2.5,0,3.7,0c3.1,0,6.2,0,9.3,0c0.6,0,1.2-0.1,1.8-0.4c0.4-0.2,0.7-0.6,1.1-0.9
		c-0.1-0.7-0.3-1.4-0.4-2c-0.8-0.6-1.5-0.6-2.3-0.6c-0.9,0-1.8-0.1-2.6,0c-1.8,0.2-3.7-0.2-5.4-0.4c-1.7-0.3-3.3-1.1-4.4-2.7
		c-0.7-1.1-1-2.2-1-3.4c0-0.6,0-1.2,0-1.7c0-2.7,1.4-4.6,3.5-6c1.1-0.7,2.5-1.1,3.9-1.1C243.4,114.4,247.9,114.4,252.5,114.4z"/>
	<path class="st0" d="M196.2,122.2c-0.3-0.5-0.5-1-0.8-1.6c-0.5-0.3-1.1-0.6-1.9-1c-0.4,0-0.9,0-1.5,0c-1.6,0-2.8,0.8-3.8,2.1
		c-0.8,1.1-1.1,2.3-1.1,3.6c0,4.7,0,9.4,0,14.2c-2.2,0-4.4,0-6.6,0c0-8.3,0-16.7,0-25c2.2,0,4.4,0,6.6,0c0,0.9,0,1.7,0,2.6
		c0.6,0,0.6-0.5,0.8-0.8c0.9-1.3,2.3-1.7,3.6-2.1c1-0.3,2-0.5,3.2-0.4c1.3,0.1,4.1,0.6,5.5,1.9c1,0.9,1.8,2.2,2.3,3.6
		c0.2,0.7,0.3,1.4,0.3,2.1c0,6.1,0,12.1,0,18.2l-0.1,0.1l-0.1,0.1c-2,0-3.9,0-6,0c0-0.9,0-1.8,0-2.6c0-2.9,0-5.8,0-8.7
		c0-1,0.1-2.1,0-3.1C196.5,124.1,196.3,123.2,196.2,122.2z"/>
	<path class="st0" d="M170.1,106.4c2.2,0,4.3,0,6.5,0c0,11,0,22,0,33.1c-2.1,0.1-4.3,0-6.5,0.1C170.1,128.5,170.1,117.5,170.1,106.4
		z"/>
	<path class="st0" d="M159.3,106.4c2.2,0,4.3,0,6.5,0c0,11,0,22,0,33.1c-2.1,0.1-4.3,0-6.5,0.1C159.3,128.5,159.3,117.5,159.3,106.4
		z"/>
</g>
</svg>
